<?xml version="1.0" encoding="utf-8"?>
<!-- Generator: Adobe Illustrator 19.0.0, SVG Export Plug-In . SVG Version: 6.00 Build 0)  -->
<svg version="1.1" id="Layer_1" xmlns="http://www.w3.org/2000/svg" xmlns:xlink="http://www.w3.org/1999/xlink" x="0px" y="0px"
	 viewBox="-14 53.9 83 86.1" style="enable-background:new -14 53.9 83 86.1;" xml:space="preserve">
<style type="text/css">
	.st0{fill:#FFFFFF;}
</style>
<g id="Group_13898" transform="translate(-53.516 -54)">
	<g id="Group_1779" transform="translate(53.569 51.454)">
		<g id="Group_433" transform="translate(0 31.91)">
			<path id="Path_1441" class="st0" d="M53,61.7l-0.1,9.9H2.1c-0.3,0-0.5,0.2-0.7,0.4L-14,107.9l0.1-53.1c0-0.5,0.4-0.9,0.9-0.9H3.5
				c0.5,0,0.9,0.4,0.9,0.9l-0.1,5.9l47.7-0.1C52.6,60.7,53,61.1,53,61.7z"/>
			<g id="Group_464" transform="translate(2.588 21.174)">
				<path id="Path_1442" class="st0" d="M66.2,55.2L52,88.9c-0.2,0.3-0.5,0.6-0.9,0.6H-14L1.1,54.3c0.1-0.3,0.4-0.4,0.7-0.4h63.6
					c0.5,0,0.9,0.4,0.9,0.9C66.3,55,66.3,55.1,66.2,55.2z"/>
			</g>
		</g>
		<path id="Rectangle_3350" class="st0" d="M-11.6,69.5h63c1.4,0,2.5,1.1,2.5,2.5l0,0c0,1.4-1.1,2.5-2.5,2.5h-63
			c-1.4,0-2.5-1.1-2.5-2.5l0,0C-14.1,70.6-12.9,69.5-11.6,69.5z"/>
		<path id="Rectangle_3351" class="st0" d="M-11.6,56.5h63c1.4,0,2.5,1.1,2.5,2.5l0,0c0,1.4-1.1,2.5-2.5,2.5h-63
			c-1.4,0-2.5-1.1-2.5-2.5l0,0C-14.1,57.6-12.9,56.5-11.6,56.5z"/>
	</g>
</g>
</svg>
