<svg xmlns="http://www.w3.org/2000/svg" width="38" height="38" viewBox="0 0 38 38">
  <g id="Group_14690" data-name="Group 14690" transform="translate(13.471 -12.738)">
    <g id="Group_14681" data-name="Group 14681" transform="translate(-12 12)">
      <g id="Group_14685" data-name="Group 14685">
        <circle id="Ellipse_6" data-name="Ellipse 6" cx="19" cy="19" r="19" transform="translate(-1.471 0.738)" fill="#571300"/>
        <path id="Icon_metro-link" data-name="Icon metro-link" d="M11.372,14.582a1.021,1.021,0,0,1-.725-.3,4.814,4.814,0,0,1,0-6.8L14.431,3.7a4.808,4.808,0,1,1,6.8,6.8l-1.73,1.73a1.025,1.025,0,1,1-1.449-1.449l1.73-1.73a2.759,2.759,0,0,0-3.9-3.9L12.1,8.931a2.762,2.762,0,0,0,0,3.9,1.025,1.025,0,0,1-.725,1.749ZM7.742,22a4.808,4.808,0,0,1-3.4-8.208l1.73-1.73A1.025,1.025,0,0,1,7.52,13.507l-1.73,1.73a2.759,2.759,0,0,0,3.9,3.9l3.784-3.784a2.762,2.762,0,0,0,0-3.9A1.025,1.025,0,1,1,14.926,10a4.814,4.814,0,0,1,0,6.8l-3.784,3.784A4.777,4.777,0,0,1,7.742,22Z" transform="translate(4.475 7.867)" fill="#fff"/>
      </g>
    </g>
  </g>
</svg>
