<svg xmlns="http://www.w3.org/2000/svg" xmlns:xlink="http://www.w3.org/1999/xlink" width="815.588" height="473.707" viewBox="0 0 815.588 473.707">
  <defs>
    <clipPath id="clip-path">
      <rect id="Rectangle_107" data-name="Rectangle 107" width="462.792" height="301.021" transform="translate(0 0)" fill="none"/>
    </clipPath>
  </defs>
  <g id="Group_14838" data-name="Group 14838" transform="translate(-80.629 -194.144)">
    <g id="Group_13985" data-name="Group 13985" transform="translate(268 366.827)">
      <g id="Group_13984" data-name="Group 13984" transform="translate(0 0.003)" clip-path="url(#clip-path)">
        <path id="Path_26508" data-name="Path 26508" d="M465.331,1031.656H9.754a1.428,1.428,0,0,1-1.077-2.366l39.334-45.181H427.074l39.334,45.181a1.428,1.428,0,0,1-1.077,2.366" transform="translate(-6.179 -730.634)" fill="#016bb2"/>
        <path id="Path_26509" data-name="Path 26509" d="M567.932,221.3H216.844V8.7A8.619,8.619,0,0,1,225.385,0H559.391a8.621,8.621,0,0,1,8.541,8.7q0,106.3,0,212.593" transform="translate(-160.992 -0.004)" fill="#0d3353"/>
        <path id="Path_26510" data-name="Path 26510" d="M587.434,254.346H257.067q0-90.943,0-181.885H587.434V254.346" transform="translate(-190.855 -53.798)" fill="#eff5f8"/>
        <path id="Path_26511" data-name="Path 26511" d="M811.517,297a30.171,30.171,0,0,1-30.137-30.138V245.923a30.137,30.137,0,1,1,60.274,0v20.935A30.171,30.171,0,0,1,811.517,297m0-70.542a19.492,19.492,0,0,0-19.47,19.47v20.935a19.491,19.491,0,0,0,19.47,19.47h0a19.492,19.492,0,0,0,19.47-19.47V245.923a19.492,19.492,0,0,0-19.47-19.47" transform="translate(-580.122 -160.207)" fill="#0d3353"/>
        <path id="Path_26512" data-name="Path 26512" d="M814.171,450.023H746.34a7.068,7.068,0,0,1-7.067-7.067v-57.21h81.965v57.21a7.067,7.067,0,0,1-7.067,7.067" transform="translate(-548.86 -286.39)" fill="#fcb32c"/>
        <path id="Path_26513" data-name="Path 26513" d="M882.074,462.184a8.666,8.666,0,1,0-12,8v9.364a3.337,3.337,0,1,0,6.673,0v-9.364a8.667,8.667,0,0,0,5.33-8" transform="translate(-642.012 -336.707)" fill="#0d3353"/>
        <path id="Path_26514" data-name="Path 26514" d="M459.5,943.815c-19.482-22.162-35.843-40.774-49.778-56.628H58.635C44.7,903.042,28.34,921.653,8.858,943.815H3.75l3.771,1.52h0l4.971,2,5.537,2.232a57.136,57.136,0,0,0,21.361,4.143H429a57.142,57.142,0,0,0,21.36-4.143l10.487-4.227.02-.009,3.771-1.52Z" transform="translate(-2.784 -658.677)" fill="#0d3353"/>
        <path id="Path_26515" data-name="Path 26515" d="M454.036,920.4H8.756c-6.29,0-10.022-1.552-8.361-3.441l55.457-63.086H406.94L462.4,916.964c1.662,1.889-2.073,3.441-8.361,3.441" transform="translate(0 -633.947)" fill="#e9eaec"/>
        <path id="Path_26516" data-name="Path 26516" d="M537.512,914.915H154.1l29.326-37.175H508.186l29.326,37.175" transform="translate(-114.412 -651.663)" fill="#c8cecc"/>
        <path id="Path_26517" data-name="Path 26517" d="M721.67,993.879H559.548q.831-2.281,1.64-4.5c.181-.5,1.821-.9,3.656-.9H723.312l1.459,4.47c.168.516-1.222.935-3.1.935" transform="translate(-415.426 -733.875)" fill="#0d3353"/>
        <path id="Path_26518" data-name="Path 26518" d="M226.07,993.879H205.093l3.355-4.5c.37-.5,2.16-.9,4-.9h20.5l-2.875,4.47c-.334.516-2.123.935-4.007.935" transform="translate(-152.268 -733.875)" fill="#0d3353"/>
        <path id="Path_26519" data-name="Path 26519" d="M293.782,903.078H274.918l2.718-3.65c.3-.4,1.888-.732,3.545-.731h18.481l-2.331,3.625c-.27.417-1.855.757-3.549.757" transform="translate(-204.108 -667.222)" fill="#0d3353"/>
        <path id="Path_26520" data-name="Path 26520" d="M284.416,969.354h-60.44l3.177-4.265c.351-.472,2.086-.853,3.875-.853h59.113q-.986,2.091-2,4.233c-.229.488-1.9.885-3.73.885" transform="translate(-166.287 -715.88)" fill="#0d3353"/>
        <path id="Path_26521" data-name="Path 26521" d="M291.514,946.109H241.857l3.012-4.044c.332-.448,2.015-.81,3.759-.81h48.6q-1.015,1.983-2.055,4.014c-.236.462-1.873.839-3.654.839" transform="translate(-179.562 -698.819)" fill="#0d3353"/>
        <path id="Path_26522" data-name="Path 26522" d="M1454.507,969.354h-34.044l-2.493-4.265c-.276-.472.951-.853,2.741-.853h33.3q1.56,2.091,3.153,4.233c.366.488-.824.885-2.653.885" transform="translate(-1052.718 -715.88)" fill="#0d3353"/>
        <path id="Path_26523" data-name="Path 26523" d="M344.222,993.879H323.246q1.408-2.281,2.783-4.5c.308-.5,2.046-.9,3.885-.9h20.5l-2.307,4.47c-.267.516-2.008.935-3.888.935" transform="translate(-239.988 -733.875)" fill="#0d3353"/>
        <path id="Path_26524" data-name="Path 26524" d="M1242.06,993.879h-20.977q-.8-2.281-1.584-4.5c-.175-.5,1.172-.9,3.012-.9h20.5q1,2.208,2.026,4.47c.237.516-1.1.935-2.981.935" transform="translate(-905.384 -733.875)" fill="#0d3353"/>
        <path id="Path_26525" data-name="Path 26525" d="M1357.03,1002.234h-15.455q-.383-.8-.758-1.584c-.245-.51,1.067-.923,2.928-.923h15.293q.437.783.875,1.572c.288.516-1,.935-2.883.935" transform="translate(-995.444 -742.23)" fill="#0d3353"/>
        <path id="Path_26526" data-name="Path 26526" d="M308.631,889.241h-18.4l1-1.338c.292-.394,1.854-.711,3.487-.711h18.221l-.855,1.329c-.258.4-1.8.72-3.45.72" transform="translate(-215.476 -658.681)" fill="#233a35"/>
        <path id="Path_26527" data-name="Path 26527" d="M1439.324,889.241h-18.4l-.86-1.338c-.252-.394.865-.711,2.5-.711h18.221q.5.662.99,1.329c.3.4-.8.72-2.451.72" transform="translate(-1054.274 -658.681)" fill="#233a35"/>
        <path id="Path_26528" data-name="Path 26528" d="M1530.705,1002.234H1515.25l-1.055-1.584c-.342-.51.891-.923,2.755-.923h15.294q.586.783,1.17,1.572c.387.516-.827.935-2.709.935" transform="translate(-1124.145 -742.23)" fill="#0d3353"/>
        <path id="Path_26529" data-name="Path 26529" d="M1443.871,1002.234h-15.455q-.455-.8-.906-1.584c-.294-.51.981-.923,2.841-.923h15.294l1.023,1.572c.337.516-.916.935-2.8.935" transform="translate(-1059.797 -742.23)" fill="#0d3353"/>
        <path id="Path_26530" data-name="Path 26530" d="M1437.17,990.92h-15.264q-.443-.776-.885-1.545c-.287-.5.976-.9,2.813-.9h15.107l1,1.533c.329.5-.912.913-2.769.913" transform="translate(-1054.982 -733.876)" fill="#0d3353"/>
        <path id="Path_26531" data-name="Path 26531" d="M462.373,993.879H441.4l2.212-4.5c.244-.5,1.933-.9,3.771-.9h20.5q-.857,2.208-1.74,4.47c-.2.516-1.891.935-3.769.935" transform="translate(-327.707 -733.875)" fill="#0d3353"/>
        <path id="Path_26532" data-name="Path 26532" d="M521.725,969.354H501.32q.95-2.158,1.87-4.265c.2-.472,1.826-.853,3.614-.853h19.957q-.7,2.091-1.426,4.233c-.164.488-1.78.885-3.611.885" transform="translate(-372.196 -715.88)" fill="#0d3353"/>
        <path id="Path_26533" data-name="Path 26533" d="M636.659,969.354H616.254l1.329-4.265c.146-.472,1.717-.853,3.506-.853h19.957q-.441,2.091-.888,4.233c-.1.488-1.67.885-3.5.885" transform="translate(-457.527 -715.88)" fill="#0d3353"/>
        <path id="Path_26534" data-name="Path 26534" d="M290.666,924.046H258.815l2.86-3.839c.316-.426,1.95-.769,3.649-.769h31.187l-2.236,3.812c-.258.439-1.873.8-3.609.8" transform="translate(-192.153 -682.621)" fill="#0d3353"/>
        <path id="Path_26535" data-name="Path 26535" d="M1413.925,946.028h-42.318q-1.111-2.045-2.2-4.043c-.245-.448.973-.81,2.715-.809h41.413q1.48,1.983,2.989,4.013c.347.463-.819.839-2.6.839" transform="translate(-1016.668 -698.76)" fill="#0d3353"/>
        <path id="Path_26536" data-name="Path 26536" d="M751.591,969.354H731.186q.4-2.158.788-4.265c.087-.472,1.609-.853,3.4-.853h19.957q-.175,2.091-.351,4.233c-.04.488-1.555.885-3.386.885" transform="translate(-542.856 -715.88)" fill="#0d3353"/>
        <path id="Path_26537" data-name="Path 26537" d="M866.525,969.354H846.12q.125-2.158.246-4.265c.028-.472,1.5-.853,3.289-.853h19.957q.091,2.091.186,4.233c.021.488-1.446.885-3.274.885" transform="translate(-628.187 -715.88)" fill="#0d3353"/>
        <path id="Path_26538" data-name="Path 26538" d="M980.606,969.354H960.2l-.295-4.265c-.032-.472,1.39-.853,3.181-.853h19.957l.724,4.233c.083.488-1.332.885-3.162.885" transform="translate(-712.665 -715.88)" fill="#0d3353"/>
        <path id="Path_26539" data-name="Path 26539" d="M1093.967,969.354h-20.4q-.423-2.158-.836-4.265c-.093-.472,1.282-.853,3.073-.853h19.957q.62,2.091,1.261,4.233c.145.488-1.217.885-3.049.885" transform="translate(-796.423 -715.88)" fill="#0d3353"/>
        <path id="Path_26540" data-name="Path 26540" d="M1207.319,969.354h-20.4q-.7-2.158-1.378-4.265c-.152-.472,1.175-.853,2.964-.853h19.957l1.8,4.233c.208.488-1.107.885-2.937.885" transform="translate(-880.172 -715.88)" fill="#0d3353"/>
        <path id="Path_26541" data-name="Path 26541" d="M1320.657,969.354h-20.405l-1.919-4.265c-.212-.472,1.07-.853,2.856-.853h19.957q1.154,2.091,2.335,4.233c.271.488-.993.885-2.824.885" transform="translate(-963.907 -715.88)" fill="#0d3353"/>
        <path id="Path_26542" data-name="Path 26542" d="M496.07,946.109H476.206l1.937-4.044c.215-.448,1.8-.81,3.544-.81h19.44q-.75,1.983-1.514,4.014c-.172.462-1.761.839-3.541.839" transform="translate(-353.551 -698.819)" fill="#0d3353"/>
        <path id="Path_26543" data-name="Path 26543" d="M607.955,946.109H588.092l1.423-4.044c.159-.448,1.7-.81,3.441-.81H612.4l-1,4.014c-.115.462-1.652.839-3.435.839" transform="translate(-436.618 -698.819)" fill="#0d3353"/>
        <path id="Path_26544" data-name="Path 26544" d="M719.841,946.109H699.978l.91-4.044c.1-.448,1.6-.81,3.338-.81h19.439l-.5,4.014c-.056.462-1.546.839-3.328.839" transform="translate(-519.686 -698.819)" fill="#0d3353"/>
        <path id="Path_26545" data-name="Path 26545" d="M831.725,946.109H811.861q.2-2.046.4-4.044c.045-.448,1.492-.81,3.236-.81h19.439q.011,1.983.014,4.014c0,.462-1.441.839-3.222.839" transform="translate(-602.752 -698.819)" fill="#0d3353"/>
        <path id="Path_26546" data-name="Path 26546" d="M943.276,946.109H923.412q-.059-2.046-.116-4.044c-.013-.448,1.391-.81,3.133-.81h19.439q.258,1.983.524,4.014c.06.462-1.339.839-3.116.839" transform="translate(-685.484 -698.819)" fill="#0d3353"/>
        <path id="Path_26547" data-name="Path 26547" d="M1053.675,946.109h-19.864q-.318-2.046-.629-4.044c-.07-.448,1.286-.81,3.03-.81h19.44q.51,1.983,1.033,4.014c.119.462-1.226.839-3.009.839" transform="translate(-767.065 -698.819)" fill="#0d3353"/>
        <path id="Path_26548" data-name="Path 26548" d="M1164.065,946.109H1144.2q-.578-2.046-1.143-4.044c-.125-.448,1.181-.81,2.927-.81h19.439q.765,1.983,1.543,4.014c.176.462-1.123.839-2.9.839" transform="translate(-848.637 -698.819)" fill="#0d3353"/>
        <path id="Path_26549" data-name="Path 26549" d="M1274.444,946.109H1254.58l-1.656-4.044c-.183-.448,1.08-.81,2.824-.81h19.439l2.052,4.014c.239.462-1.017.839-2.8.839" transform="translate(-930.198 -698.819)" fill="#0d3353"/>
        <path id="Path_26550" data-name="Path 26550" d="M442.309,924.046H422.958l2.126-3.839c.235-.426,1.8-.769,3.5-.769h18.948l-1.723,3.812c-.2.439-1.768.8-3.5.8" transform="translate(-314.018 -682.621)" fill="#0d3353"/>
        <path id="Path_26551" data-name="Path 26551" d="M551.305,924.046h-19.35l1.638-3.839c.18-.426,1.705-.769,3.4-.769h18.947l-1.239,3.812c-.143.439-1.665.8-3.4.8" transform="translate(-394.94 -682.621)" fill="#0d3353"/>
        <path id="Path_26552" data-name="Path 26552" d="M660.3,924.046h-19.35q.58-1.942,1.151-3.839c.126-.426,1.606-.769,3.307-.769h18.947q-.374,1.884-.755,3.812c-.088.439-1.563.8-3.3.8" transform="translate(-475.863 -682.621)" fill="#0d3353"/>
        <path id="Path_26553" data-name="Path 26553" d="M769.3,924.046H749.944q.336-1.942.664-3.839c.075-.426,1.512-.769,3.209-.769h18.948q-.131,1.884-.271,3.812c-.031.439-1.463.8-3.2.8" transform="translate(-556.782 -682.621)" fill="#0d3353"/>
        <path id="Path_26554" data-name="Path 26554" d="M878.291,924.046H858.94q.089-1.942.176-3.839c.018-.426,1.414-.769,3.112-.769h18.948q.107,1.884.212,3.812c.027.439-1.362.8-3.1.8" transform="translate(-637.705 -682.621)" fill="#0d3353"/>
        <path id="Path_26555" data-name="Path 26555" d="M986.39,924.046H967.038q-.157-1.942-.311-3.839c-.033-.426,1.317-.769,3.014-.769h18.948q.345,1.884.7,3.812c.08.439-1.261.8-3,.8" transform="translate(-717.729 -682.621)" fill="#0d3353"/>
        <path id="Path_26556" data-name="Path 26556" d="M1093.972,924.046h-19.351l-.8-3.839c-.086-.426,1.216-.769,2.916-.769h18.948l1.18,3.812c.135.439-1.161.8-2.9.8" transform="translate(-797.237 -682.621)" fill="#0d3353"/>
        <path id="Path_26557" data-name="Path 26557" d="M1201.542,924.046h-19.351q-.651-1.942-1.286-3.839c-.145-.426,1.12-.769,2.819-.769h18.947q.824,1.884,1.664,3.812c.191.439-1.059.8-2.793.8" transform="translate(-876.734 -682.621)" fill="#0d3353"/>
        <path id="Path_26558" data-name="Path 26558" d="M1309.719,924.046h-19.351q-.9-1.942-1.776-3.839c-.2-.426,1.023-.769,2.72-.769h18.948l2.151,3.812c.247.439-.957.8-2.692.8" transform="translate(-956.676 -682.621)" fill="#0d3353"/>
        <path id="Path_26559" data-name="Path 26559" d="M406.485,903.078H387.621q1.125-1.846,2.227-3.65c.247-.4,1.789-.732,3.447-.731h18.48q-.91,1.791-1.843,3.625c-.212.417-1.756.757-3.447.757" transform="translate(-287.782 -667.222)" fill="#0d3353"/>
        <path id="Path_26560" data-name="Path 26560" d="M512.737,903.078H493.873l1.764-3.65c.2-.4,1.695-.732,3.354-.731h18.48l-1.383,3.625c-.161.417-1.658.757-3.351.757" transform="translate(-366.667 -667.222)" fill="#0d3353"/>
        <path id="Path_26561" data-name="Path 26561" d="M618.987,903.078H600.124q.66-1.846,1.3-3.65c.144-.4,1.607-.732,3.261-.731h18.48q-.457,1.791-.923,3.625c-.107.417-1.564.757-3.256.757" transform="translate(-445.551 -667.222)" fill="#0d3353"/>
        <path id="Path_26562" data-name="Path 26562" d="M725.239,903.078H706.376l.837-3.65c.092-.4,1.512-.732,3.168-.731h18.48q-.231,1.791-.463,3.625c-.053.417-1.469.757-3.159.757" transform="translate(-524.436 -667.222)" fill="#0d3353"/>
        <path id="Path_26563" data-name="Path 26563" d="M831.491,903.078H812.628q.19-1.846.374-3.65c.042-.4,1.42-.732,3.075-.731h18.48q0,1.791,0,3.625c0,.417-1.37.757-3.063.757" transform="translate(-603.321 -667.222)" fill="#0d3353"/>
        <path id="Path_26564" data-name="Path 26564" d="M937.484,903.078H918.62q-.045-1.846-.089-3.65c-.01-.4,1.325-.732,2.983-.731h18.48q.226,1.791.457,3.625c.052.417-1.273.757-2.967.757" transform="translate(-681.947 -667.222)" fill="#0d3353"/>
        <path id="Path_26565" data-name="Path 26565" d="M1042.394,903.078H1023.53q-.279-1.846-.553-3.65c-.061-.4,1.232-.732,2.889-.731h18.481q.453,1.791.917,3.625c.1.417-1.179.757-2.871.757" transform="translate(-759.489 -667.222)" fill="#0d3353"/>
        <path id="Path_26566" data-name="Path 26566" d="M1147.3,903.078h-18.864q-.514-1.846-1.016-3.65c-.115-.4,1.142-.732,2.8-.731h18.48q.682,1.791,1.377,3.625c.159.417-1.083.757-2.775.757" transform="translate(-837.024 -667.222)" fill="#0d3353"/>
        <path id="Path_26567" data-name="Path 26567" d="M1252.79,903.078h-18.863q-.751-1.846-1.482-3.65c-.166-.4,1.048-.732,2.7-.731h18.48q.91,1.791,1.84,3.625c.212.417-.988.757-2.678.757" transform="translate(-914.995 -667.222)" fill="#0d3353"/>
        <path id="Path_26568" data-name="Path 26568" d="M1433.969,924.046h-29.518q-1.158-1.942-2.293-3.839c-.256-.426.919-.769,2.617-.769h28.9q1.407,1.884,2.839,3.812c.329.439-.813.8-2.549.8" transform="translate(-1040.982 -682.621)" fill="#0d3353"/>
        <path id="Path_26569" data-name="Path 26569" d="M1386.137,903.078h-40.96l-1.973-3.65c-.22-.4.949-.732,2.6-.731h40.127q1.338,1.791,2.7,3.625c.313.417-.807.757-2.5.757" transform="translate(-997.218 -667.222)" fill="#0d3353"/>
        <path id="Path_26570" data-name="Path 26570" d="M529.734,889.241h-18.4l.634-1.338c.185-.394,1.661-.711,3.3-.711h18.221l-.495,1.329c-.148.4-1.6.72-3.255.72" transform="translate(-379.63 -658.681)" fill="#233a35"/>
        <path id="Path_26571" data-name="Path 26571" d="M633.376,889.241h-18.4q.235-.672.465-1.338c.138-.394,1.57-.711,3.2-.711h18.221q-.165.662-.326,1.329c-.1.4-1.514.72-3.164.72" transform="translate(-456.577 -658.681)" fill="#233a35"/>
        <path id="Path_26572" data-name="Path 26572" d="M737.018,889.241h-18.4l.294-1.338c.089-.394,1.479-.711,3.115-.711h18.221q-.078.662-.158,1.329c-.047.4-1.422.72-3.073.72" transform="translate(-533.525 -658.681)" fill="#233a35"/>
        <path id="Path_26573" data-name="Path 26573" d="M882.183,889.065h-18.4q.028-.671.057-1.338c.018-.393,1.355-.71,2.988-.711h18.217q.041.661.079,1.329c.024.4-1.3.72-2.944.72" transform="translate(-641.303 -658.551)" fill="#233a35"/>
        <path id="Path_26574" data-name="Path 26574" d="M985.474,889.065h-18.4q-.054-.671-.113-1.338c-.035-.393,1.261-.71,2.9-.711h18.217l.247,1.329c.074.4-1.2.72-2.853.72" transform="translate(-717.905 -658.551)" fill="#233a35"/>
        <path id="Path_26575" data-name="Path 26575" d="M1088.593,889.065h-18.4q-.143-.671-.283-1.338c-.083-.393,1.175-.71,2.808-.711h18.217q.207.661.416,1.329c.122.4-1.11.72-2.761.72" transform="translate(-794.336 -658.551)" fill="#233a35"/>
        <path id="Path_26576" data-name="Path 26576" d="M1233.01,889.065h-18.4q-.258-.671-.521-1.338c-.153-.393,1.047-.71,2.681-.711h18.218q.325.661.652,1.329c.2.4-.986.72-2.633.72" transform="translate(-901.371 -658.551)" fill="#233a35"/>
        <path id="Path_26577" data-name="Path 26577" d="M1336.111,889.065h-18.4l-.69-1.338c-.206-.393.957-.71,2.591-.711h18.217l.821,1.329c.243.4-.893.72-2.542.72" transform="translate(-977.783 -658.551)" fill="#233a35"/>
        <path id="Path_26578" data-name="Path 26578" d="M787.824,1054.076h-101.3c-3.11,0-5.469-.761-5.268-1.693q1.432-6.708,2.773-12.971c.178-.837,2.688-1.51,5.607-1.511h95.073c2.919,0,5.431.675,5.607,1.511q1.336,6.268,2.773,12.971c.2.932-2.159,1.694-5.268,1.693" transform="translate(-505.78 -770.571)" fill="#c8cecc"/>
      </g>
    </g>
    <g id="Group_13988" data-name="Group 13988" transform="translate(-3140.329 -235.494)">
      <g id="Group_13987" data-name="Group 13987" transform="translate(2796.958 0.005)">
        <g id="Group_13989" data-name="Group 13989" transform="translate(424 463)">
          <path id="Path_26592" data-name="Path 26592" d="M2796.958,713.984c0,3.5,36.7,6.335,81.962,6.335s81.962-2.836,81.962-6.335-36.7-6.335-81.962-6.335-81.962,2.836-81.962,6.335" transform="translate(-2796.958 -484.842)" fill="#016bb2"/>
          <rect id="Rectangle_118" data-name="Rectangle 118" width="155.126" height="229.142" transform="translate(4.399)" fill="#0d3353"/>
          <rect id="Rectangle_119" data-name="Rectangle 119" width="155.126" height="49.284" transform="translate(4.399 8.002)" fill="#00a0d2"/>
          <rect id="Rectangle_120" data-name="Rectangle 120" width="74.71" height="12.124" transform="translate(74.389 26.582)" fill="#0d3353"/>
          <rect id="Rectangle_121" data-name="Rectangle 121" width="34.093" height="2.788" transform="translate(109.138 31.25)" fill="#fff"/>
          <path id="Path_26593" data-name="Path 26593" d="M2902.922,89.437a6.547,6.547,0,1,0,6.547-6.547,6.546,6.546,0,0,0-6.547,6.547" transform="translate(-2869.559 -56.793)" fill="#0d3353"/>
          <path id="Path_26594" data-name="Path 26594" d="M2844.008,89.437a6.547,6.547,0,1,0,6.547-6.547,6.547,6.547,0,0,0-6.547,6.547" transform="translate(-2829.194 -56.793)" fill="#eff5f8"/>
          <rect id="Rectangle_122" data-name="Rectangle 122" width="155.126" height="49.284" transform="translate(4.399 65.287)" fill="#00a0d2"/>
          <rect id="Rectangle_123" data-name="Rectangle 123" width="74.71" height="12.124" transform="translate(74.389 83.867)" fill="#0d3353"/>
          <rect id="Rectangle_124" data-name="Rectangle 124" width="34.093" height="2.788" transform="translate(109.138 88.535)" fill="#fff"/>
          <path id="Path_26595" data-name="Path 26595" d="M2902.922,271.377a6.547,6.547,0,1,0,6.547-6.547,6.547,6.547,0,0,0-6.547,6.547" transform="translate(-2869.559 -181.448)" fill="#0d3353"/>
          <path id="Path_26596" data-name="Path 26596" d="M2844.008,271.377a6.547,6.547,0,1,0,6.547-6.547,6.547,6.547,0,0,0-6.547,6.547" transform="translate(-2829.194 -181.448)" fill="#eff5f8"/>
          <rect id="Rectangle_125" data-name="Rectangle 125" width="155.126" height="49.284" transform="translate(4.399 122.573)" fill="#00a0d2"/>
          <rect id="Rectangle_126" data-name="Rectangle 126" width="74.71" height="12.124" transform="translate(74.389 141.153)" fill="#0d3353"/>
          <rect id="Rectangle_127" data-name="Rectangle 127" width="34.093" height="2.788" transform="translate(109.138 145.821)" fill="#fff"/>
          <path id="Path_26597" data-name="Path 26597" d="M2902.922,453.318a6.547,6.547,0,1,0,6.547-6.547,6.547,6.547,0,0,0-6.547,6.547" transform="translate(-2869.559 -306.103)" fill="#0d3353"/>
          <path id="Path_26598" data-name="Path 26598" d="M2844.008,453.318a6.547,6.547,0,1,0,6.547-6.547,6.547,6.547,0,0,0-6.547,6.547" transform="translate(-2829.194 -306.103)" fill="#eff5f8"/>
          <rect id="Rectangle_128" data-name="Rectangle 128" width="155.126" height="8.002" transform="translate(4.399 221.141)" fill="#00a0d2"/>
        </g>
      </g>
    </g>
    <g id="Group_13990" data-name="Group 13990" transform="translate(667.217 -405)">
      <path id="Path_26599" data-name="Path 26599" d="M3330.332,796.8c0,2.573,34.348,4.66,76.717,4.66s76.717-2.086,76.717-4.66-34.347-4.66-76.717-4.66-76.717,2.086-76.717,4.66" transform="translate(-3254.766 54.041)" fill="#016bb2"/>
      <path id="Path_26600" data-name="Path 26600" d="M3341.261,474.131v82.878h146.552V455.69a6.393,6.393,0,0,0-6.392-6.392h-45.2a6.391,6.391,0,0,0-4.631,1.986l-15.653,16.454h-68.283a6.393,6.393,0,0,0-6.392,6.392" transform="translate(-3262.254 288.936)" fill="#dba34b"/>
      <rect id="Rectangle_129" data-name="Rectangle 129" width="101.925" height="125.734" transform="translate(96.302 688.16)" fill="#f6f6f6"/>
      <rect id="Rectangle_130" data-name="Rectangle 130" width="76.446" height="6.937" transform="translate(109.041 702.997)" fill="#00a0d2"/>
      <rect id="Rectangle_131" data-name="Rectangle 131" width="76.446" height="6.937" transform="translate(109.041 714.899)" fill="#00a0d2"/>
      <rect id="Rectangle_132" data-name="Rectangle 132" width="76.446" height="6.937" transform="translate(109.041 726.802)" fill="#00a0d2"/>
      <rect id="Rectangle_133" data-name="Rectangle 133" width="76.446" height="6.937" transform="translate(109.041 738.705)" fill="#00a0d2"/>
      <rect id="Rectangle_134" data-name="Rectangle 134" width="76.446" height="6.937" transform="translate(109.041 750.607)" fill="#00a0d2"/>
      <rect id="Rectangle_135" data-name="Rectangle 135" width="76.446" height="6.937" transform="translate(109.041 762.51)" fill="#6fbfb1"/>
      <rect id="Rectangle_136" data-name="Rectangle 136" width="76.446" height="6.937" transform="translate(109.041 774.474)" fill="#6fbfb1"/>
      <rect id="Rectangle_137" data-name="Rectangle 137" width="76.446" height="6.937" transform="translate(109.041 786.376)" fill="#6fbfb1"/>
      <path id="Path_26601" data-name="Path 26601" d="M3341.261,489.681v82.877h146.552V471.24a6.393,6.393,0,0,0-6.392-6.392h-45.2a6.388,6.388,0,0,0-4.631,1.986l-15.653,16.454h-68.283a6.392,6.392,0,0,0-6.392,6.392" transform="translate(-3262.254 278.282)" fill="#fcb32c"/>
      <path id="Path_26602" data-name="Path 26602" d="M3496.32,613.676a24.232,24.232,0,0,0,4.86,14.583l3.928-3.928a18.86,18.86,0,0,1,26.22-26.22l3.929-3.929a24.344,24.344,0,0,0-38.937,19.494m13.7,15.567-3.929,3.929a24.344,24.344,0,0,0,34.079-34.077l-3.93,3.928a18.86,18.86,0,0,1-26.22,26.22" transform="translate(-3368.492 192.999)" fill="#f6f6f6"/>
      <path id="Path_26603" data-name="Path 26603" d="M3500.362,687.784l-5.6,5.6,5.815.22,5.816.22-.22-5.816-.22-5.816Z" transform="translate(-3367.427 129.374)" fill="#f6f6f6"/>
      <path id="Path_26604" data-name="Path 26604" d="M3622.3,620.247l5.6-5.6-5.816-.22-5.816-.22.22,5.816.22,5.816Z" transform="translate(-3450.672 175.947)" fill="#f6f6f6"/>
    </g>
    <g id="Group_14598" data-name="Group 14598" transform="translate(0 -242)">
      <path id="Path_29496" data-name="Path 29496" d="M139.221,103.2l3.436,17.4,19.285,5.32-19.285,5.32-3.436,17.4-3.436-17.4-19.285-5.32,19.285-5.32Z" transform="translate(318.338 332.944)" fill="#00a0d1"/>
      <path id="Path_29498" data-name="Path 29498" d="M139.221,103.2l3.436,17.4,19.285,5.32-19.285,5.32-3.436,17.4-3.436-17.4-19.285-5.32,19.285-5.32Z" transform="translate(359.57 381.357)" fill="#fcb32c"/>
      <path id="Path_29497" data-name="Path 29497" d="M139.221,103.2l3.436,17.4,19.285,5.32-19.285,5.32-3.436,17.4-3.436-17.4-19.285-5.32,19.285-5.32Z" transform="translate(402.013 335.915)" fill="#016bb2"/>
    </g>
  </g>
</svg>
