<svg xmlns="http://www.w3.org/2000/svg" width="306.93" height="547.952" viewBox="0 0 306.93 547.952">
  <g id="Group_14311" data-name="Group 14311" transform="translate(-2652 696)">
    <g id="Group_14310" data-name="Group 14310" transform="translate(2652 -696)">
      <rect id="Rectangle_2466" data-name="Rectangle 2466" width="268.837" height="489.844" rx="58.728" transform="translate(4.536)" fill="#383838"/>
      <path id="Path_27210" data-name="Path 27210" d="M679.91,166.48V553.315a43.2,43.2,0,0,1-43.092,43.21H468a43.2,43.2,0,0,1-43.092-43.21V166.48A43.2,43.2,0,0,1,468,123.27h22.076v7.647a13.036,13.036,0,0,0,13.017,13.053c28.582,8.657,62.13,7.306,98.635,0a13.036,13.036,0,0,0,13.018-13.052V123.27h22.076a43.2,43.2,0,0,1,43.092,43.21Z" transform="translate(-413.073 -118.733)" fill="#fff"/>
      <path id="Path_27211" data-name="Path 27211" d="M417.2,235.462a3.3,3.3,0,0,1-3.3-3.3v-6.6a3.3,3.3,0,1,1,6.6,0v6.6A3.3,3.3,0,0,1,417.2,235.462Z" transform="translate(-413.903 -136.092)" fill="#3f3d56"/>
      <path id="Path_27212" data-name="Path 27212" d="M417.2,274.025a3.3,3.3,0,0,1-3.3-3.3v-18.16a3.3,3.3,0,0,1,6.6,0v18.16a3.3,3.3,0,0,1-3.3,3.3Z" transform="translate(-413.903 -140.826)" fill="#3f3d56"/>
      <path id="Path_27213" data-name="Path 27213" d="M417.2,307a3.3,3.3,0,0,1-3.3-3.3v-18.16a3.3,3.3,0,0,1,6.6,0v18.16A3.3,3.3,0,0,1,417.2,307Z" transform="translate(-413.903 -146.609)" fill="#3f3d56"/>
      <path id="Path_27214" data-name="Path 27214" d="M745.2,232.54a3.3,3.3,0,0,0-3.3,3.29v44.317a3.3,3.3,0,1,0,6.6,0V235.83A3.3,3.3,0,0,0,745.2,232.54Z" transform="translate(-471.418 -137.893)" fill="#3f3d56"/>
      <path id="Path_27215" data-name="Path 27215" d="M487.878,145.088H465.612a4.123,4.123,0,0,1,0-8.247h22.266a4.123,4.123,0,0,1,0,8.247Z" transform="translate(-422.247 -121.112)" fill="#e6e6e6"/>
      <path id="Path_27216" data-name="Path 27216" d="M615.711,612.889c-6.2.388-9.634-7.321-4.94-11.814l.467-1.857q-.092-.223-.186-.446c-6.275-14.963-18.981-6.563-33.763.125C565.1,604.414,552.808,611.6,563,639.583c2.142,5.878-.427,12.532.951,18.623a217.1,217.1,0,0,1-19.749-90.167,209.545,209.545,0,0,1,1.3-23.376q1.077-9.545,2.988-18.953a220.631,220.631,0,0,1,29.619-73.553q-2.718.037-5.445.059-4.907,8.011-9.145,16.4a82.678,82.678,0,0,0,.318-16.369c-22.044-.008-44.071-.713-63.546-2.115.739,59.687,22.771,72.134,49.79,43.547.757.388,1.494.776,2.25,1.145a225.61,225.61,0,0,0-12.144,57.15,213.976,213.976,0,0,0,.155,34.55l-.058-.407a56.542,56.542,0,0,0-19.3-32.649c-14.854-12.2-35.84-16.7-51.865-26.5-7.714-4.721-17.6,1.38-16.253,10.323q.032.214.066.428a62.129,62.129,0,0,1,6.964,3.356q1.931,1.09,3.78,2.313a9.245,9.245,0,0,1-3.728,16.825l-.189.029c-.136.02-.252.039-.388.058a92.07,92.07,0,0,0,16.935,26.519c1.987,61.3,34.241,53.4,68.751,30.166h.019a225.539,225.539,0,0,0,15.151,44.23h54.124c.194-.6.369-1.222.543-1.824a61.5,61.5,0,0,1-14.976-.892c4.016-4.928,8.031-9.894,12.047-14.821a3.391,3.391,0,0,0,.252-.291c2.037-2.522,4.093-5.024,6.13-7.546v0a90.073,90.073,0,0,0-2.639-22.946Z" transform="translate(-420.714 -176.048)" fill="#72a05f"/>
      <path id="Path_27217" data-name="Path 27217" d="M568.149,411.965C562.9,399.3,553.057,388.63,544.39,377.68c-10.41-13.153-31.757-7.413-33.591,9.261q-.027.242-.052.484,1.931,1.089,3.78,2.313a9.245,9.245,0,0,1-3.728,16.825l-.188.029a91.992,91.992,0,0,0,2.425,13.754,83.476,83.476,0,0,0-2.63,15.814c19.475,1.4,41.5,2.107,63.546,2.115A88.794,88.794,0,0,0,568.149,411.965Z" transform="translate(-430.825 -162.072)" fill="#e6e6e6"/>
      <path id="Path_27218" data-name="Path 27218" d="M639.605,391.743a44.58,44.58,0,0,0,4.054-12.183c-1.183.155-4.462-17.867-3.569-18.972-1.649-2.5-4.6-3.746-6.4-6.188-8.957-12.144-21.3-10.024-27.741,6.479-13.763,6.946-13.9,18.466-5.451,29.545,5.373,7.049,6.111,16.586,10.825,24.132-.485.621-.989,1.222-1.474,1.843a217.376,217.376,0,0,0-13.925,20.145q2.727-.022,5.445-.059A213.836,213.836,0,0,1,615.3,416.962a58.445,58.445,0,0,0,24.307-25.219Z" transform="translate(-445.616 -157.903)" fill="#e6e6e6"/>
      <path id="Path_27219" data-name="Path 27219" d="M684.008,166.95V376.857c0,24.2-259.766,24.2-259.766,0V166.95a43.947,43.947,0,0,1,43.9-43.9h22.488v7.768a13.261,13.261,0,0,0,13.26,13.26c27.878,8.756,62.294,7.314,100.476,0a13.261,13.261,0,0,0,13.26-13.26v-7.769h22.488a43.947,43.947,0,0,1,43.9,43.9Z" transform="translate(-415.716 -118.695)" opacity="0.1"/>
      <path id="Path_27220" data-name="Path 27220" d="M602.752,203.79H595.33a10.732,10.732,0,0,0-10.721,10.72v8.247H571.415a10.732,10.732,0,0,0-10.721,10.72v16.493a10.732,10.732,0,0,0,10.72,10.72h16.493a10.732,10.732,0,0,0,10.72-10.72V233.477a10.732,10.732,0,0,0-10.72-10.721h-1.649V214.51a9.081,9.081,0,0,1,9.071-9.071h7.422a9.081,9.081,0,0,1,9.071,9.071v9.071h1.649V214.51A10.732,10.732,0,0,0,602.752,203.79Zm-5.773,29.687v16.493a9.081,9.081,0,0,1-9.071,9.071H571.415a9.081,9.081,0,0,1-9.071-9.071V233.477a9.081,9.081,0,0,1,9.071-9.071c7.809,4.543,12.111,2.193,16.493,0A9.081,9.081,0,0,1,596.979,233.477Z" transform="translate(-439.643 -132.852)" fill="#fff"/>
      <path id="Path_27221" data-name="Path 27221" d="M582.117,255.634a7.422,7.422,0,1,0-7.422-7.422,7.422,7.422,0,0,0,7.422,7.422Zm0-9.071c3.183,0,5.773-1.534,5.773,1.649a5.773,5.773,0,1,1-11.545,0c0-3.183,2.589-1.649,5.773-1.649Z" transform="translate(-442.098 -139.34)" fill="#fff"/>
      <circle id="Ellipse_2774" data-name="Ellipse 2774" cx="2.474" cy="2.474" r="2.474" transform="translate(137.545 106.398)" fill="#fff"/>
      <rect id="Rectangle_2467" data-name="Rectangle 2467" width="5.946" height="1.649" transform="translate(271.139 118.768)" fill="#fff"/>
      <path id="Path_27222" data-name="Path 27222" d="M424.695,425.843v4.123c0,24.2,259.766,24.2,259.766,0v-4.123C684.46,450.046,424.695,450.046,424.695,425.843Z" transform="translate(-415.796 -171.788)" opacity="0.1"/>
      <path id="Path_27223" data-name="Path 27223" d="M701.371,490.257a6.321,6.321,0,0,0,4.964-7.286,6.065,6.065,0,0,0-.27-.966l16.9-14.17-4.174-11.1-21.047,21.913a6.3,6.3,0,0,0-3.567,6.819,6.032,6.032,0,0,0,7.035,4.825h0Z" transform="translate(-463.031 -177.205)" fill="#a0616a"/>
      <path id="Path_27224" data-name="Path 27224" d="M710.222,396l-6.7,5.343s-8.007,14.558-2.268,17.577,23.583,13.061,23.583,13.061-7.374,7.341-8.244,10.907,1.056,6.734-2,5.988-3.143,1.682-3.889,4.739-5.716,5.871-5.716,5.871l9.5,7.009s4.4,1.553,4.758-2.137-.641-3.169,2.415-2.424,5.631-4.037,7.259-8.5,18.236-25.22,18.236-25.22L729.78,408.877A46.179,46.179,0,0,0,710.222,396Z" transform="translate(-463.926 -166.555)" fill="#e6762f"/>
      <path id="Path_27225" data-name="Path 27225" d="M294.693,639.855l-6.918-.059-3.062-27.305,10.21.087Z" transform="translate(-49.924 -107.399)" fill="#a0616a"/>
      <path id="Path_27226" data-name="Path 27226" d="M683.848,773.6a3.1,3.1,0,0,0,3.066,3.12l13.754.115,2.408-4.881.884,4.906,5.19.047-1.311-17.5-1.806-.12-7.365-.508-2.376-.159-.042,4.95L685.2,771.063A3.091,3.091,0,0,0,683.848,773.6Z" transform="translate(-461.238 -230.14)" fill="#2f2e41"/>
      <path id="Path_27227" data-name="Path 27227" d="M217.677,639.855l-6.917-.059L207.7,612.491l10.21.087Z" transform="translate(-36.419 -107.399)" fill="#a0616a"/>
      <path id="Path_27228" data-name="Path 27228" d="M606.833,773.6a3.1,3.1,0,0,0,3.066,3.12l13.754.115,2.408-4.881.884,4.906,5.19.047-1.31-17.5-1.806-.12-7.365-.508-2.376-.159-.042,4.95-11.049,7.494a3.092,3.092,0,0,0-1.355,2.532Z" transform="translate(-447.733 -230.14)" fill="#2f2e41"/>
      <path id="Path_27229" data-name="Path 27229" d="M647.373,483.055s-13.283,6.544-9.82,10.482.617,6.166-3.7,9.866-13.006,47.038-13.006,47.038L609.6,617.576s2.985,58.62,4.989,60.708,5.087-1,2,2.088-5.549.617-3.083,3.083,3.083,9.249,3.083,9.249l15.978-1.347s10.4-45.058,3.377-65.019L663.5,553.319l8.33,70.455s4.572,57.213,7.655,59.063,5.3,1.975,2.652,4.379-2.652-1.3-2.652,2.4v6.136L694.4,697.8s6.928-54.848,3.714-80.228l9.735-85.191-7.583-38.39-7.832-10.322Z" transform="translate(-448.217 -181.82)" fill="#2f2e41"/>
      <path id="Path_27230" data-name="Path 27230" d="M577.14,455.537a6.321,6.321,0,0,0,8.729-1.239,6.06,6.06,0,0,0,.532-.85l21.854,2.944,5.4-10.564-30.373-.8a6.3,6.3,0,0,0-7.443,1.956,6.032,6.032,0,0,0,1.172,8.45h0Z" transform="translate(-442.083 -175.066)" fill="#a0616a"/>
      <path id="Path_27231" data-name="Path 27231" d="M647.629,396.425l-8.462-1.353s-10.157,5.545-8.522,11.821.235,24.57.235,24.57-10.393-.506-13.615,1.253-4.266,5.316-5.773,2.555.082-4.226-2.679-2.719-11.632,2.766-11.632,2.766l-3.566,12.142s4.954,6.813,7.924,4.594,3.555-5.525,5.062-2.764,1.928,7.908,6.321,6.107,35.773-9.973,35.773-9.973l3.793-37.912Z" transform="translate(-445.415 -166.393)" fill="#e6762f"/>
      <path id="Path_27232" data-name="Path 27232" d="M647.724,472.891s-5.975-9.536-4.837-10.934,2.562,1.019,0-1.423,11.806-18.737,12.75-21.137-14.382-44.31-14.382-44.31l13.053-7.862L665.339,371.7l19.73,3.156,6.942,14.072,9.805,3.46.825.825V418.78s4.364,21.821-5.237,29.333c0,0,4.581,9.979,3.348,11.829s20.94,26.157,3.539,28.934C685.23,491.917,644.572,471.813,647.724,472.891Z" transform="translate(-453.769 -162.295)" fill="#e6762f"/>
      <path id="Path_27233" data-name="Path 27233" d="M530.427,780.833a.978.978,0,0,0,.981.981H740.284a.981.981,0,0,0,0-1.963H531.408a.979.979,0,0,0-.981.981Z" transform="translate(-434.335 -233.863)" fill="#ccc"/>
      <circle id="Ellipse_2775" data-name="Ellipse 2775" cx="20.091" cy="20.091" r="20.091" transform="translate(204.251 173.111)" fill="#a0616a"/>
      <path id="Path_27234" data-name="Path 27234" d="M702.363,332.242c-.207-1.808-1.446-4.043-2.308-5.646a4.911,4.911,0,0,0-4.343-2.8,4.633,4.633,0,0,0-3.549,2.412,9.715,9.715,0,0,0-1.1,4.289,22.464,22.464,0,0,0,7.3,17.887,8.1,8.1,0,0,0,4.994,2.43,6.441,6.441,0,0,0,4.562-2.052c3.061-3.065,3.524-8.1,1.889-12.117s-2.364-5.573-6.1-7.764" transform="translate(-462.495 -153.893)" fill="#2f2e41"/>
      <path id="Path_27235" data-name="Path 27235" d="M667.834,361.209c.336,1.788-2.755,10.288-1.767,11.82,0,0,10.229,3.553,14.14,3.808,4.778.309,8.621-1.651,13.09-4.6a10.034,10.034,0,0,1,1.351-4.543,6.079,6.079,0,0,0,.632,3.1c16.737-4.158,12.64-19.177,2.531-26.214l-6.72-15.456c2.016.672-4.07-9.711-10.487-2.191-8.03-8.178-23.587,3.6-25.536,14.112,1.876-2.374,2.852-2.094,3.333-.457a9.256,9.256,0,0,1,2.553-3.568,7.737,7.737,0,0,0-.833,3.568c12.667.786,10.31,9.332-.073,22.134,3.839-2.39,1.248,7.909,3.3,10.371C663.446,371.376,667.471,362.882,667.834,361.209Z" transform="translate(-456.191 -153.964)" fill="#2f2e41"/>
      <path id="Path_27236" data-name="Path 27236" d="M691.362,345.281a.672.672,0,0,0,.183-1.318,8.14,8.14,0,0,1-.046-2.5c.219-3.712.584-9.925-5.447-14.119a.672.672,0,0,0-.767,1.1c5.413,3.764,5.088,9.284,4.873,12.936-.123,2.088-.212,3.6,1.055,3.884A.669.669,0,0,0,691.362,345.281Z" transform="translate(-461.439 -154.495)" fill="#e6762f"/>
      <path id="Path_27237" data-name="Path 27237" d="M692.336,330.7a37.9,37.9,0,0,1,12.907-2.86c3.519-.149,7.718.636,9.148,3.854.868,1.953.406,4.241-.388,6.225s-4.5,5.989-2.368,5.945c5.366-.11,7.656,4.688,4.934,12.144-1.579,4.324,8.217,4.158,12.783,4.736a40.485,40.485,0,0,1-10.561,2.863c-3.647.305-7.541-.487-10.264-2.933-2.946-2.646-4.079-6.756-4.58-10.684s-.527-7.974-1.859-11.7-4.39-7.2-8.337-7.534" transform="translate(-462.726 -154.6)" fill="#2f2e41"/>
    </g>
  </g>
</svg>
