<svg xmlns="http://www.w3.org/2000/svg" width="89" height="89" viewBox="0 0 89 89">
  <g id="Group_14716" data-name="Group 14716" transform="translate(-132 -508)">
    <circle id="Ellipse_2689" data-name="Ellipse 2689" cx="44.5" cy="44.5" r="44.5" transform="translate(221 508) rotate(90)" fill="#571300"/>
    <g id="SOLO-Brand-1c-negative" transform="translate(157.654 533.67)">
      <path id="Path_26494" data-name="Path 26494" d="M6.226,77.227a.984.984,0,0,0-.335-.7,1.377,1.377,0,0,0-.905-.252,1.835,1.835,0,0,0-.631.091.774.774,0,0,0-.361.249.621.621,0,0,0-.122.36.568.568,0,0,0,.061.3.676.676,0,0,0,.222.238,1.738,1.738,0,0,0,.392.191,4.151,4.151,0,0,0,.565.152l.755.161a5.637,5.637,0,0,1,1.308.428,3.138,3.138,0,0,1,.889.623,2.28,2.28,0,0,1,.51.8,2.882,2.882,0,0,1,.168.971,2.594,2.594,0,0,1-.454,1.537A2.777,2.777,0,0,1,7,83.33a5.482,5.482,0,0,1-2,.327A5.686,5.686,0,0,1,2.912,83.3a2.9,2.9,0,0,1-1.385-1.095,3.385,3.385,0,0,1-.5-1.894H3.406a1.409,1.409,0,0,0,.211.71,1.186,1.186,0,0,0,.533.436,2.072,2.072,0,0,0,.821.148,1.949,1.949,0,0,0,.669-.1.9.9,0,0,0,.408-.274.638.638,0,0,0,.143-.4.585.585,0,0,0-.136-.37,1.157,1.157,0,0,0-.433-.288,4.722,4.722,0,0,0-.814-.24l-.916-.2a4.2,4.2,0,0,1-1.927-.887,2.148,2.148,0,0,1-.7-1.7,2.525,2.525,0,0,1,.47-1.535,3.12,3.12,0,0,1,1.317-1.027,4.8,4.8,0,0,1,1.935-.368,4.647,4.647,0,0,1,1.928.374,2.906,2.906,0,0,1,1.256,1.05,2.848,2.848,0,0,1,.447,1.58H6.23Z" transform="translate(0 -60.114)" fill="#fff"/>
      <path id="Path_26495" data-name="Path 26495" d="M109.28,84.163v-9.2h2.5v7.191H115.5v2.014h-6.22Z" transform="translate(-88.886 -60.722)" fill="#fff"/>
      <path id="Path_26496" data-name="Path 26496" d="M54.7,74.15a4.737,4.737,0,1,0,4.733,4.737A4.736,4.736,0,0,0,54.7,74.15Zm0,6.976a2.24,2.24,0,1,1,2.236-2.24,2.238,2.238,0,0,1-2.236,2.24Z" transform="translate(-40.177 -60.057)" fill="#fff"/>
      <path id="Path_26497" data-name="Path 26497" d="M152.017,74.16A4.735,4.735,0,1,0,156.75,78.9,4.735,4.735,0,0,0,152.017,74.16Zm0,6.975a2.24,2.24,0,1,1,2.236-2.24A2.238,2.238,0,0,1,152.017,81.135Z" transform="translate(-120.089 -60.065)" fill="#fff"/>
      <path id="Path_26498" data-name="Path 26498" d="M152.017,156.764a4.737,4.737,0,1,1,4.733-4.737A4.736,4.736,0,0,1,152.017,156.764Zm0-6.976a2.24,2.24,0,1,0,2.236,2.24A2.238,2.238,0,0,0,152.017,149.787Z" transform="translate(-120.089 -120.113)" fill="#fff"/>
      <path id="Path_26499" data-name="Path 26499" d="M78.9,10.484A4.737,4.737,0,1,1,83.63,5.747,4.736,4.736,0,0,1,78.9,10.484Zm0-6.976a2.24,2.24,0,1,0,2.236,2.24A2.238,2.238,0,0,0,78.9,3.507Z" transform="translate(-60.048 0)" fill="#fff"/>
      <path id="Path_26500" data-name="Path 26500" d="M78.9,156.764a4.737,4.737,0,1,1,4.733-4.737A4.736,4.736,0,0,1,78.9,156.764Z" transform="translate(-60.048 -120.113)" fill="#fff"/>
      <path id="Path_26501" data-name="Path 26501" d="M17.24,161.25a2.24,2.24,0,1,0,2.236,2.24A2.238,2.238,0,0,0,17.24,161.25Z" transform="translate(-11.471 -131.576)" fill="#fff"/>
      <path id="Path_26502" data-name="Path 26502" d="M163.48,19.449a2.24,2.24,0,1,1,2.236-2.24A2.238,2.238,0,0,1,163.48,19.449Z" transform="translate(-131.551 -11.463)" fill="#fff"/>
      <path id="Path_26503" data-name="Path 26503" d="M5.777,1.01A4.737,4.737,0,1,0,10.51,5.747,4.736,4.736,0,0,0,5.777,1.01Z" transform="translate(-0.008 0)" fill="#fff"/>
    </g>
  </g>
</svg>
