<?xml version="1.0" encoding="utf-8"?>
<!-- Generator: Adobe Illustrator 19.0.0, SVG Export Plug-In . SVG Version: 6.00 Build 0)  -->
<svg version="1.1" id="Group_14664" xmlns="http://www.w3.org/2000/svg" xmlns:xlink="http://www.w3.org/1999/xlink" x="0px"
	 y="0px" viewBox="-12 57.1 85.2 78.9" style="enable-background:new -12 57.1 85.2 78.9;" xml:space="preserve">
<style type="text/css">
	.st0{fill:#FFFFFF;}
</style>
<g id="Group_442" transform="translate(0 0)">
	<path id="Path_3937" class="st0" d="M51.5,115.6c-1.4,0.9-2.8,1.6-4.2,2.3c11.6-7.4,15.2-22.7,8-34.5l0.5-0.1l13.7-2.9l-1-2.4
		c0.4,0.8,0.8,1.6,1.2,2.4l0,0c0.3,7.9-1.7,15.8-5.9,22.6C60.8,108.1,56.6,112.4,51.5,115.6z"/>
	<path id="Path_3938" class="st0" d="M8.4,97.3c0-0.5,0-0.9,0-1.4l0,0C8.4,96.4,8.4,96.9,8.4,97.3z"/>
	<path id="Path_3939" class="st0" d="M51.5,78.5c-0.4-0.4-0.8-0.7-1.1-1c-0.8-0.7-1.6-1.3-2.4-1.9c0.9,0.6,1.7,1.2,2.5,1.9
		C50.8,77.8,51.1,78.2,51.5,78.5z"/>
	<path id="Path_3940" class="st0" d="M8.4,97.3c0-0.5,0-0.9,0-1.4l0,0C8.4,96.4,8.4,96.9,8.4,97.3z"/>
	<path id="Path_3941" class="st0" d="M68.6,78L68.6,78l-7.2-17.1l-1-2.5l-0.9,1.8l-2.3,4.5c-3.7-2.7-7.9-4.8-12.4-6.1
		c-10.9-3.2-22.6-1.5-32.2,4.6C7,66.8,2.4,71.6-0.8,77.4c1.4-1.1,2.8-2.2,4.3-3.2c13.7-8.7,31.3-8.1,44.4,1.4h0
		c0.9,0.6,1.7,1.2,2.5,1.9c0.4,0.3,0.8,0.7,1.1,1c-0.4-0.4-0.8-0.7-1.1-1l-4.1,7.8l9.1-1.9l0.5-0.1l13.7-2.9L68.6,78z"/>
	<path id="Path_3942" class="st0" d="M20.1,75.2c-3.6,2.3-6.6,5.5-8.6,9.2l-0.3-1l-2.1-7.1l-12.4,6.4c0.7-1.8,1.5-3.6,2.4-5.3
		c1.4-1.1,2.8-2.2,4.3-3.2c13.7-8.7,31.3-8.1,44.4,1.4C39.5,69.9,28.7,69.8,20.1,75.2z"/>
	<path id="Path_3943" class="st0" d="M51.5,78.5c-0.4-0.4-0.8-0.7-1.1-1c-0.8-0.7-1.6-1.3-2.4-1.9c0.9,0.6,1.7,1.2,2.5,1.9
		C50.8,77.8,51.1,78.2,51.5,78.5z"/>
	<path id="Path_3944" class="st0" d="M41.7,133l-1.3,2.5c-0.5,0.1-0.9,0.1-1.4,0.2l-2.2,0l2.2-12.6L41.7,133z"/>
	<path id="Path_3945" class="st0" d="M51.5,78.5c-0.4-0.4-0.8-0.7-1.1-1l0,0C50.8,77.8,51.1,78.2,51.5,78.5z"/>
	<path id="Path_3946" class="st0" d="M69.8,80.5c0.6,14.1-6.3,27.5-18.2,35.1c-1.4,0.9-2.8,1.6-4.2,2.3l0,0c-0.3,0.2-0.7,0.4-1,0.6
		l0,0l-0.1-0.1l-5.2-6.1l-1.5,8.9l-0.4,2l0,0l-2.2,12.6l2.2,0l3.1,0l11.5-0.2l5-0.1l2,0l-0.4-0.5l-3.2-3.7l-1.5-1.7
		c1.3-0.8,2.5-1.8,3.6-2.7C72.6,115.3,76.9,96.5,69.8,80.5z"/>
	<path id="Path_3947" class="st0" d="M14.6,119.2c-0.2-0.3-0.4-0.6-0.6-1c-3.8-6.3-5.7-13.5-5.5-20.9c0-0.5,0-0.9,0-1.4l0,0l0,0
		l7.4,3.2l-4.3-14.7l-0.3-1l-2.1-7.1l-12.4,6.3L-7.7,85L-9,85.7l-3,1.5l2.3,1l1.1,0.5l3.4,1.4l0,0c-3.6,21.5,11,41.8,32.5,45.4
		c3.2,0.5,6.4,0.7,9.6,0.4C27.7,133.2,19.7,127.3,14.6,119.2z"/>
</g>
<path id="Path_3948" class="st0" d="M24.7,85.3l1.1,5.6l6.2,1.7l-6.2,1.7l-1.1,5.6l-1.1-5.6l-6.2-1.7l6.2-1.7L24.7,85.3z"/>
<path id="Path_3949" class="st0" d="M43.9,85.3L45,91l6.2,1.7L45,94.4l-1.1,5.6l-1.1-5.6l-6.2-1.7l6.2-1.7L43.9,85.3z"/>
<path id="Path_3950" class="st0" d="M34.3,97.3l1.1,5.6l6.3,1.7l-6.3,1.7l-1.1,5.6l-1.1-5.6l-6.2-1.7l6.2-1.7L34.3,97.3z"/>
<path id="Path_3951" class="st0" d="M39.4,121.2l-0.4,2l0,0l-2.2,12.6l2.2,0c-0.7,0.1-1.4,0.2-2.2,0.2c-9.2-2.7-17.2-8.6-22.3-16.7
	c-0.2-0.3-0.4-0.6-0.6-1c-3.8-6.3-5.7-13.5-5.5-20.9c0.1,4.6,1.5,9,3.9,12.8c4.2,6.6,11.1,10.8,18.8,11.6c2.5,0.3,5,0.1,7.4-0.4
	L39.4,121.2z"/>
</svg>
