<svg xmlns="http://www.w3.org/2000/svg" xmlns:xlink="http://www.w3.org/1999/xlink" width="1925.091" height="337.192" viewBox="0 0 1925.091 337.192">
  <defs>
    <clipPath id="clip-path">
      <rect id="Rectangle_3569" data-name="Rectangle 3569" width="1925.091" height="292.933" fill="none"/>
    </clipPath>
    <clipPath id="clip-path-2">
      <rect id="Rectangle_3570" data-name="Rectangle 3570" width="1925.091" height="254.586" fill="none"/>
    </clipPath>
    <clipPath id="clip-path-3">
      <rect id="Rectangle_3571" data-name="Rectangle 3571" width="1925.091" height="221.213" fill="none"/>
    </clipPath>
    <clipPath id="clip-path-4">
      <rect id="Rectangle_3572" data-name="Rectangle 3572" width="1925.091" height="183.68" fill="#0d3353"/>
    </clipPath>
  </defs>
  <g id="Group_14776" data-name="Group 14776" transform="translate(-3371 -12919.896)">
    <g id="Group_14761" data-name="Group 14761" transform="translate(-4197 6234.471)">
      <path id="Path_36546" data-name="Path 36546" d="M1925.091,337.191H0V67.459q9-3.259,17.934-6.5c77.827-28.1,164.495-53.222,244.179-29.633,21.954,6.5,42.321,16.466,62.812,26.167,18.257,8.656,36.615,17.1,56.251,22.7C431.6,94.547,482.6,88.9,534.082,77.07c81.023-18.591,163.263-52.452,246.381-47.6,87.992,5.136,168.137,53.476,256.3,54.638,95.084,1.251,183.884-52.665,278.792-47.371,45.625,2.551,88.6,18.646,131.8,33.132,37.2,12.472,74.562,23.761,113.919,24.194,45.148.488,87.03-13.139,128.35-30.066,44.948-18.419,89.232-40.736,136.358-53.064a343.641,343.641,0,0,1,99.111-10.7Z" transform="translate(9493.092 7022.617) rotate(180)" fill="#eff5f8"/>
      <rect id="Rectangle_3568" data-name="Rectangle 3568" width="1925.091" height="337.191" transform="translate(9493.092 7022.617) rotate(180)" fill="none" opacity="0.16"/>
      <g id="Mask_Group_14751" data-name="Mask Group 14751" transform="translate(9493.092 6978.358) rotate(180)" clip-path="url(#clip-path)">
        <path id="Path_36547" data-name="Path 36547" d="M1925.091,357.306H0V194.258c44.963,1.444,90.287-5.823,131.561-21.836,18.527-7.192,36.161-16,53.448-25.425,44.262-24.153,86.213-52.369,134.965-67.866q2.472-.784,4.951-1.519c61.3-18.171,130.421-14.514,188.836,10.148,6.853,2.895,13.614,6.071,20.321,9.426,48.45,24.256,93.813,57.622,148.625,57.842,48.82.193,92.05-26.449,138.614-39.554a256.146,256.146,0,0,1,125.362-3.025c32.626,7.473,62.766,21.217,93.306,34.081,16.24,6.848,32.6,13.448,49.505,18.728a328.187,328.187,0,0,0,54.057,11.936c58.092,7.845,118.763.763,172.327-20.867.254-.1.516-.206.77-.309,13.845-5.631,27.175-12.169,40.281-19.079,30.039-15.827,58.946-33.613,90.426-46.952,1.932-.818,3.865-1.616,5.814-2.4,73.908-29.681,161.5-30.966,236.455-3.472l.124.041c32.541,11.949,62.388,28.883,92.327,45.59,29.708,16.576,59.525,32.94,92.182,44a291.34,291.34,0,0,0,49.1,11.929c.577.089,1.155.179,1.732.261Z" transform="translate(0 -64.373)" fill="#e2eef4"/>
      </g>
      <g id="Group_14754" data-name="Group 14754" transform="translate(9493.092 6940.012) rotate(180)" clip-path="url(#clip-path-2)">
        <path id="Path_36548" data-name="Path 36548" d="M1887.29,159a297.839,297.839,0,0,1,37.8,15.071V374.733H0V120.147c54.649,29.488,119.194,42.551,185.009,44.277,42.529,1.114,85.6-2.5,126.871-9.488,68.518-11.592,139.254-31.207,206.454-14.569,34.567,8.56,65.038,26.057,95.246,44.03,35.907,21.348,71.437,43.356,113.026,51.771,32.634,6.607,65.237,4.27,97.548-2.661,45.224-9.694,89.893-28.381,133.277-44.133a821.116,821.116,0,0,1,82.556-25.418c68.279-16.92,139.3-23.527,207.763-9.33,7.261,1.506,14.453,3.238,21.6,5.129,15.671,4.146,31.1,9.055,46.526,14,29.477,9.454,58.877,19.052,89.671,23.768,28.075,4.3,56.328,4.455,84.65,2.028,97.71-8.354,196.344-47.343,291.875-52.376,35.568-1.877,70.713.949,105.218,11.826" transform="translate(0 -120.147)" fill="#00a0d2" opacity="0.346"/>
      </g>
      <g id="Group_14757" data-name="Group 14757" transform="translate(9493.092 6906.638) rotate(180)" clip-path="url(#clip-path-3)">
        <path id="Path_36549" data-name="Path 36549" d="M1923.359,218.265l1.732-.619V389.9H0V252.649q14.716,5.538,29.808,10.231c89.709,27.914,188.328,33.366,280.7,13.317C350.836,267.444,390.5,254.113,430.065,241c13.807-4.572,27.613-9.124,41.428-13.441,46.91-14.672,93.959-26.669,142.087-28a299.156,299.156,0,0,1,42.137,1.719c58.468,6.614,112.271,31.62,168.438,47.392a364.285,364.285,0,0,0,54.8,11.392c89.317,10.794,177.37-21.224,264.6-50.279,42.113-14.026,84.026-27.364,125.8-34.865,29.254-5.253,58.439-7.638,87.577-5.39a258.273,258.273,0,0,1,50.129,8.787c29.569,8.292,56.5,22.015,83.141,36.4,23.563,12.719,46.9,25.968,71.621,36.419,7.877,3.341,15.9,6.394,24.117,9.055,31.941,10.354,64.906,14.363,98.241,13.881,75.371-1.066,152.6-25.061,224-50.417q7.566-2.681,15.177-5.39" transform="translate(0 -168.688)" fill="#156d98"/>
      </g>
      <g id="Group_14760" data-name="Group 14760" transform="translate(9493.092 6869.105) rotate(180)" clip-path="url(#clip-path-4)">
        <path id="Path_36550" data-name="Path 36550" d="M1868.216,306.015q28.588-6.126,56.875-13.269V406.959H0V294.2q14.762-7.394,29.808-14.259,12.359-5.631,24.934-10.849,22.812-9.457,46.433-17.381c71.413-23.8,149.833-35.105,224.62-24.339a363.554,363.554,0,0,1,42.575,8.7,443.744,443.744,0,0,1,61.7,21.987c65.237,28.326,125.362,67.846,194.2,88.87,87.861,26.834,182.714,21.527,274.6,4.483,24.634-4.565,49.051-9.976,73.069-15.834,113.588-27.728,225.767-65.4,343.359-70.953a716.35,716.35,0,0,1,132.115,6.5c28.992,4.022,57.738,9.6,86.044,16.439,52.539,12.685,104.194,29.736,158.335,34.686,34.829,3.183,69.811,1.272,104.494-3.369,24.179-3.231,48.213-7.79,71.937-12.871" transform="translate(0 -223.279)" fill="#0d3353" opacity="0.532"/>
      </g>
      <rect id="Rectangle_3574" data-name="Rectangle 3574" width="1925.091" height="337.191" transform="translate(9493.092 7022.617) rotate(180)" fill="none"/>
    </g>
  </g>
</svg>
