<svg id="Group_14664" data-name="Group 14664" xmlns="http://www.w3.org/2000/svg" width="85.191" height="78.912" viewBox="0 0 85.191 78.912">
  <g id="Group_442" data-name="Group 442" transform="translate(0 0)">
    <path id="Path_3937" data-name="Path 3937" d="M204.1,120.364a40.175,40.175,0,0,1-4.2,2.334,25.328,25.328,0,0,0,8.044-34.512l.5-.108,13.718-2.909L221.16,82.8c.431.79.826,1.616,1.221,2.442h0a39.711,39.711,0,0,1-5.854,22.553A39.152,39.152,0,0,1,204.1,120.364Z" transform="translate(-140.573 -61.901)" fill="#fff"/>
    <path id="Path_3938" data-name="Path 3938" d="M91.572,134.1c0-.467-.036-.934,0-1.4l.036.036C91.572,133.2,91.572,133.67,91.572,134.1Z" transform="translate(-71.138 -93.881)" fill="#fff"/>
    <path id="Path_3939" data-name="Path 3939" d="M205.191,79.045c-.359-.359-.754-.682-1.149-1.006-.79-.682-1.616-1.329-2.442-1.939a25.216,25.216,0,0,1,2.478,1.9C204.437,78.362,204.8,78.686,205.191,79.045Z" transform="translate(-141.663 -57.607)" fill="#fff"/>
    <path id="Path_3940" data-name="Path 3940" d="M91.572,134.1c0-.467-.036-.934,0-1.4l.036.036C91.572,133.2,91.572,133.67,91.572,134.1Z" transform="translate(-71.138 -93.881)" fill="#fff"/>
    <path id="Path_3941" data-name="Path 3941" d="M135.282,45.54h0L128.1,28.446l-1.041-2.478-.934,1.8-2.334,4.489a38.84,38.84,0,0,0-12.354-6.069,39.333,39.333,0,0,0-32.213,4.6A38.892,38.892,0,0,0,65.9,44.929a47.794,47.794,0,0,1,4.309-3.2A39.541,39.541,0,0,1,114.6,43.1h.036a25.212,25.212,0,0,1,2.478,1.9c.4.323.754.682,1.113,1.041-.359-.359-.754-.682-1.149-1.006l-4.094,7.793,9.05-1.9.5-.108,13.718-2.909Z" transform="translate(-54.695 -24.605)" fill="#fff"/>
    <path id="Path_3942" data-name="Path 3942" d="M82.479,62.284a24.914,24.914,0,0,0-8.619,9.229l-.287-1.006-2.119-7.075L59.1,69.789a39.15,39.15,0,0,1,2.442-5.279,47.793,47.793,0,0,1,4.309-3.2,39.541,39.541,0,0,1,44.387,1.365A25.351,25.351,0,0,0,82.479,62.284Z" transform="translate(-50.337 -44.186)" fill="#fff"/>
    <path id="Path_3943" data-name="Path 3943" d="M205.191,79.045c-.359-.359-.754-.682-1.149-1.006-.79-.682-1.616-1.329-2.442-1.939a25.216,25.216,0,0,1,2.478,1.9C204.437,78.362,204.8,78.686,205.191,79.045Z" transform="translate(-141.663 -57.607)" fill="#fff"/>
    <path id="Path_3944" data-name="Path 3944" d="M175.612,218.34l-1.293,2.478c-.467.072-.934.144-1.365.215l-2.155.036,2.191-12.569Z" transform="translate(-121.924 -142.459)" fill="#fff"/>
    <path id="Path_3945" data-name="Path 3945" d="M209.549,82.441c-.359-.359-.754-.682-1.149-1.006l.036-.036C208.8,81.759,209.154,82.082,209.549,82.441Z" transform="translate(-146.021 -61.004)" fill="#fff"/>
    <path id="Path_3946" data-name="Path 3946" d="M203.7,89.7a39.533,39.533,0,0,1-18.243,35.122,40.176,40.176,0,0,1-4.2,2.334h0c-.323.215-.682.4-1.006.61h0l-.108-.108-5.243-6.141-1.544,8.87-.359,1.975h0L170.8,144.933l2.155-.036,3.124-.036,11.528-.215,4.956-.072,2.011-.036-.431-.5-3.16-3.7-1.472-1.724a39.856,39.856,0,0,0,3.627-2.729A39.452,39.452,0,0,0,203.7,89.7Z" transform="translate(-121.924 -66.323)" fill="#fff"/>
    <path id="Path_3947" data-name="Path 3947" d="M61.275,121.107c-.215-.323-.4-.646-.611-.97a39.236,39.236,0,0,1-5.53-20.865c0-.467-.036-.934,0-1.4h0l.036.036,7.4,3.16L58.222,86.38l-.287-1.006L55.816,78.3,43.463,84.621l-4.489,2.334-1.257.646L34.7,89.146l2.3.97,1.113.467,3.412,1.436h0a39.482,39.482,0,0,0,42.089,45.788A39.3,39.3,0,0,1,61.275,121.107Z" transform="translate(-34.7 -59.017)" fill="#fff"/>
  </g>
  <path id="Path_3948" data-name="Path 3948" d="M123.862,103.2l1.113,5.638,6.249,1.724-6.249,1.724-1.113,5.638-1.113-5.638-6.249-1.724,6.249-1.724Z" transform="translate(-87.124 -74.975)" fill="#fff"/>
  <path id="Path_3949" data-name="Path 3949" d="M177.262,103.2l1.113,5.638,6.213,1.724-6.213,1.724-1.113,5.6-1.113-5.6-6.249-1.724,6.249-1.724Z" transform="translate(-121.347 -74.975)" fill="#fff"/>
  <path id="Path_3950" data-name="Path 3950" d="M150.562,136.6l1.077,5.638,6.285,1.724-6.285,1.724-1.077,5.638-1.113-5.638-6.249-1.724,6.249-1.724Z" transform="translate(-104.235 -96.38)" fill="#fff"/>
  <path id="Path_3951" data-name="Path 3951" d="M122.578,160.446l-.359,1.975h0l-2.191,12.569,2.155-.036q-1.077.162-2.155.215a39.4,39.4,0,0,1-22.3-16.735c-.215-.323-.4-.646-.611-.97a39.236,39.236,0,0,1-5.53-20.865,24.936,24.936,0,0,0,3.95,12.821,25.243,25.243,0,0,0,18.818,11.6,24.417,24.417,0,0,0,7.4-.359Z" transform="translate(-71.152 -96.38)" fill="#fff"/>
</svg>
