<svg xmlns="http://www.w3.org/2000/svg" xmlns:xlink="http://www.w3.org/1999/xlink" width="119" height="119" viewBox="0 0 119 119">
  <defs>
    <clipPath id="clip-path">
      <rect id="Rectangle_2640" data-name="Rectangle 2640" width="74.284" height="50.642" fill="none" stroke="#fff" stroke-width="3"/>
    </clipPath>
  </defs>
  <g id="Group_14675" data-name="Group 14675" transform="translate(-394 -2568)">
    <g id="Ellipse_2687" data-name="Ellipse 2687" transform="translate(394 2568)" fill="none" stroke="#fff" stroke-width="12" opacity="0.464">
      <circle cx="59.5" cy="59.5" r="59.5" stroke="none"/>
      <circle cx="59.5" cy="59.5" r="53.5" fill="none"/>
    </g>
    <g id="Group_14280" data-name="Group 14280" transform="translate(425 2610.179)">
      <g id="Group_14279" data-name="Group 14279" transform="translate(-10 -4)" clip-path="url(#clip-path)">
        <path id="Path_26515" data-name="Path 26515" d="M27.859,20.215H25.4a7.412,7.412,0,1,1,0-14.824H53.173" transform="translate(6.725 2.901)" fill="none" stroke="#fff" stroke-miterlimit="10" stroke-width="3"/>
        <path id="Path_26516" data-name="Path 26516" d="M35.6,22.181h3.09a7.408,7.408,0,1,1,0,14.816h-28.4" transform="translate(7.625 0.935)" fill="none" stroke="#fff" stroke-miterlimit="10" stroke-width="3"/>
        <circle id="Ellipse_2690" data-name="Ellipse 2690" cx="4.322" cy="4.322" r="4.322" transform="translate(59.9 3.974)" fill="none" stroke="#fff" stroke-miterlimit="10" stroke-width="3"/>
        <circle id="Ellipse_2691" data-name="Ellipse 2691" cx="4.322" cy="4.322" r="4.322" transform="translate(9.271 33.61)" fill="none" stroke="#fff" stroke-miterlimit="10" stroke-width="3"/>
        <path id="Path_26517" data-name="Path 26517" d="M37.813,21.607A4.322,4.322,0,1,1,33.5,17.281,4.318,4.318,0,0,1,37.813,21.607Z" transform="translate(5.415 1.509)" fill="none" stroke="#fff" stroke-miterlimit="10" stroke-width="3"/>
      </g>
    </g>
  </g>
</svg>
