<svg xmlns="http://www.w3.org/2000/svg" xmlns:xlink="http://www.w3.org/1999/xlink" width="119" height="119" viewBox="0 0 119 119">
  <defs>
    <clipPath id="clip-path">
      <rect id="Rectangle_2644" data-name="Rectangle 2644" width="63.651" height="57.503" fill="none" stroke="#fff" stroke-width="3"/>
    </clipPath>
  </defs>
  <g id="Group_14673" data-name="Group 14673" transform="translate(-1088 -2250)">
    <g id="Ellipse_2686" data-name="Ellipse 2686" transform="translate(1088 2250)" fill="none" stroke="#fff" stroke-width="12" opacity="0.464">
      <circle cx="59.5" cy="59.5" r="59.5" stroke="none"/>
      <circle cx="59.5" cy="59.5" r="53.5" fill="none"/>
    </g>
    <g id="Group_14288" data-name="Group 14288" transform="translate(1115.674 2281.748)">
      <g id="Group_14287" data-name="Group 14287" transform="translate(0 0)" clip-path="url(#clip-path)">
        <path id="Path_26534" data-name="Path 26534" d="M21.126,27.362a3.392,3.392,0,1,1-3.388-3.4A3.389,3.389,0,0,1,21.126,27.362Z" transform="translate(1.011 1.688)" fill="none" stroke="#fff" stroke-miterlimit="10" stroke-width="3"/>
        <path id="Path_26535" data-name="Path 26535" d="M45.628,27.362a3.392,3.392,0,1,1-3.388-3.4A3.389,3.389,0,0,1,45.628,27.362Z" transform="translate(2.737 1.688)" fill="none" stroke="#fff" stroke-miterlimit="10" stroke-width="3"/>
        <path id="Path_26536" data-name="Path 26536" d="M33.546,27.362a3.392,3.392,0,1,1-3.388-3.4A3.389,3.389,0,0,1,33.546,27.362Z" transform="translate(1.886 1.688)" fill="none" stroke="#fff" stroke-miterlimit="10" stroke-width="3"/>
        <path id="Path_26537" data-name="Path 26537" d="M33.546,38.944a3.392,3.392,0,1,1-3.388-3.4A3.389,3.389,0,0,1,33.546,38.944Z" transform="translate(1.886 2.504)" fill="none" stroke="#fff" stroke-miterlimit="10" stroke-width="3"/>
        <path id="Path_26538" data-name="Path 26538" d="M8.194,26.889l1.093,4.553a7.807,7.807,0,0,0,3.3,4.7l4.572,3.008a9.62,9.62,0,0,1,4.332,8.037v6.9" transform="translate(0.577 1.894)" fill="none" stroke="#fff" stroke-linecap="round" stroke-miterlimit="10" stroke-width="3"/>
        <path id="Path_26539" data-name="Path 26539" d="M15.321,45.645l-6.9-4.96a9.141,9.141,0,0,1-3.558-5.312l-3.444-13" transform="translate(0.1 1.576)" fill="none" stroke="#fff" stroke-linecap="round" stroke-miterlimit="10" stroke-width="3"/>
        <path id="Path_26540" data-name="Path 26540" d="M38.845,54.091v-6.9a9.62,9.62,0,0,1,4.333-8.037l4.571-3.008a7.81,7.81,0,0,0,3.3-4.7l1.092-4.553" transform="translate(2.737 1.894)" fill="none" stroke="#fff" stroke-linecap="round" stroke-miterlimit="10" stroke-width="3"/>
        <path id="Path_26541" data-name="Path 26541" d="M45.057,45.645l6.9-4.96a9.134,9.134,0,0,0,3.557-5.312l3.445-13" transform="translate(3.174 1.576)" fill="none" stroke="#fff" stroke-linecap="round" stroke-miterlimit="10" stroke-width="3"/>
        <path id="Path_26542" data-name="Path 26542" d="M28.506,10.434c-1.747-8.345,9.527-9,12.886-9.013-.014,3.373-.681,14.621-9.013,12.884A5.012,5.012,0,0,1,28.506,10.434Z" transform="translate(1.995 0.1)" fill="none" stroke="#fff" stroke-linecap="round" stroke-miterlimit="10" stroke-width="3"/>
        <path id="Path_26543" data-name="Path 26543" d="M34.743,7.07,29.95,11.458v6.891" transform="translate(2.11 0.498)" fill="none" stroke="#fff" stroke-linecap="round" stroke-miterlimit="10" stroke-width="3"/>
      </g>
    </g>
  </g>
</svg>
