<svg xmlns="http://www.w3.org/2000/svg" xmlns:xlink="http://www.w3.org/1999/xlink" width="119" height="119" viewBox="0 0 119 119">
  <defs>
    <clipPath id="clip-path">
      <rect id="Rectangle_2645" data-name="Rectangle 2645" width="65.811" height="74.286" fill="#fff"/>
    </clipPath>
  </defs>
  <g id="Group_14672" data-name="Group 14672" transform="translate(-624 -2250)">
    <g id="Ellipse_2685" data-name="Ellipse 2685" transform="translate(624 2250)" fill="none" stroke="#fff" stroke-width="12" opacity="0.464">
      <circle cx="59.5" cy="59.5" r="59.5" stroke="none"/>
      <circle cx="59.5" cy="59.5" r="53.5" fill="none"/>
    </g>
    <g id="Group_14290" data-name="Group 14290" transform="translate(656.095 2283)">
      <g id="Group_14289" data-name="Group 14289" transform="translate(-6 -5)" clip-path="url(#clip-path)">
        <circle id="Ellipse_2700" data-name="Ellipse 2700" cx="22.047" cy="22.047" r="22.047" transform="translate(10.859 9.394)" fill="none" stroke="#fff" stroke-linecap="round" stroke-miterlimit="10" stroke-width="3"/>
        <line id="Line_27" data-name="Line 27" x1="3.764" y1="6.368" transform="translate(48.26 55.595)" fill="none" stroke="#fff" stroke-linecap="round" stroke-miterlimit="10" stroke-width="3"/>
        <path id="Path_26544" data-name="Path 26544" d="M16.046,24.745l-.033-.809a6.851,6.851,0,0,1,1.839-4.887c1-1.182,1.8-2.178,1.8-3.236,0-1.091-.716-1.806-2.273-1.867a5.865,5.865,0,0,0-3.08.933l-1.058-3.393a10.674,10.674,0,0,1,5.2-1.276c4.109,0,5.978,2.271,5.978,4.856,0,2.365-1.462,3.921-2.647,5.227a5.355,5.355,0,0,0-1.587,3.891v.56Zm-.811,4.3a2.786,2.786,0,1,1,2.771,2.833,2.7,2.7,0,0,1-2.771-2.833" transform="translate(14.93 10.593)" fill="#fff"/>
      </g>
    </g>
  </g>
</svg>
