<svg xmlns="http://www.w3.org/2000/svg" xmlns:xlink="http://www.w3.org/1999/xlink" width="119" height="119" viewBox="0 0 119 119">
  <defs>
    <clipPath id="clip-path">
      <rect id="Rectangle_2643" data-name="Rectangle 2643" width="87.732" height="72.573" fill="none" stroke="#fff" stroke-width="3"/>
    </clipPath>
  </defs>
  <g id="Group_14671" data-name="Group 14671" transform="translate(-171 -2250)">
    <g id="Ellipse_2684" data-name="Ellipse 2684" transform="translate(171 2250)" fill="none" stroke="#fff" stroke-width="12" opacity="0.464">
      <circle cx="59.5" cy="59.5" r="59.5" stroke="none"/>
      <circle cx="59.5" cy="59.5" r="53.5" fill="none"/>
    </g>
    <g id="Group_14286" data-name="Group 14286" transform="translate(194.634 2284.213)">
      <g id="Group_14285" data-name="Group 14285" transform="translate(-10 -8)" clip-path="url(#clip-path)">
        <path id="Path_26525" data-name="Path 26525" d="M14.592,14.266a6.77,6.77,0,1,0-3.37.9,6.765,6.765,0,0,0,3.37-.9" transform="translate(10.747 8.497)" fill="none" stroke="#fff" stroke-linecap="round" stroke-miterlimit="10" stroke-width="3"/>
        <path id="Path_26526" data-name="Path 26526" d="M21.433,25.305a10.817,10.817,0,0,0-20.015-.222" transform="translate(10.59 9.368)" fill="none" stroke="#fff" stroke-linecap="round" stroke-miterlimit="10" stroke-width="3"/>
        <path id="Path_26527" data-name="Path 26527" d="M60.146,14.054a6.77,6.77,0,1,0-3.37.9,6.765,6.765,0,0,0,3.37-.9" transform="translate(13.102 8.486)" fill="none" stroke="#fff" stroke-linecap="round" stroke-miterlimit="10" stroke-width="3"/>
        <path id="Path_26528" data-name="Path 26528" d="M66.987,25.093a10.817,10.817,0,0,0-20.015-.222" transform="translate(12.945 9.357)" fill="none" stroke="#fff" stroke-linecap="round" stroke-miterlimit="10" stroke-width="3"/>
        <path id="Path_26529" data-name="Path 26529" d="M37.541,41.885a6.77,6.77,0,1,0-3.37.9,6.765,6.765,0,0,0,3.37-.9" transform="translate(11.934 9.925)" fill="none" stroke="#fff" stroke-linecap="round" stroke-miterlimit="10" stroke-width="3"/>
        <path id="Path_26530" data-name="Path 26530" d="M44.382,52.924A10.817,10.817,0,0,0,24.367,52.7" transform="translate(11.777 10.796)" fill="none" stroke="#fff" stroke-linecap="round" stroke-miterlimit="10" stroke-width="3"/>
        <path id="Path_26531" data-name="Path 26531" d="M47.911,13.794a21.831,21.831,0,0,0-26.743-.2" transform="translate(11.611 8.884)" fill="none" stroke="#fff" stroke-linecap="round" stroke-miterlimit="10" stroke-width="3"/>
        <path id="Path_26532" data-name="Path 26532" d="M46.37,47.21a21.792,21.792,0,0,0,8.565-17.337" transform="translate(12.914 9.957)" fill="none" stroke="#fff" stroke-linecap="round" stroke-miterlimit="10" stroke-width="3"/>
        <path id="Path_26533" data-name="Path 26533" d="M13.008,29.873a21.8,21.8,0,0,0,8.986,17.652" transform="translate(11.189 9.957)" fill="none" stroke="#fff" stroke-linecap="round" stroke-miterlimit="10" stroke-width="3"/>
      </g>
    </g>
  </g>
</svg>
