<svg id="Group_14660" data-name="Group 14660" xmlns="http://www.w3.org/2000/svg" xmlns:xlink="http://www.w3.org/1999/xlink" width="117.588" height="92.116" viewBox="0 0 117.588 92.116">
  <defs>
    <clipPath id="clip-path">
      <rect id="Rectangle_3444" data-name="Rectangle 3444" width="117.588" height="92.116" fill="none"/>
    </clipPath>
  </defs>
  <g id="Group_14659" data-name="Group 14659" clip-path="url(#clip-path)">
    <path id="Path_28520" data-name="Path 28520" d="M1.5,18.538V87.432a3.182,3.182,0,0,0,4.365,2.956L31.991,78.5a2.289,2.289,0,0,0,1.339-2.082V4.874a2.287,2.287,0,0,0-3.136-2.123L5.5,12.627a6.366,6.366,0,0,0-4,5.91Zm38.2,57.7a2.287,2.287,0,0,0,1.563,2.169l22.49,7.5,11.128,3.71a2.287,2.287,0,0,0,3.01-2.17V15.877a2.287,2.287,0,0,0-1.563-2.169l-5.354-1.785L42.71,2.5A2.287,2.287,0,0,0,39.7,4.67ZM111.726,1.728,85.6,13.618A2.289,2.289,0,0,0,84.261,15.7V87.242A2.287,2.287,0,0,0,87.4,89.365l24.691-9.876a6.365,6.365,0,0,0,4-5.91V4.684a3.184,3.184,0,0,0-4.367-2.956Z" fill="none" stroke="#fff" stroke-width="3"/>
    <line id="Line_52" data-name="Line 52" x2="24.282" y2="6.776" transform="translate(46.312 16.253)" fill="none" stroke="#fff" stroke-linecap="round" stroke-width="3"/>
    <line id="Line_53" data-name="Line 53" x2="24.282" y2="6.776" transform="translate(46.312 27.654)" fill="none" stroke="#fff" stroke-linecap="round" stroke-width="3"/>
    <line id="Line_54" data-name="Line 54" y1="6.073" x2="14.653" transform="translate(93.72 71.403)" fill="none" stroke="#fff" stroke-linecap="round" stroke-width="3"/>
    <line id="Line_62" data-name="Line 62" y1="6.073" x2="14.653" transform="translate(93.72 60.403)" fill="none" stroke="#fff" stroke-linecap="round" stroke-width="3"/>
    <path id="Path_28521" data-name="Path 28521" d="M27.427,34.965,8.191,43.04A1.017,1.017,0,0,1,6.78,42.1V20.37a1.017,1.017,0,0,1,.655-.951L26.672,12.1a1.017,1.017,0,0,1,1.378.951V34.027a1.017,1.017,0,0,1-.623.938" fill="#fff"/>
    <ellipse id="Ellipse_2894" data-name="Ellipse 2894" cx="6.5" cy="13" rx="6.5" ry="13" transform="translate(94.794 16.856)" fill="#fff"/>
  </g>
</svg>
