<?xml version="1.0" encoding="UTF-8"?>
<svg id="Ebene_1" data-name="Ebene 1" xmlns="http://www.w3.org/2000/svg" xmlns:xlink="http://www.w3.org/1999/xlink" version="1.1" viewBox="0 0 4938.6 1703">
  <defs>
    <style>
      .cls-1, .cls-2 {
        fill: #563529;
      }

      .cls-3 {
        clip-path: url(#clippath);
      }

      .cls-2, .cls-4, .cls-5 {
        stroke-width: 0px;
      }

      .cls-4 {
        fill: #d65c94;
      }

      .cls-5 {
        fill: #fff;
      }
    </style>
    <clipPath id="clippath">
      <path class="cls-2" d="M1378.2,844.7c0,93.5-23.4,181.6-64.6,258.7-92.5,172.9-274.8,290.5-484.6,290.5s-392.1-117.6-484.5-290.5c-41.3-77.1-64.6-165.1-64.6-258.7,0-303.3,245.9-549.2,549.2-549.2s549.2,245.9,549.2,549.2Z"/>
    </clipPath>
  </defs>
  <g>
    <g>
      <path class="cls-2" d="M1957.9,458.7c-9-8-19.6-14.7-31.8-20.2s-25.7-9.8-40.3-13.1l-30.2-7.2c-7.3-1.6-14.2-3.6-20.6-6-6.4-2.3-12.1-5.1-17-8.4-4.9-3.2-8.8-7.1-11.6-11.6-2.8-4.5-4.1-9.7-3.9-15.7,0-7.2,2.1-13.7,6.3-19.3,4.2-5.7,10.3-10.1,18.3-13.4,8-3.2,17.8-4.8,29.3-4.8,17,0,30.5,3.7,40.5,11,9.9,7.3,15.6,17.6,16.9,30.8h68c-.3-20-5.7-37.6-16.1-52.8-10.4-15.2-24.9-27-43.5-35.6s-40.4-12.8-65.3-12.8-46.3,4.3-65.5,12.8-34.3,20.4-45.3,35.6c-11,15.2-16.4,32.9-16.3,53.2-.1,24.8,8,44.5,24.4,59.2,16.4,14.6,38.7,25.4,67,32.3l36.5,9.2c12.2,3,22.6,6.2,31.1,9.8,8.5,3.6,14.9,8,19.3,13.1,4.4,5.1,6.6,11.5,6.6,19s-2.5,15.2-7.4,21.5c-4.9,6.2-11.8,11.1-20.7,14.6-8.9,3.5-19.4,5.2-31.4,5.2s-23.2-1.9-32.9-5.6c-9.7-3.8-17.4-9.4-23.1-16.9-5.7-7.5-9-16.8-9.8-28.1h-68.7c.5,24.1,6.4,44.4,17.6,60.7,11.2,16.3,26.8,28.7,46.9,36.9,20,8.3,43.6,12.5,70.7,12.5s50.7-4.1,70.1-12.4c19.4-8.2,34.2-19.9,44.6-34.9,10.3-15,15.5-32.8,15.6-53.3-.1-14-2.6-26.4-7.6-37.2-5-10.8-11.9-20.2-20.9-28.2Z"/>
      <path class="cls-2" d="M2265.2,300c-23.8-13.5-50.4-20.2-80-20.2s-56.6,6.7-80.3,20.2c-23.7,13.5-42.4,33.1-56.2,58.7-13.8,25.7-20.6,56.8-20.6,93.4s6.9,67.6,20.6,93.2c13.8,25.7,32.5,45.3,56.2,58.8,23.7,13.5,50.5,20.3,80.3,20.3s56.3-6.7,80-20.2c23.8-13.5,42.5-33.1,56.4-58.7,13.8-25.7,20.7-56.8,20.7-93.4s-6.9-67.7-20.7-93.4c-13.8-25.7-32.6-45.3-56.4-58.7ZM2259.8,512.1c-7,16.3-17,28.6-29.7,37-12.8,8.4-27.8,12.6-44.9,12.6s-32.1-4.2-44.9-12.6c-12.8-8.4-22.7-20.8-29.7-37-7-16.3-10.6-36.3-10.6-60s3.5-43.7,10.6-60c7-16.3,17-28.6,29.7-37s27.7-12.6,44.9-12.6,32.1,4.2,44.9,12.6c12.8,8.4,22.7,20.8,29.7,37,7,16.3,10.6,36.3,10.6,60s-3.5,43.7-10.6,60Z"/>
      <rect class="cls-2" x="2394.8" y="284.3" width="71" height="335.6"/>
      <polygon class="cls-2" points="2595.2 284.3 2524.2 284.3 2524.2 619.9 2739 619.9 2739 561.4 2595.2 561.4 2595.2 284.3"/>
      <path class="cls-2" d="M3012.2,458.7c-9-8-19.6-14.7-31.8-20.2-12.2-5.5-25.7-9.8-40.3-13.1l-30.2-7.2c-7.3-1.6-14.2-3.6-20.6-6-6.4-2.3-12.1-5.1-17-8.4-4.9-3.2-8.8-7.1-11.6-11.6-2.8-4.5-4.1-9.7-3.9-15.7,0-7.2,2.1-13.7,6.3-19.3,4.2-5.7,10.3-10.1,18.3-13.4,8-3.2,17.8-4.8,29.3-4.8,17,0,30.5,3.7,40.5,11,9.9,7.3,15.6,17.6,16.9,30.8h68c-.3-20-5.7-37.6-16.1-52.8s-24.9-27-43.5-35.6-40.4-12.8-65.3-12.8-46.3,4.3-65.5,12.8-34.3,20.4-45.3,35.6c-11,15.2-16.4,32.9-16.3,53.2-.1,24.8,8,44.5,24.4,59.2,16.4,14.6,38.7,25.4,67,32.3l36.5,9.2c12.2,3,22.6,6.2,31.1,9.8,8.5,3.6,14.9,8,19.3,13.1,4.4,5.1,6.6,11.5,6.6,19s-2.5,15.2-7.4,21.5c-4.9,6.2-11.8,11.1-20.7,14.6-8.9,3.5-19.4,5.2-31.4,5.2s-23.2-1.9-32.9-5.6c-9.7-3.8-17.4-9.4-23.1-16.9-5.7-7.5-9-16.8-9.8-28.1h-68.7c.5,24.1,6.4,44.4,17.6,60.7,11.2,16.3,26.8,28.7,46.9,36.9,20,8.3,43.6,12.5,70.7,12.5s50.7-4.1,70.1-12.4c19.4-8.2,34.2-19.9,44.6-34.9,10.3-15,15.5-32.8,15.6-53.3-.1-14-2.6-26.4-7.6-37.2-5-10.8-11.9-20.2-20.9-28.2Z"/>
      <polygon class="cls-2" points="3195.2 619.9 3266.1 619.9 3266.1 481.3 3402.6 481.3 3402.6 422.8 3266.1 422.8 3266.1 342.8 3417.4 342.8 3417.4 284.3 3195.2 284.3 3195.2 619.9"/>
      <path class="cls-2" d="M3696.3,300c-23.8-13.5-50.4-20.2-80-20.2s-56.6,6.7-80.3,20.2c-23.7,13.5-42.4,33.1-56.2,58.7-13.8,25.7-20.6,56.8-20.6,93.4s6.9,67.6,20.6,93.2c13.8,25.7,32.5,45.3,56.2,58.8,23.7,13.5,50.5,20.3,80.3,20.3s56.3-6.7,80-20.2c23.8-13.5,42.5-33.1,56.4-58.7,13.8-25.7,20.7-56.8,20.7-93.4s-6.9-67.7-20.7-93.4c-13.8-25.7-32.6-45.3-56.4-58.7ZM3690.9,512.1c-7,16.3-17,28.6-29.7,37-12.8,8.4-27.8,12.6-44.9,12.6s-32.1-4.2-44.9-12.6c-12.8-8.4-22.7-20.8-29.7-37-7-16.3-10.6-36.3-10.6-60s3.5-43.7,10.6-60c7-16.3,17-28.6,29.7-37,12.8-8.4,27.7-12.6,44.9-12.6s32.1,4.2,44.9,12.6c12.8,8.4,22.7,20.8,29.7,37,7,16.3,10.6,36.3,10.6,60s-3.5,43.7-10.6,60Z"/>
      <path class="cls-2" d="M4012.1,619.9h78.3l-71.2-130.3c1-.5,2.1-.9,3.1-1.4,18.2-8.5,32.1-20.8,41.7-36.8,9.6-16,14.4-35.1,14.4-57.4s-4.7-41.5-14.2-57.9c-9.4-16.4-23.2-29.2-41.1-38.2s-39.6-13.5-65-13.5h-132.4v335.6h71v-119h51.8l63.6,119ZM3896.8,342.4h47.8c13.7,0,25,2,34,6,9,4,15.7,9.8,20.2,17.4,4.4,7.6,6.6,17,6.6,28.2s-2.2,20.3-6.6,27.7c-4.4,7.4-11.1,13-20.1,16.7-9,3.7-20.2,5.6-33.8,5.6h-48.2v-101.6Z"/>
    </g>
    <path class="cls-2" d="M1731.8,1097.2v-335.6h226.1v58.5h-155.2v80h143.5v58.5h-143.5v80.1h155.8v58.5h-226.8Z"/>
    <path class="cls-2" d="M2231,761.7h71v217.9c0,24.5-5.8,45.9-17.5,64.2-11.6,18.4-27.9,32.6-48.7,42.8-20.9,10.2-45.2,15.3-72.9,15.3s-52.2-5.1-73.1-15.3c-20.9-10.2-37.1-24.5-48.7-42.8-11.6-18.4-17.4-39.8-17.4-64.2v-217.9h71v211.9c0,12.8,2.8,24.1,8.4,34.1,5.6,9.9,13.6,17.8,23.8,23.4,10.3,5.7,22.2,8.5,35.9,8.5s25.8-2.8,36-8.5c10.2-5.7,18.1-13.5,23.8-23.4,5.6-9.9,8.4-21.3,8.4-34.1v-211.9Z"/>
    <path class="cls-2" d="M2369.5,1097.2v-335.6h132.4c25.3,0,47,4.5,65,13.5,18,9,31.7,21.7,41.1,38.2,9.4,16.4,14.2,35.7,14.2,57.9s-4.8,41.4-14.4,57.4c-9.6,16-23.5,28.3-41.7,36.8-18.2,8.5-40.2,12.8-66,12.8h-88.7v-57h77.2c13.5,0,24.8-1.9,33.8-5.6,9-3.7,15.6-9.3,20.1-16.7,4.4-7.4,6.6-16.7,6.6-27.7s-2.2-20.5-6.6-28.2c-4.4-7.6-11.1-13.5-20.2-17.4-9-4-20.3-6-34-6h-47.8v277.6h-71ZM2550.7,944.5l83.4,152.7h-78.3l-81.6-152.7h76.5Z"/>
    <path class="cls-2" d="M2989.9,929.5c0,36.6-6.9,67.7-20.7,93.4-13.8,25.7-32.6,45.3-56.4,58.7-23.8,13.5-50.4,20.2-80,20.2s-56.6-6.8-80.3-20.3c-23.7-13.5-42.4-33.2-56.2-58.8-13.8-25.7-20.6-56.7-20.6-93.2s6.9-67.7,20.6-93.4c13.8-25.7,32.5-45.3,56.2-58.7,23.7-13.5,50.5-20.2,80.3-20.2s56.3,6.7,80,20.2c23.8,13.5,42.5,33.1,56.4,58.7,13.8,25.7,20.7,56.8,20.7,93.4ZM2917.9,929.5c0-23.7-3.5-43.7-10.6-60-7-16.3-17-28.6-29.7-37-12.8-8.4-27.8-12.6-44.9-12.6s-32.1,4.2-44.9,12.6c-12.8,8.4-22.7,20.8-29.7,37-7,16.3-10.6,36.3-10.6,60s3.5,43.7,10.6,60c7,16.3,17,28.6,29.7,37,12.8,8.4,27.7,12.6,44.9,12.6s32.1-4.2,44.9-12.6c12.8-8.4,22.7-20.8,29.7-37,7-16.3,10.6-36.3,10.6-60Z"/>
    <path class="cls-2" d="M3051.5,1097.2v-335.6h132.4c25.5,0,47.1,4.8,65,14.5,17.9,9.7,31.6,23.1,41,40.1,9.4,17.1,14.2,36.8,14.2,59.1s-4.8,41.9-14.4,59c-9.6,17-23.5,30.3-41.7,39.8-18.2,9.5-40.2,14.3-66,14.3h-84.4v-56.9h72.9c13.7,0,24.9-2.4,33.8-7.1,8.9-4.7,15.6-11.4,20-19.8,4.4-8.5,6.6-18.2,6.6-29.2s-2.2-20.9-6.6-29.3c-4.4-8.4-11.1-14.9-20.1-19.5-9-4.6-20.3-7-34.1-7h-47.8v277.6h-71Z"/>
    <path class="cls-2" d="M3359.6,1097.2v-335.6h226.1v58.5h-155.2v80h143.5v58.5h-143.5v80.1h155.8v58.5h-226.8Z"/>
    <g>
      <path class="cls-2" d="M1838.5,1310c12.9-8.6,28-12.9,45.4-12.9s18.5,1.4,26.8,4.1c8.2,2.7,15.5,6.7,21.9,11.8,6.3,5.1,11.5,11.3,15.6,18.6,4,7.3,6.7,15.5,8,24.8h71.8c-2.3-19.4-7.5-36.7-15.6-51.8-8.1-15.1-18.7-27.8-31.5-38.3-12.9-10.4-27.7-18.4-44.3-23.8-16.7-5.5-34.7-8.2-54.1-8.2-29.5,0-56,6.7-79.6,20.2-23.6,13.5-42.3,33.1-56,58.7-13.8,25.7-20.6,56.8-20.6,93.4s6.8,67.6,20.4,93.2c13.6,25.7,32.2,45.3,55.7,58.8,23.5,13.5,50.3,20.3,80.2,20.3s40.8-3.2,57.9-9.8c17.1-6.5,31.8-15.3,44.2-26.5,12.4-11.2,22.3-23.9,29.7-38.2,7.4-14.2,12-29.1,13.8-44.5l-71.8-.3c-1.6,9-4.6,16.9-8.8,23.9-4.2,7-9.5,12.9-15.8,17.8-6.3,4.9-13.6,8.5-21.7,11.1-8.1,2.5-17,3.8-26.5,3.8-16.9,0-31.8-4.1-44.7-12.4-12.9-8.3-22.9-20.6-30.1-36.9-7.2-16.3-10.7-36.4-10.7-60.3s3.6-43.1,10.7-59.4c7.1-16.3,17.1-28.8,30-37.4Z"/>
      <path class="cls-2" d="M2310.1,1254.6c-23.8-13.5-50.4-20.2-80-20.2s-56.6,6.7-80.3,20.2c-23.7,13.5-42.4,33.1-56.2,58.7-13.8,25.7-20.6,56.8-20.6,93.4s6.9,67.6,20.6,93.2c13.8,25.7,32.5,45.3,56.2,58.8,23.7,13.5,50.5,20.3,80.3,20.3s56.3-6.7,80-20.2c23.8-13.5,42.5-33.1,56.4-58.7,13.8-25.7,20.7-56.8,20.7-93.4s-6.9-67.7-20.7-93.4c-13.8-25.7-32.6-45.3-56.4-58.7ZM2304.7,1466.7c-7,16.3-17,28.6-29.7,37-12.8,8.4-27.8,12.6-44.9,12.6s-32.1-4.2-44.9-12.6c-12.8-8.4-22.7-20.8-29.7-37s-10.6-36.3-10.6-60,3.5-43.7,10.6-60c7-16.3,17-28.6,29.7-37,12.8-8.4,27.7-12.6,44.9-12.6s32.1,4.2,44.9,12.6,22.7,20.8,29.7,37c7,16.3,10.6,36.3,10.6,60s-3.5,43.7-10.6,60Z"/>
      <polygon class="cls-2" points="2649.7 1450 2646.8 1450 2501.9 1239 2439.7 1239 2439.7 1574.6 2510.6 1574.6 2510.6 1363.4 2513.1 1363.4 2659.1 1574.6 2720.3 1574.6 2720.3 1239 2649.7 1239 2649.7 1450"/>
      <polygon class="cls-2" points="2778.8 1574.6 2849.8 1574.6 2849.8 1435.9 2986.3 1435.9 2986.3 1377.4 2849.8 1377.4 2849.8 1297.5 3001 1297.5 3001 1239 2778.8 1239 2778.8 1574.6"/>
      <polygon class="cls-2" points="3119.7 1435.9 3263.2 1435.9 3263.2 1377.4 3119.7 1377.4 3119.7 1297.5 3274.8 1297.5 3274.8 1239 3048.7 1239 3048.7 1574.6 3275.5 1574.6 3275.5 1516.1 3119.7 1516.1 3119.7 1435.9"/>
      <path class="cls-2" d="M3527.9,1442.8c18.2-8.5,32.1-20.8,41.7-36.8,9.6-16,14.4-35.1,14.4-57.4s-4.7-41.5-14.2-57.9c-9.4-16.4-23.2-29.2-41.1-38.2-18-9-39.6-13.5-65-13.5h-132.4v335.6h71v-119h51.8l63.6,119h78.3l-71.2-130.3c1-.5,2.1-.9,3.1-1.4ZM3402.3,1297h47.8c13.7,0,25,2,34,6,9,4,15.7,9.8,20.2,17.4,4.4,7.6,6.6,17,6.6,28.2s-2.2,20.3-6.6,27.7c-4.4,7.4-11.1,13-20.1,16.7-9,3.7-20.2,5.6-33.8,5.6h-48.2v-101.6Z"/>
      <polygon class="cls-2" points="3705.1 1435.9 3848.6 1435.9 3848.6 1377.4 3705.1 1377.4 3705.1 1297.5 3860.3 1297.5 3860.3 1239 3634.1 1239 3634.1 1574.6 3860.9 1574.6 3860.9 1516.1 3705.1 1516.1 3705.1 1435.9"/>
      <polygon class="cls-2" points="4126.8 1450 4123.9 1450 3979.1 1239 3916.8 1239 3916.8 1574.6 3987.7 1574.6 3987.7 1363.4 3990.2 1363.4 4136.2 1574.6 4197.5 1574.6 4197.5 1239 4126.8 1239 4126.8 1450"/>
      <path class="cls-2" d="M4362.6,1310c12.9-8.6,28-12.9,45.4-12.9s18.5,1.4,26.8,4.1c8.2,2.7,15.5,6.7,21.9,11.8,6.3,5.1,11.5,11.3,15.6,18.6,4,7.3,6.7,15.5,8,24.8h71.8c-2.3-19.4-7.5-36.7-15.6-51.8-8.1-15.1-18.7-27.8-31.5-38.3-12.9-10.4-27.7-18.4-44.3-23.8-16.7-5.5-34.7-8.2-54.1-8.2-29.5,0-56,6.7-79.6,20.2-23.6,13.5-42.3,33.1-56,58.7-13.8,25.7-20.6,56.8-20.6,93.4s6.8,67.6,20.4,93.2c13.6,25.7,32.2,45.3,55.7,58.8,23.5,13.5,50.3,20.3,80.2,20.3s40.8-3.2,57.9-9.8c17.1-6.5,31.8-15.3,44.2-26.5,12.4-11.2,22.3-23.9,29.7-38.2,7.4-14.2,12-29.1,13.8-44.5l-71.8-.3c-1.6,9-4.6,16.9-8.8,23.9-4.2,7-9.5,12.9-15.8,17.8-6.3,4.9-13.6,8.5-21.7,11.1-8.1,2.5-17,3.8-26.5,3.8-16.9,0-31.8-4.1-44.7-12.4-12.9-8.3-22.9-20.6-30.1-36.9-7.2-16.3-10.7-36.4-10.7-60.3s3.6-43.1,10.7-59.4c7.1-16.3,17.1-28.8,30-37.4Z"/>
      <polygon class="cls-2" points="4674 1516.1 4674 1435.9 4817.5 1435.9 4817.5 1377.4 4674 1377.4 4674 1297.5 4829.1 1297.5 4829.1 1239 4603 1239 4603 1574.6 4829.8 1574.6 4829.8 1516.1 4674 1516.1"/>
    </g>
  </g>
  <path class="cls-4" d="M829,123.8h720.8v720.8c0,397.8-323,720.8-720.8,720.8h0c-397.8,0-720.8-323-720.8-720.8h0c0-397.8,323-720.8,720.8-720.8Z" transform="translate(1673.7 15.7) rotate(90)"/>
  <g>
    <path class="cls-1" d="M1378.2,844.7c0,93.5-23.4,181.6-64.6,258.7-92.5,172.9-274.8,290.5-484.6,290.5s-392.1-117.6-484.5-290.5c-41.3-77.1-64.6-165.1-64.6-258.7,0-303.3,245.9-549.2,549.2-549.2s549.2,245.9,549.2,549.2Z"/>
    <g class="cls-3">
      <path class="cls-5" d="M1408.7,784.7l-105.9-56c-25.1-13.3-55-15.8-82-6.8l-77.1,25.7c-24.3,8.1-51.1,5.5-73.4-7l-73.6-41.4c-18.6-10.5-41.5-10-59.6,1.3l-51.9,32.2c-28,17.4-63.6,18.7-92.8,3.5l-27.2-14.2c-17.3-9-37.8-10.5-56.3-4.1l-21.7,7.6c-32,11.1-66.9,7.5-95.9-9.9l-5.4-3.2c-36.9-22.1-81.4-27-122.1-13.5-12.5,7.1-137.9,75.5-214.9,16l11.3-14.6c69.7,53.8,194-17.1,195.2-17.9l1.7-.8c46.2-15.6,96.6-10.2,138.4,14.9l5.4,3.2c24.3,14.6,53.6,17.6,80.4,8.3l21.7-7.6c23.2-8.1,49-6.2,70.9,5.2l27.2,14.2c23.5,12.3,52.1,11.2,74.6-2.8l51.9-32.2c23.9-14.8,53.9-15.5,78.4-1.7l73.6,41.4c17.8,10,39.2,12.1,58.6,5.6l77.1-25.7c31.7-10.6,66.9-7.7,96.4,8l105.9,56-8.6,16.3Z"/>
    </g>
  </g>
  <path class="cls-5" d="M953.1,1031.7c-54.9,0-99.5-44.7-99.5-99.5s44.7-99.5,99.5-99.5,99.5,44.7,99.5,99.5-44.7,99.5-99.5,99.5ZM953.1,851.1c-44.7,0-81.1,36.4-81.1,81.1s36.4,81.1,81.1,81.1,81.1-36.4,81.1-81.1-36.4-81.1-81.1-81.1Z"/>
  <path class="cls-5" d="M488.6,945.9c-38.8,0-70.4-31.6-70.4-70.4s31.6-70.4,70.4-70.4,70.4,31.6,70.4,70.4-31.6,70.4-70.4,70.4ZM488.6,823.6c-28.6,0-51.9,23.3-51.9,51.9s23.3,51.9,51.9,51.9,51.9-23.3,51.9-51.9-23.3-51.9-51.9-51.9Z"/>
  <path class="cls-5" d="M913.5,1264.1c-42.4,0-77-34.5-77-77s34.5-77,77-77,77,34.5,77,77-34.5,77-77,77ZM913.5,1127.6c-32.8,0-59.6,26.7-59.6,59.6s26.7,59.6,59.6,59.6,59.6-26.7,59.6-59.6-26.7-59.6-59.6-59.6Z"/>
  <circle class="cls-5" cx="692" cy="1068.8" r="61.1"/>
  <circle class="cls-5" cx="1233.2" cy="924.4" r="59.6"/>
  <circle class="cls-5" cx="464" cy="1084.5" r="39.2"/>
  <path class="cls-5" d="M1162.5,1172.9c-26.2,0-47.5-21.3-47.5-47.5s21.3-47.5,47.5-47.5,47.5,21.3,47.5,47.5-21.3,47.5-47.5,47.5ZM1162.5,1096.3c-16,0-29.1,13-29.1,29.1s13,29.1,29.1,29.1,29.1-13,29.1-29.1-13-29.1-29.1-29.1Z"/>
  <path class="cls-5" d="M631.2,1268.9c-28.9,0-52.5-23.5-52.5-52.5s23.6-52.5,52.5-52.5,52.5,23.5,52.5,52.5-23.6,52.5-52.5,52.5ZM631.2,1181.3c-19.4,0-35.1,15.7-35.1,35.1s15.7,35.1,35.1,35.1,35.1-15.7,35.1-35.1-15.7-35.1-35.1-35.1Z"/>
  <path class="cls-5" d="M728.9,904.8c-26.7,0-48.4-21.7-48.4-48.4s21.7-48.4,48.4-48.4,48.4,21.7,48.4,48.4-21.7,48.4-48.4,48.4ZM728.9,826.4c-16.6,0-30,13.5-30,30s13.5,30,30,30,30-13.5,30-30-13.5-30-30-30Z"/>
  <path class="cls-5" d="M836.4,746l-4.6-2.8c-2.2-1.3-3.3-2-3.9-8.1h-.6c0-.3,0-2.5,0-15.4,0-6.9,0-16.1,0-28.4s0-33.9,0-43.2h-.2c-33.2,0-67.8-11.1-96.5-32.3-45.8-34-66-86.6-55.4-144.5l1.6-8.6,8.6,1.1c56.1,7,94.7,19.2,118,37.3h0c26,20.1,36.7,53.1,40.6,87.5,2.9-7.4,6.3-14.7,10.2-21.9,21.7-39.9,51.9-62.3,87.6-64.7l9.6-.6.2,9.7c1,57.6-21.6,101.3-63.7,122.9-12.6,6.5-26.3,10.7-40.6,12.7-.9,6.7-1.4,13-1.6,18.6v54.4c0,4.3,0,7.7,0,10.5,0,2.7,0,4.4,0,4.9h-.2c-.4,5.9-1.4,6.5-4.5,8.2l-4.7,2.6ZM691.9,483.3c-5.8,47.3,11.9,89.8,49.6,117.7,25.2,18.7,56.3,28.5,85.9,28.5h.1c0-42.7-5.3-90.5-35.5-113.8-19.5-15.1-52.3-25.7-100.2-32.4ZM933.1,521.9c-45.4,9.4-71.7,61.1-82.1,105.5,10.1-1.9,19.7-5.1,28.5-9.7,23.7-12.2,51.5-38.7,53.6-95.9Z"/>
  <g>
    <path class="cls-4" d="M4258.5,617.5v-18.2l56.4-58.4c6-6.4,11-11.9,14.9-16.7,3.9-4.8,6.9-9.4,8.8-13.7,1.9-4.3,2.9-9,2.9-13.8s-1.3-10.3-3.9-14.4c-2.6-4-6.2-7.2-10.7-9.4-4.5-2.2-9.6-3.3-15.2-3.3s-11.2,1.2-15.6,3.7c-4.4,2.4-7.9,5.9-10.3,10.3-2.4,4.4-3.6,9.7-3.6,15.6h-24c0-10.1,2.3-19,7-26.6,4.7-7.6,11.1-13.5,19.2-17.7,8.1-4.2,17.4-6.3,27.8-6.3s19.7,2.1,27.7,6.2c8,4.2,14.3,9.8,18.7,16.9,4.5,7.1,6.8,15.2,6.8,24.1s-1.2,12.2-3.5,18.2c-2.3,5.9-6.3,12.5-12,19.7-5.7,7.2-13.6,16-23.8,26.3l-33.1,34.7v1.2h75.1v21.6h-109.7Z"/>
    <path class="cls-4" d="M4457.2,620.3c-12.9,0-23.8-3.4-33-10.2-9.1-6.7-16.1-16.5-20.9-29.4-4.8-12.9-7.2-28.4-7.2-46.5s2.4-33.5,7.3-46.3c4.8-12.8,11.9-22.6,21-29.3,9.1-6.7,20.1-10.1,32.8-10.1s23.7,3.4,32.8,10.1c9.1,6.8,16.1,16.5,21,29.3,4.9,12.8,7.3,28.2,7.3,46.3s-2.4,33.7-7.2,46.5c-4.8,12.8-11.8,22.6-20.9,29.4-9.1,6.8-20.1,10.1-32.9,10.1ZM4457.2,598.6c11.3,0,20.1-5.5,26.5-16.5,6.4-11,9.6-26.9,9.6-47.8s-1.5-25.5-4.4-35.1c-2.9-9.6-7.1-16.8-12.5-21.8-5.4-5-11.8-7.5-19.3-7.5-11.2,0-20.1,5.5-26.5,16.6-6.4,11.1-9.6,27-9.7,47.8,0,13.9,1.4,25.6,4.4,35.2,2.9,9.6,7,16.8,12.4,21.7,5.4,4.9,11.8,7.4,19.4,7.4Z"/>
    <path class="cls-4" d="M4547.2,617.5v-18.2l56.4-58.4c6-6.4,11-11.9,14.9-16.7,3.9-4.8,6.9-9.4,8.8-13.7,1.9-4.3,2.9-9,2.9-13.8s-1.3-10.3-3.9-14.4c-2.6-4-6.2-7.2-10.7-9.4-4.5-2.2-9.6-3.3-15.2-3.3s-11.2,1.2-15.6,3.7c-4.4,2.4-7.9,5.9-10.3,10.3-2.4,4.4-3.6,9.7-3.6,15.6h-24c0-10.1,2.3-19,7-26.6,4.7-7.6,11.1-13.5,19.2-17.7,8.1-4.2,17.4-6.3,27.8-6.3s19.7,2.1,27.7,6.2c8,4.2,14.3,9.8,18.8,16.9,4.5,7.1,6.8,15.2,6.8,24.1s-1.2,12.2-3.5,18.2c-2.3,5.9-6.3,12.5-12,19.7-5.7,7.2-13.6,16-23.8,26.3l-33.1,34.7v1.2h75.1v21.6h-109.7Z"/>
    <path class="cls-4" d="M4746,619.8c-7.4-.1-14.7-1.5-21.9-4.1-7.2-2.6-13.7-6.9-19.6-13-5.9-6.1-10.5-14.2-14-24.5-3.5-10.3-5.3-23.1-5.3-38.4s1.5-27.5,4.4-38.7c2.9-11.3,7.1-20.8,12.6-28.6,5.5-7.8,12.1-13.7,19.9-17.8,7.8-4.1,16.5-6.1,26.1-6.1s18.7,2,26.5,5.9c7.7,3.9,14,9.3,18.8,16.2,4.8,6.9,7.9,14.7,9.2,23.5h-24.8c-1.7-6.9-5-12.6-10-17-5-4.4-11.5-6.6-19.5-6.6-12.2,0-21.7,5.3-28.5,16-6.8,10.6-10.2,25.4-10.3,44.4h1.2c2.9-4.7,6.4-8.7,10.6-12.1,4.2-3.3,8.9-5.9,14.2-7.7,5.2-1.8,10.8-2.7,16.6-2.7,9.7,0,18.4,2.3,26.2,7,7.8,4.7,14.1,11.2,18.8,19.4,4.7,8.2,7,17.7,7,28.3s-2.4,20.3-7.2,28.9c-4.8,8.6-11.5,15.5-20.2,20.5-8.7,5-18.8,7.5-30.4,7.4ZM4745.9,598.6c6.4,0,12.1-1.6,17.2-4.7,5-3.1,9-7.4,12-12.7,2.9-5.3,4.4-11.3,4.4-17.8s-1.4-12.2-4.3-17.5c-2.8-5.3-6.8-9.4-11.7-12.5-5-3.1-10.6-4.6-17-4.6s-9.3.9-13.4,2.8c-4.1,1.8-7.7,4.4-10.8,7.6-3.1,3.3-5.5,7-7.3,11.2-1.8,4.2-2.6,8.6-2.6,13.3s1.4,12,4.4,17.3c2.9,5.3,6.9,9.6,12,12.8,5.1,3.2,10.8,4.8,17.2,4.8Z"/>
  </g>
  <g>
    <path class="cls-4" d="M4261.8,386.4l40.4-80v-.7h-47.1v-16.9h68.4v17.1l-40.5,80.4h-21.3Z"/>
    <path class="cls-4" d="M4383.4,338.3v16.1h-44.5v-16.1h44.5Z"/>
    <path class="cls-4" d="M4442.9,288.9v97.5h-20.6v-78h-.6l-22.3,14v-18.3l24.1-15.3h19.4Z"/>
    <path class="cls-4" d="M4508.6,288.9v97.5h-20.6v-78h-.6l-22.3,14v-18.3l24.1-15.3h19.4Z"/>
    <path class="cls-4" d="M4616.3,317c-.4-3.8-2-6.8-4.9-9-2.9-2.1-6.8-3.2-11.8-3.2s-6.2.5-8.5,1.4c-2.3.9-4.1,2.2-5.3,3.9-1.2,1.7-1.8,3.5-1.8,5.6,0,1.7.3,3.3,1.1,4.6.8,1.3,1.9,2.4,3.4,3.4,1.4.9,3.1,1.7,5,2.4,1.9.7,3.9,1.3,6,1.7l8.8,2.1c4.3,1,8.2,2.2,11.7,3.8,3.6,1.6,6.6,3.5,9.2,5.9,2.6,2.3,4.6,5,6.1,8.2,1.4,3.1,2.2,6.7,2.2,10.8,0,6-1.5,11.1-4.5,15.5-3,4.4-7.3,7.7-13,10.1-5.6,2.4-12.4,3.6-20.4,3.6s-14.7-1.2-20.5-3.6c-5.8-2.4-10.4-6-13.6-10.7-3.3-4.7-5-10.6-5.1-17.6h20c.2,3.3,1.2,6,2.8,8.2,1.7,2.2,3.9,3.8,6.7,4.9,2.8,1.1,6,1.6,9.5,1.6s6.5-.5,9.1-1.5c2.6-1,4.6-2.4,6-4.2,1.4-1.8,2.1-3.9,2.1-6.2s-.6-4-1.9-5.5c-1.3-1.5-3.2-2.8-5.6-3.8-2.5-1-5.5-2-9-2.9l-10.6-2.7c-8.2-2-14.7-5.1-19.5-9.4-4.8-4.3-7.1-10-7.1-17.2,0-5.9,1.5-11.1,4.7-15.5,3.2-4.4,7.6-7.9,13.2-10.3,5.6-2.5,11.9-3.7,19-3.7s13.6,1.2,19,3.7c5.4,2.5,9.6,5.9,12.6,10.3,3,4.4,4.6,9.5,4.7,15.3h-19.8Z"/>
    <path class="cls-4" d="M4651.2,386.4v-97.5h65.7v17h-45.1v23.2h41.7v17h-41.7v23.3h45.3v17h-65.9Z"/>
    <path class="cls-4" d="M4733.4,386.4v-97.5h38.5c7.4,0,13.7,1.4,18.9,4.2,5.2,2.8,9.2,6.7,11.9,11.7,2.7,5,4.1,10.7,4.1,17.2s-1.4,12.2-4.2,17.1c-2.8,4.9-6.8,8.8-12.1,11.6-5.3,2.8-11.7,4.1-19.2,4.1h-24.5v-16.5h21.2c4,0,7.2-.7,9.8-2.1,2.6-1.4,4.5-3.3,5.8-5.8,1.3-2.5,1.9-5.3,1.9-8.5s-.6-6.1-1.9-8.5c-1.3-2.4-3.2-4.3-5.8-5.7-2.6-1.3-5.9-2-9.9-2h-13.9v80.7h-20.6Z"/>
  </g>
  <g>
    <path class="cls-4" d="M3891.2,804.4h-27.9c-.8-4.6-2.3-8.6-4.4-12.2-2.1-3.6-4.8-6.6-8-9.1-3.2-2.5-6.8-4.4-10.9-5.6-4.1-1.3-8.4-1.9-13.1-1.9-8.3,0-15.7,2.1-22.1,6.2-6.4,4.2-11.4,10.2-15.1,18.2-3.6,8-5.5,17.7-5.5,29.2s1.8,21.5,5.5,29.5,8.7,14,15.1,18.1c6.4,4.1,13.7,6.1,22,6.1s8.9-.6,12.9-1.8c4-1.2,7.6-3,10.8-5.4,3.2-2.4,5.9-5.3,8.1-8.8,2.2-3.5,3.7-7.5,4.6-11.9h27.9c-1,7.4-3.3,14.2-6.8,20.6-3.5,6.4-8,12-13.5,16.8-5.6,4.9-12.1,8.6-19.6,11.3-7.5,2.7-15.8,4.1-24.9,4.1-13.4,0-25.4-3.1-36-9.3-10.6-6.2-18.9-15.2-24.9-27-6.1-11.7-9.1-25.8-9.1-42.3s3.1-30.6,9.2-42.3c6.1-11.7,14.5-20.7,25-26.9,10.6-6.2,22.5-9.3,35.8-9.3s16.4,1.2,23.7,3.6c7.3,2.4,13.8,5.9,19.6,10.5,5.7,4.6,10.4,10.2,14.1,16.9,3.7,6.6,6.1,14.2,7.3,22.7Z"/>
    <path class="cls-4" d="M4065.9,829.3c0,16.5-3.1,30.6-9.2,42.3-6.1,11.7-14.5,20.7-25.1,26.9-10.6,6.2-22.6,9.3-35.9,9.3s-25.4-3.1-35.9-9.4c-10.6-6.2-18.9-15.2-25.1-27-6.1-11.7-9.2-25.8-9.2-42.2s3.1-30.6,9.2-42.3c6.1-11.7,14.5-20.7,25.1-26.9,10.6-6.2,22.6-9.3,35.9-9.3s25.4,3.1,35.9,9.3c10.6,6.2,18.9,15.2,25.1,26.9,6.1,11.7,9.2,25.8,9.2,42.3ZM4038,829.3c0-11.6-1.8-21.4-5.4-29.4-3.6-8-8.6-14-15-18.1-6.4-4.1-13.7-6.2-22-6.2s-15.7,2.1-22,6.2c-6.4,4.1-11.4,10.2-15,18.1-3.6,8-5.4,17.8-5.4,29.4s1.8,21.4,5.4,29.4c3.6,8,8.6,14,15,18.1,6.4,4.1,13.7,6.2,22,6.2s15.7-2.1,22-6.2c6.4-4.1,11.4-10.2,15-18.1,3.6-8,5.4-17.8,5.4-29.4Z"/>
    <path class="cls-4" d="M4132.5,752.8v152.9h-27.7v-152.9h27.7Z"/>
    <path class="cls-4" d="M4175.2,752.8h33.9l45.4,110.8h1.8l45.4-110.8h33.9v152.9h-26.6v-105h-1.4l-42.3,104.6h-19.9l-42.3-104.8h-1.4v105.3h-26.6v-152.9Z"/>
    <path class="cls-4" d="M4378.3,905.7v-152.9h58.5c11,0,20.2,1.7,27.6,5.2,7.3,3.5,12.8,8.2,16.5,14.1,3.7,6,5.5,12.7,5.5,20.3s-1.2,11.5-3.6,15.9c-2.4,4.4-5.6,8-9.6,10.7-4,2.7-8.5,4.7-13.5,5.9v1.5c5.4.3,10.6,2,15.6,5,5,3,9.1,7.3,12.3,12.7,3.2,5.5,4.8,12.1,4.8,19.9s-1.9,15-5.7,21.3c-3.8,6.3-9.6,11.3-17.3,14.9-7.7,3.6-17.4,5.4-29.1,5.4h-61.9ZM4406,817.8h27.4c4.8,0,9.1-.9,12.9-2.7,3.8-1.8,6.9-4.3,9.1-7.5,2.2-3.3,3.3-7.1,3.3-11.6s-2.1-10.8-6.2-14.6c-4.2-3.8-10.3-5.7-18.5-5.7h-28v42.2ZM4406,882.6h29.8c10.1,0,17.3-1.9,21.8-5.8,4.5-3.9,6.7-8.8,6.7-14.9s-1.1-8.6-3.4-12.3c-2.2-3.7-5.4-6.5-9.6-8.7-4.1-2.1-9.1-3.2-14.8-3.2h-30.5v44.8Z"/>
    <path class="cls-4" d="M4529.1,905.7v-152.9h57.3c11.7,0,21.6,2,29.6,6.1,8,4.1,14,9.8,18.1,17.1,4.1,7.3,6.2,15.9,6.2,25.6s-2.1,18.3-6.2,25.5c-4.2,7.2-10.3,12.7-18.3,16.6-8.1,3.9-18,5.9-29.7,5.9h-40.8v-23h37.1c6.9,0,12.5-1,16.9-2.9,4.4-1.9,7.6-4.7,9.7-8.4,2.1-3.7,3.2-8.3,3.2-13.7s-1.1-10.1-3.2-13.9c-2.1-3.9-5.4-6.8-9.8-8.8-4.4-2-10-3-16.9-3h-25.4v129.8h-27.7ZM4608.1,836.4l37.9,69.3h-30.9l-37.2-69.3h30.2Z"/>
    <path class="cls-4" d="M4698.1,905.7h-29.6l53.8-152.9h34.2l53.9,152.9h-29.6l-40.8-121.5h-1.2l-40.8,121.5ZM4699.1,845.7h80.6v22.2h-80.6v-22.2Z"/>
    <path class="cls-4" d="M3760.3,1108.7v-152.9h57.3c11.7,0,21.6,2.2,29.6,6.6,8,4.4,14,10.4,18.1,18,4.1,7.6,6.2,16.3,6.2,26s-2.1,18.5-6.2,26.1c-4.1,7.6-10.2,13.6-18.3,18-8.1,4.4-18,6.5-29.8,6.5h-38v-22.8h34.3c6.9,0,12.5-1.2,16.9-3.6,4.4-2.4,7.6-5.7,9.7-9.9s3.2-9,3.2-14.4-1.1-10.2-3.2-14.3c-2.1-4.1-5.4-7.4-9.8-9.7-4.4-2.3-10.1-3.5-17-3.5h-25.4v129.8h-27.7Z"/>
    <path class="cls-4" d="M4023.8,1032.2c0,16.5-3.1,30.6-9.2,42.3-6.1,11.7-14.5,20.7-25.1,26.9s-22.6,9.3-35.9,9.3-25.4-3.1-35.9-9.4c-10.6-6.2-18.9-15.2-25.1-27-6.1-11.7-9.2-25.8-9.2-42.2s3.1-30.6,9.2-42.3c6.1-11.7,14.5-20.7,25.1-26.9,10.6-6.2,22.6-9.3,35.9-9.3s25.4,3.1,35.9,9.3c10.6,6.2,18.9,15.2,25.1,26.9,6.1,11.7,9.2,25.8,9.2,42.3ZM3996,1032.2c0-11.6-1.8-21.4-5.4-29.4-3.6-8-8.6-14-15-18.1-6.4-4.1-13.7-6.2-22-6.2s-15.7,2.1-22,6.2c-6.4,4.1-11.4,10.2-15,18.1-3.6,8-5.4,17.8-5.4,29.4s1.8,21.4,5.4,29.4c3.6,8,8.6,14,15,18.1,6.4,4.1,13.7,6.2,22,6.2s15.7-2.1,22-6.2c6.4-4.1,11.4-10.2,15-18.1,3.6-8,5.4-17.8,5.4-29.4Z"/>
    <path class="cls-4" d="M4041.7,1108.7v-152.9h57.3c11.7,0,21.6,2,29.6,6.1,8,4.1,14,9.8,18.1,17.1,4.1,7.3,6.2,15.9,6.2,25.6s-2.1,18.3-6.2,25.5c-4.2,7.2-10.3,12.7-18.3,16.6-8.1,3.9-18,5.9-29.7,5.9h-40.8v-23h37.1c6.9,0,12.5-1,16.9-2.9,4.4-1.9,7.6-4.7,9.7-8.4,2.1-3.7,3.2-8.3,3.2-13.7s-1.1-10.1-3.2-13.9c-2.1-3.9-5.4-6.8-9.8-8.8-4.4-2-10-3-16.9-3h-25.4v129.8h-27.7ZM4120.7,1039.4l37.9,69.3h-30.9l-37.2-69.3h30.2Z"/>
    <path class="cls-4" d="M4163.3,979v-23.2h122v23.2h-47.3v129.7h-27.5v-129.7h-47.3Z"/>
    <path class="cls-4" d="M4396.7,955.8h27.7v99.9c0,11-2.6,20.6-7.7,28.9-5.2,8.3-12.4,14.8-21.7,19.4-9.3,4.7-20.2,7-32.6,7s-23.4-2.3-32.7-7c-9.3-4.7-16.5-11.1-21.6-19.4-5.1-8.3-7.7-17.9-7.7-28.9v-99.9h27.7v97.6c0,6.4,1.4,12,4.2,17,2.8,5,6.8,8.9,11.9,11.7,5.1,2.8,11.2,4.2,18.2,4.2s13.1-1.4,18.3-4.2c5.2-2.8,9.1-6.7,11.9-11.7,2.8-5,4.2-10.7,4.2-17v-97.6Z"/>
    <path class="cls-4" d="M4548.6,1004.6c-1.2-4-2.9-7.7-5.1-10.9-2.2-3.2-4.8-6-7.8-8.2-3-2.3-6.5-4-10.3-5.2-3.9-1.2-8.1-1.8-12.7-1.8-8.2,0-15.5,2.1-21.9,6.2-6.4,4.1-11.5,10.2-15.1,18.2s-5.5,17.7-5.5,29.2,1.8,21.3,5.5,29.3c3.6,8,8.7,14.1,15.2,18.3,6.5,4.2,14,6.2,22.5,6.2s14.5-1.5,20.2-4.5c5.7-3,10.1-7.2,13.2-12.7,3.1-5.5,4.6-12,4.6-19.4l6.3,1h-41.5v-21.7h62v18.4c0,13.1-2.8,24.4-8.4,34-5.6,9.6-13.2,16.9-23,22.1-9.8,5.2-21,7.7-33.6,7.7s-26.4-3.2-37.1-9.5c-10.6-6.3-18.9-15.4-24.9-27.1-5.9-11.7-8.9-25.6-8.9-41.8s1.8-23.4,5.3-33.1,8.4-18,14.7-24.7c6.3-6.8,13.7-12,22.2-15.5,8.5-3.6,17.8-5.3,27.8-5.3s16.3,1.2,23.7,3.7c7.3,2.5,13.8,6,19.5,10.5,5.7,4.5,10.4,9.9,14.1,16.1,3.7,6.2,6.1,13.1,7.2,20.6h-28.2Z"/>
    <path class="cls-4" d="M4611.3,1108.7h-29.6l53.8-152.9h34.2l53.9,152.9h-29.6l-40.8-121.5h-1.2l-40.8,121.5ZM4612.3,1048.7h80.6v22.2h-80.6v-22.2Z"/>
    <path class="cls-4" d="M4735.4,1108.7v-152.9h27.7v129.7h67.3v23.2h-95Z"/>
  </g>
</svg>