<svg xmlns="http://www.w3.org/2000/svg" width="75.905" height="75.924" viewBox="0 0 75.905 75.924">
  <g id="SOLO-Brand-1c-negative" transform="translate(-1.03 -1.01)">
    <path id="Path_26494" data-name="Path 26494" d="M12.1,80.626a2.1,2.1,0,0,0-.713-1.494,2.933,2.933,0,0,0-1.928-.537,3.91,3.91,0,0,0-1.345.194,1.649,1.649,0,0,0-.77.53,1.323,1.323,0,0,0-.259.766,1.211,1.211,0,0,0,.13.636,1.441,1.441,0,0,0,.473.507,3.7,3.7,0,0,0,.835.408,8.841,8.841,0,0,0,1.2.324l1.608.343a12.007,12.007,0,0,1,2.786.911,6.685,6.685,0,0,1,1.894,1.326A4.856,4.856,0,0,1,17.1,86.246a6.14,6.14,0,0,1,.358,2.069,5.527,5.527,0,0,1-.968,3.273,5.916,5.916,0,0,1-2.732,2.039,11.678,11.678,0,0,1-4.264.7,12.113,12.113,0,0,1-4.455-.758,6.166,6.166,0,0,1-2.949-2.332A7.211,7.211,0,0,1,1.03,87.2H6.091a3,3,0,0,0,.45,1.513,2.526,2.526,0,0,0,1.136.93,4.413,4.413,0,0,0,1.749.316,4.152,4.152,0,0,0,1.425-.21,1.922,1.922,0,0,0,.869-.583,1.359,1.359,0,0,0,.3-.854,1.247,1.247,0,0,0-.29-.789,2.465,2.465,0,0,0-.922-.614A10.06,10.06,0,0,0,9.078,86.4l-1.951-.423a8.937,8.937,0,0,1-4.1-1.89,4.575,4.575,0,0,1-1.49-3.624,5.378,5.378,0,0,1,1-3.27,6.646,6.646,0,0,1,2.8-2.187,10.228,10.228,0,0,1,4.123-.785,9.9,9.9,0,0,1,4.108.8,6.191,6.191,0,0,1,2.675,2.237,6.067,6.067,0,0,1,.953,3.365H12.108Z" transform="translate(0 -45.312)" fill="#fff"/>
    <path id="Path_26495" data-name="Path 26495" d="M109.28,94.566V74.96H114.6V90.279h7.926V94.57H109.28Z" transform="translate(-66.999 -45.77)" fill="#fff"/>
    <path id="Path_26496" data-name="Path 26496" d="M60.051,74.15A10.091,10.091,0,1,0,70.134,84.241,10.088,10.088,0,0,0,60.051,74.15Zm0,14.862a4.771,4.771,0,1,1,4.763-4.771,4.768,4.768,0,0,1-4.763,4.771Z" transform="translate(-30.284 -45.269)" fill="#fff"/>
    <path id="Path_26497" data-name="Path 26497" d="M157.371,74.16a10.087,10.087,0,1,0,10.083,10.087A10.087,10.087,0,0,0,157.371,74.16Zm0,14.858a4.771,4.771,0,1,1,4.763-4.771A4.768,4.768,0,0,1,157.371,89.018Z" transform="translate(-90.519 -45.275)" fill="#fff"/>
    <path id="Path_26498" data-name="Path 26498" d="M157.371,167.471a10.091,10.091,0,1,1,10.083-10.091A10.088,10.088,0,0,1,157.371,167.471Zm0-14.862a4.771,4.771,0,1,0,4.763,4.771A4.768,4.768,0,0,0,157.371,152.61Z" transform="translate(-90.519 -90.537)" fill="#fff"/>
    <path id="Path_26499" data-name="Path 26499" d="M84.251,21.191A10.091,10.091,0,1,1,94.334,11.1,10.088,10.088,0,0,1,84.251,21.191Zm0-14.862A4.771,4.771,0,1,0,89.014,11.1,4.768,4.768,0,0,0,84.251,6.33Z" transform="translate(-45.263 0)" fill="#fff"/>
    <path id="Path_26500" data-name="Path 26500" d="M84.251,167.471a10.091,10.091,0,1,1,10.083-10.091A10.088,10.088,0,0,1,84.251,167.471Z" transform="translate(-45.263 -90.537)" fill="#fff"/>
    <path id="Path_26501" data-name="Path 26501" d="M19.771,161.25a4.771,4.771,0,1,0,4.763,4.771A4.768,4.768,0,0,0,19.771,161.25Z" transform="translate(-8.646 -99.178)" fill="#fff"/>
    <path id="Path_26502" data-name="Path 26502" d="M166.011,24.512a4.771,4.771,0,1,1,4.763-4.771A4.768,4.768,0,0,1,166.011,24.512Z" transform="translate(-99.159 -8.64)" fill="#fff"/>
    <path id="Path_26503" data-name="Path 26503" d="M11.131,1.01A10.091,10.091,0,1,0,21.214,11.1,10.088,10.088,0,0,0,11.131,1.01Z" transform="translate(-0.006 0)" fill="#fff"/>
  </g>
</svg>
