<?xml version="1.0" encoding="UTF-8"?><svg id="Ebene_1" xmlns="http://www.w3.org/2000/svg" viewBox="0 0 201.26 201.26"><defs><style>.cls-1{fill:#571300;}</style></defs><path class="cls-1" d="M30.08,91.03c-.14-1.67-.76-2.98-1.87-3.92-1.11-.94-2.8-1.41-5.06-1.41-1.44,0-2.62,.17-3.53,.51s-1.59,.81-2.02,1.39-.66,1.26-.68,2.01c-.03,.62,.08,1.18,.34,1.67,.26,.49,.67,.94,1.24,1.33,.57,.39,1.3,.75,2.19,1.07,.89,.32,1.94,.6,3.16,.85l4.22,.9c2.85,.6,5.28,1.4,7.31,2.39,2.03,.99,3.68,2.15,4.97,3.48,1.29,1.33,2.24,2.83,2.85,4.48,.61,1.66,.92,3.47,.94,5.43-.02,3.38-.86,6.25-2.54,8.59-1.67,2.34-4.07,4.13-7.17,5.35-3.11,1.22-6.84,1.83-11.19,1.83s-8.37-.66-11.69-1.99c-3.33-1.32-5.9-3.36-7.74-6.12-1.83-2.75-2.76-6.28-2.78-10.59H14.31c.08,1.57,.48,2.9,1.18,3.97,.7,1.07,1.7,1.88,2.98,2.44,1.28,.55,2.81,.83,4.59,.83,1.49,0,2.74-.18,3.74-.55,1-.37,1.77-.88,2.28-1.53,.52-.65,.79-1.4,.8-2.24-.02-.79-.27-1.48-.76-2.07-.5-.59-1.3-1.13-2.42-1.61-1.12-.48-2.64-.92-4.55-1.34l-5.12-1.11c-4.56-.99-8.15-2.64-10.77-4.96-2.62-2.32-3.92-5.49-3.91-9.51-.02-3.27,.86-6.13,2.63-8.58,1.77-2.45,4.22-4.37,7.36-5.74,3.14-1.37,6.75-2.06,10.82-2.06s7.74,.7,10.78,2.09c3.03,1.39,5.37,3.35,7.02,5.87,1.65,2.52,2.48,5.46,2.5,8.83h-13.36Z"/><path class="cls-1" d="M109.28,126.41v-51.45h13.97v40.2h20.8v11.26h-34.77Z"/><path class="cls-1" d="M76.44,74.15c-14.64,0-26.48,11.86-26.48,26.48s11.84,26.48,26.48,26.48,26.46-11.86,26.46-26.48-11.84-26.48-26.46-26.48Zm0,39c-6.93,0-12.52-5.61-12.52-12.52s5.59-12.52,12.52-12.52,12.5,5.61,12.5,12.52-5.59,12.52-12.5,12.52Z"/><path class="cls-1" d="M173.76,74.16c-14.64,0-26.48,11.86-26.48,26.47s11.84,26.47,26.48,26.47,26.46-11.86,26.46-26.47-11.84-26.47-26.46-26.47Zm0,38.99c-6.93,0-12.52-5.61-12.52-12.52s5.59-12.52,12.52-12.52,12.5,5.61,12.5,12.52-5.59,12.52-12.5,12.52Z"/><path class="cls-1" d="M173.76,200.25c-14.64,0-26.48-11.86-26.48-26.48s11.84-26.48,26.48-26.48,26.46,11.86,26.46,26.48-11.84,26.48-26.46,26.48Zm0-39c-6.93,0-12.52,5.61-12.52,12.52s5.59,12.52,12.52,12.52,12.5-5.61,12.5-12.52-5.59-12.52-12.5-12.52Z"/><path class="cls-1" d="M100.64,53.97c-14.64,0-26.48-11.86-26.48-26.48S86,1.01,100.64,1.01s26.46,11.86,26.46,26.48-11.84,26.48-26.46,26.48Zm0-39c-6.93,0-12.52,5.61-12.52,12.52s5.59,12.52,12.52,12.52,12.5-5.61,12.5-12.52-5.59-12.52-12.5-12.52Z"/><path class="cls-1" d="M100.64,200.25c-14.64,0-26.48-11.86-26.48-26.48s11.84-26.48,26.48-26.48,26.46,11.86,26.46,26.48-11.84,26.48-26.46,26.48Z"/><path class="cls-1" d="M27.52,161.25c-6.93,0-12.52,5.61-12.52,12.52s5.59,12.52,12.52,12.52,12.5-5.61,12.5-12.52-5.59-12.52-12.5-12.52Z"/><path class="cls-1" d="M173.76,40.01c-6.93,0-12.52-5.61-12.52-12.52s5.59-12.52,12.52-12.52,12.5,5.61,12.5,12.52-5.59,12.52-12.5,12.52Z"/><path class="cls-1" d="M27.52,1.01C12.88,1.01,1.04,12.87,1.04,27.49s11.84,26.48,26.48,26.48,26.46-11.86,26.46-26.48S42.14,1.01,27.52,1.01Z"/></svg>