<?xml version="1.0" encoding="UTF-8"?><svg id="Ebene_1" xmlns="http://www.w3.org/2000/svg" viewBox="0 0 598.11 201.26"><defs><style>.cls-1{fill:#00637f;}.cls-2{fill:#571300;}</style></defs><g><path class="cls-2" d="M30.28,91.03c-.14-1.67-.76-2.98-1.87-3.92-1.11-.94-2.8-1.41-5.06-1.41-1.44,0-2.62,.17-3.53,.51-.91,.34-1.59,.81-2.02,1.39-.44,.59-.66,1.26-.68,2.01-.03,.62,.08,1.18,.34,1.67,.26,.49,.67,.94,1.24,1.33,.57,.39,1.3,.75,2.19,1.07,.89,.32,1.94,.6,3.16,.85l4.22,.9c2.85,.6,5.28,1.4,7.31,2.39,2.03,.99,3.68,2.15,4.97,3.48,1.29,1.33,2.24,2.83,2.85,4.48,.61,1.66,.92,3.47,.94,5.43-.02,3.38-.86,6.25-2.54,8.59-1.67,2.34-4.07,4.13-7.17,5.35-3.11,1.22-6.84,1.83-11.19,1.83s-8.37-.66-11.69-1.99c-3.33-1.32-5.9-3.36-7.74-6.12-1.83-2.75-2.76-6.28-2.78-10.59H14.5c.08,1.57,.48,2.9,1.18,3.97,.7,1.07,1.7,1.88,2.98,2.44,1.28,.55,2.81,.83,4.59,.83,1.49,0,2.74-.18,3.74-.55,1-.37,1.77-.88,2.28-1.53,.52-.65,.79-1.4,.8-2.24-.02-.79-.27-1.48-.76-2.07-.5-.59-1.3-1.13-2.42-1.61-1.12-.48-2.64-.92-4.55-1.34l-5.12-1.11c-4.56-.99-8.15-2.64-10.77-4.96-2.62-2.32-3.92-5.49-3.91-9.51-.02-3.27,.86-6.13,2.63-8.58,1.77-2.45,4.22-4.37,7.36-5.74,3.14-1.37,6.75-2.06,10.82-2.06s7.74,.7,10.78,2.09c3.03,1.39,5.37,3.35,7.02,5.87,1.65,2.52,2.48,5.46,2.5,8.83h-13.36Z"/><path class="cls-2" d="M109.48,126.41v-51.45h13.97v40.2h20.8v11.26h-34.77Z"/><path class="cls-2" d="M76.64,74.15c-14.64,0-26.48,11.86-26.48,26.48s11.84,26.48,26.48,26.48,26.46-11.86,26.46-26.48-11.84-26.48-26.46-26.48Zm0,39c-6.93,0-12.52-5.61-12.52-12.52s5.59-12.52,12.52-12.52,12.5,5.61,12.5,12.52-5.59,12.52-12.5,12.52Z"/><path class="cls-2" d="M173.96,74.16c-14.64,0-26.48,11.86-26.48,26.47s11.84,26.47,26.48,26.47,26.46-11.86,26.46-26.47-11.84-26.47-26.46-26.47Zm0,38.99c-6.93,0-12.52-5.61-12.52-12.52s5.59-12.52,12.52-12.52,12.5,5.61,12.5,12.52-5.59,12.52-12.5,12.52Z"/></g><path class="cls-2" d="M100.84,53.97c-14.64,0-26.48-11.86-26.48-26.48S86.19,1.01,100.84,1.01s26.46,11.86,26.46,26.48-11.84,26.48-26.46,26.48Zm0-39c-6.93,0-12.52,5.61-12.52,12.52s5.59,12.52,12.52,12.52,12.5-5.61,12.5-12.52-5.59-12.52-12.5-12.52Z"/><path class="cls-2" d="M27.72,161.25c-6.93,0-12.52,5.61-12.52,12.52s5.59,12.52,12.52,12.52,12.5-5.61,12.5-12.52-5.59-12.52-12.5-12.52Z"/><g><g><path class="cls-1" d="M267.79,196.2c-3.62,0-6.78-.83-9.47-2.49-2.7-1.66-4.79-3.98-6.28-6.96-1.49-2.98-2.24-6.46-2.24-10.45s.75-7.5,2.24-10.5c1.49-3,3.58-5.32,6.28-6.98,2.7-1.66,5.85-2.49,9.47-2.49s6.78,.83,9.47,2.49c2.69,1.66,4.79,3.98,6.28,6.98,1.49,3,2.24,6.5,2.24,10.5s-.75,7.47-2.24,10.45c-1.49,2.98-3.59,5.3-6.28,6.96-2.7,1.66-5.85,2.49-9.47,2.49Zm.03-6.31c2.34,0,4.29-.62,5.83-1.86,1.54-1.24,2.68-2.89,3.43-4.95,.74-2.06,1.12-4.33,1.12-6.81s-.37-4.73-1.12-6.8c-.75-2.07-1.89-3.73-3.43-4.99-1.54-1.26-3.48-1.89-5.83-1.89s-4.32,.63-5.87,1.89c-1.55,1.26-2.7,2.92-3.44,4.99s-1.12,4.33-1.12,6.8,.37,4.75,1.12,6.81c.75,2.06,1.89,3.71,3.44,4.95,1.55,1.24,3.5,1.86,5.87,1.86Z"/><path class="cls-1" d="M301.31,172.51v22.91h-7.51v-38.59h7.21v6.28h.48c.89-2.04,2.28-3.68,4.18-4.93,1.9-1.24,4.3-1.86,7.2-1.86,2.63,0,4.93,.55,6.91,1.64,1.98,1.1,3.51,2.73,4.6,4.89,1.09,2.16,1.63,4.83,1.63,8.01v24.54h-7.51v-23.64c0-2.8-.73-4.99-2.19-6.57-1.46-1.58-3.46-2.37-6-2.37-1.74,0-3.29,.38-4.64,1.13-1.35,.75-2.41,1.86-3.19,3.3-.78,1.45-1.17,3.2-1.17,5.24Z"/><path class="cls-1" d="M383.71,166.25l-6.81,1.21c-.29-.87-.73-1.7-1.34-2.49-.61-.79-1.44-1.43-2.47-1.93-1.04-.5-2.34-.75-3.89-.75-2.13,0-3.9,.47-5.33,1.42-1.42,.94-2.13,2.16-2.13,3.65,0,1.29,.48,2.33,1.43,3.12,.96,.79,2.5,1.43,4.62,1.93l6.13,1.4c3.55,.82,6.19,2.09,7.94,3.8,1.74,1.71,2.61,3.93,2.61,6.66,0,2.31-.67,4.37-2,6.17-1.33,1.8-3.18,3.21-5.55,4.23-2.37,1.02-5.11,1.53-8.23,1.53-4.32,0-7.85-.93-10.57-2.78-2.73-1.85-4.41-4.48-5.02-7.9l7.26-1.11c.45,1.89,1.38,3.32,2.79,4.28,1.4,.96,3.24,1.44,5.5,1.44,2.46,0,4.43-.51,5.9-1.55,1.47-1.03,2.21-2.29,2.21-3.78,0-1.21-.45-2.22-1.34-3.04-.9-.82-2.27-1.44-4.11-1.86l-6.53-1.43c-3.6-.82-6.26-2.13-7.98-3.92-1.72-1.79-2.57-4.06-2.57-6.81,0-2.28,.64-4.27,1.91-5.98,1.27-1.71,3.03-3.04,5.28-4.01,2.24-.96,4.82-1.44,7.71-1.44,4.17,0,7.45,.9,9.85,2.7,2.4,1.8,3.98,4.21,4.75,7.22Z"/><path class="cls-1" d="M408.29,196.2c-3.62,0-6.78-.83-9.47-2.49-2.7-1.66-4.79-3.98-6.28-6.96-1.49-2.98-2.24-6.46-2.24-10.45s.75-7.5,2.24-10.5,3.58-5.32,6.28-6.98c2.7-1.66,5.85-2.49,9.47-2.49s6.78,.83,9.47,2.49c2.69,1.66,4.79,3.98,6.28,6.98,1.49,3,2.23,6.5,2.23,10.5s-.75,7.47-2.23,10.45c-1.49,2.98-3.59,5.3-6.28,6.96-2.69,1.66-5.85,2.49-9.47,2.49Zm.02-6.31c2.34,0,4.29-.62,5.83-1.86,1.54-1.24,2.68-2.89,3.43-4.95,.75-2.06,1.12-4.33,1.12-6.81s-.37-4.73-1.12-6.8c-.75-2.07-1.89-3.73-3.43-4.99-1.54-1.26-3.49-1.89-5.83-1.89s-4.32,.63-5.86,1.89c-1.55,1.26-2.7,2.92-3.44,4.99-.75,2.07-1.12,4.33-1.12,6.8s.37,4.75,1.12,6.81c.75,2.06,1.89,3.71,3.44,4.95,1.55,1.24,3.5,1.86,5.86,1.86Z"/><path class="cls-1" d="M437.92,150.88c-1.3,0-2.42-.44-3.35-1.32s-1.4-1.93-1.4-3.15,.47-2.3,1.4-3.18,2.05-1.32,3.35-1.32,2.43,.44,3.35,1.32c.93,.88,1.4,1.94,1.4,3.18s-.47,2.28-1.4,3.15c-.93,.88-2.04,1.32-3.35,1.32Zm-3.79,44.54v-38.59h7.51v38.59h-7.51Z"/><path class="cls-1" d="M458.99,143.97v51.45h-7.51v-51.45h7.51Z"/><path class="cls-1" d="M497.35,166.25l-6.81,1.21c-.29-.87-.74-1.7-1.34-2.49-.61-.79-1.44-1.43-2.47-1.93-1.04-.5-2.34-.75-3.9-.75-2.13,0-3.9,.47-5.32,1.42-1.42,.94-2.14,2.16-2.14,3.65,0,1.29,.48,2.33,1.43,3.12,.95,.79,2.5,1.43,4.62,1.93l6.13,1.4c3.55,.82,6.19,2.09,7.94,3.8,1.74,1.71,2.61,3.93,2.61,6.66,0,2.31-.66,4.37-1.99,6.17-1.33,1.8-3.18,3.21-5.55,4.23-2.37,1.02-5.11,1.53-8.23,1.53-4.32,0-7.85-.93-10.57-2.78-2.73-1.85-4.41-4.48-5.02-7.9l7.26-1.11c.45,1.89,1.38,3.32,2.79,4.28,1.4,.96,3.24,1.44,5.5,1.44,2.46,0,4.43-.51,5.9-1.55,1.47-1.03,2.21-2.29,2.21-3.78,0-1.21-.45-2.22-1.34-3.04-.9-.82-2.27-1.44-4.11-1.86l-6.53-1.43c-3.6-.82-6.26-2.13-7.98-3.92s-2.57-4.06-2.57-6.81c0-2.28,.64-4.27,1.91-5.98,1.27-1.71,3.03-3.04,5.27-4.01,2.24-.96,4.82-1.44,7.71-1.44,4.17,0,7.45,.9,9.85,2.7,2.4,1.8,3.97,4.21,4.75,7.22Z"/></g><g><path class="cls-1" d="M252.14,126.36v-51.45h31.9v6.68h-24.14v15.68h21.86v6.66h-21.86v22.43h-7.76Z"/><path class="cls-1" d="M307.63,127.14c-3.62,0-6.78-.83-9.47-2.49-2.7-1.66-4.79-3.98-6.28-6.96-1.49-2.98-2.24-6.47-2.24-10.45s.75-7.5,2.24-10.5c1.49-3,3.58-5.32,6.28-6.98,2.7-1.66,5.85-2.49,9.47-2.49s6.78,.83,9.47,2.49c2.69,1.66,4.79,3.99,6.28,6.98,1.49,3,2.24,6.5,2.24,10.5s-.75,7.47-2.24,10.45c-1.49,2.98-3.59,5.3-6.28,6.96-2.7,1.66-5.85,2.49-9.47,2.49Zm.03-6.31c2.34,0,4.29-.62,5.83-1.86,1.54-1.24,2.68-2.89,3.43-4.95,.74-2.06,1.12-4.33,1.12-6.81s-.37-4.73-1.12-6.8c-.75-2.07-1.89-3.73-3.43-4.99-1.54-1.26-3.48-1.88-5.83-1.88s-4.32,.63-5.87,1.88c-1.55,1.26-2.7,2.92-3.44,4.99-.75,2.07-1.12,4.33-1.12,6.8s.37,4.75,1.12,6.81c.75,2.06,1.89,3.71,3.44,4.95,1.55,1.24,3.5,1.86,5.87,1.86Z"/><path class="cls-1" d="M349.8,127.14c-3.62,0-6.78-.83-9.47-2.49-2.7-1.66-4.79-3.98-6.28-6.96-1.49-2.98-2.24-6.47-2.24-10.45s.75-7.5,2.24-10.5c1.49-3,3.58-5.32,6.28-6.98,2.7-1.66,5.85-2.49,9.47-2.49s6.78,.83,9.47,2.49c2.69,1.66,4.79,3.99,6.28,6.98,1.49,3,2.24,6.5,2.24,10.5s-.75,7.47-2.24,10.45c-1.49,2.98-3.59,5.3-6.28,6.96-2.7,1.66-5.85,2.49-9.47,2.49Zm.03-6.31c2.34,0,4.29-.62,5.83-1.86,1.54-1.24,2.68-2.89,3.43-4.95,.74-2.06,1.12-4.33,1.12-6.81s-.37-4.73-1.12-6.8c-.75-2.07-1.89-3.73-3.43-4.99-1.54-1.26-3.48-1.88-5.83-1.88s-4.32,.63-5.87,1.88c-1.55,1.26-2.7,2.92-3.44,4.99-.75,2.07-1.12,4.33-1.12,6.8s.37,4.75,1.12,6.81c.75,2.06,1.89,3.71,3.44,4.95,1.55,1.24,3.5,1.86,5.87,1.86Z"/><path class="cls-1" d="M392.58,87.78v6.03h-21.08v-6.03h21.08Zm-15.43-9.25h7.51v36.5c0,1.46,.22,2.55,.65,3.28s1,1.22,1.69,1.48c.7,.26,1.45,.39,2.27,.39,.6,0,1.13-.04,1.58-.13,.45-.08,.8-.15,1.05-.2l1.36,6.2c-.44,.17-1.05,.34-1.86,.52-.8,.18-1.81,.27-3.01,.29-1.98,.03-3.82-.32-5.53-1.05-1.71-.74-3.09-1.87-4.15-3.42-1.06-1.54-1.58-3.48-1.58-5.8v-38.06Z"/><path class="cls-1" d="M399.91,140.84v-53.06h7.34v6.25h.63c.44-.8,1.06-1.73,1.88-2.79,.82-1.05,1.96-1.98,3.42-2.78,1.46-.79,3.39-1.19,5.78-1.19,3.11,0,5.9,.79,8.34,2.36,2.44,1.58,4.37,3.84,5.76,6.81,1.4,2.96,2.1,6.53,2.1,10.7s-.7,7.74-2.09,10.72c-1.39,2.97-3.3,5.26-5.73,6.86-2.43,1.6-5.2,2.4-8.31,2.4-2.34,0-4.26-.39-5.74-1.18-1.48-.79-2.64-1.71-3.48-2.76-.84-1.05-1.48-1.99-1.93-2.81h-.45v20.48h-7.51Zm7.36-33.77c0,2.71,.4,5.09,1.18,7.13,.79,2.04,1.93,3.64,3.41,4.79,1.49,1.15,3.32,1.72,5.48,1.72s4.12-.6,5.62-1.8c1.51-1.2,2.65-2.83,3.43-4.89,.78-2.06,1.17-4.38,1.17-6.96s-.38-4.83-1.15-6.86c-.76-2.03-1.9-3.63-3.41-4.8-1.52-1.17-3.41-1.76-5.67-1.76s-4.02,.56-5.52,1.68c-1.5,1.12-2.63,2.69-3.4,4.7-.77,2.01-1.16,4.35-1.16,7.03Z"/><path class="cls-1" d="M443.3,126.36v-38.59h7.26v6.13h.4c.7-2.08,1.95-3.71,3.73-4.91,1.79-1.2,3.81-1.8,6.07-1.8,.47,0,1.02,.02,1.67,.05,.64,.03,1.15,.08,1.52,.12v7.19c-.3-.08-.84-.18-1.61-.29s-1.54-.16-2.31-.16c-1.77,0-3.35,.37-4.73,1.12-1.38,.75-2.47,1.78-3.28,3.09-.8,1.31-1.2,2.81-1.2,4.49v23.56h-7.51Z"/><path class="cls-1" d="M473.88,81.82c-1.3,0-2.42-.44-3.35-1.32-.93-.88-1.4-1.93-1.4-3.15s.47-2.3,1.4-3.18c.93-.88,2.05-1.32,3.35-1.32s2.43,.44,3.35,1.32c.93,.88,1.4,1.94,1.4,3.18s-.47,2.27-1.4,3.15c-.93,.88-2.04,1.32-3.35,1.32Zm-3.79,44.54v-38.59h7.51v38.59h-7.51Z"/><path class="cls-1" d="M494.92,103.45v22.91h-7.51v-38.59h7.21v6.28h.48c.88-2.04,2.28-3.68,4.18-4.92,1.9-1.24,4.3-1.86,7.2-1.86,2.63,0,4.93,.55,6.91,1.64,1.98,1.1,3.51,2.73,4.6,4.89,1.09,2.16,1.63,4.83,1.63,8.01v24.54h-7.51v-23.64c0-2.8-.73-4.99-2.18-6.57-1.46-1.58-3.46-2.37-6.01-2.37-1.74,0-3.28,.38-4.63,1.13-1.35,.75-2.41,1.86-3.19,3.3-.78,1.45-1.17,3.19-1.17,5.24Z"/><path class="cls-1" d="M546.36,87.78v6.03h-21.08v-6.03h21.08Zm-15.42-9.25h7.51v36.5c0,1.46,.22,2.55,.65,3.28,.43,.73,1,1.22,1.69,1.48,.7,.26,1.45,.39,2.27,.39,.6,0,1.13-.04,1.58-.13,.45-.08,.81-.15,1.05-.2l1.36,6.2c-.44,.17-1.05,.34-1.86,.52-.8,.18-1.81,.27-3.01,.29-1.98,.03-3.82-.32-5.53-1.05-1.71-.74-3.09-1.87-4.15-3.42-1.06-1.54-1.58-3.48-1.58-5.8v-38.06Z"/></g><path class="cls-1" d="M173.96,200.25c-14.64,0-26.48-11.86-26.48-26.48s11.84-26.48,26.48-26.48,26.46,11.86,26.46,26.48-11.84,26.48-26.46,26.48Zm0-39c-6.93,0-12.52,5.61-12.52,12.52s5.59,12.52,12.52,12.52,12.5-5.61,12.5-12.52-5.59-12.52-12.5-12.52Z"/><path class="cls-1" d="M173.96,40.01c-6.93,0-12.52-5.61-12.52-12.52s5.59-12.52,12.52-12.52,12.5,5.61,12.5,12.52-5.59,12.52-12.5,12.52Z"/><path class="cls-1" d="M100.84,200.25c-14.64,0-26.48-11.86-26.48-26.48s11.84-26.48,26.48-26.48,26.46,11.86,26.46,26.48-11.84,26.48-26.46,26.48Z"/><path class="cls-1" d="M27.72,1.01C13.08,1.01,1.24,12.87,1.24,27.49s11.84,26.48,26.48,26.48,26.46-11.86,26.46-26.48S42.34,1.01,27.72,1.01Z"/></g><g><path class="cls-2" d="M265.62,21.95c-.09-.92-.46-1.64-1.11-2.16-.66-.51-1.59-.77-2.81-.77-.8,0-1.47,.11-2.01,.31-.54,.21-.94,.5-1.21,.86-.27,.36-.41,.78-.41,1.25-.02,.38,.06,.72,.23,1.02,.17,.29,.42,.55,.76,.77,.33,.22,.73,.42,1.2,.58,.47,.17,.99,.31,1.58,.44l2.21,.5c1.27,.28,2.4,.64,3.37,1.11,.98,.46,1.8,1.01,2.46,1.64,.67,.64,1.17,1.37,1.52,2.2,.34,.83,.52,1.76,.53,2.79,0,1.62-.42,3.02-1.23,4.18-.81,1.17-1.98,2.06-3.5,2.68-1.52,.62-3.35,.93-5.49,.93s-4.03-.32-5.63-.97c-1.6-.64-2.84-1.63-3.73-2.94-.89-1.31-1.34-2.98-1.37-4.99h5.95c.05,.83,.27,1.52,.67,2.07s.94,.97,1.63,1.26c.69,.29,1.49,.43,2.4,.43,.84,0,1.55-.11,2.14-.34,.59-.23,1.05-.54,1.36-.94,.32-.4,.48-.86,.49-1.38,0-.49-.16-.9-.45-1.25-.29-.35-.74-.65-1.35-.91s-1.38-.49-2.32-.71l-2.69-.63c-2.23-.51-3.98-1.34-5.26-2.48-1.28-1.14-1.92-2.69-1.91-4.64,0-1.59,.42-2.98,1.28-4.18,.86-1.2,2.06-2.13,3.58-2.8,1.52-.67,3.26-1,5.21-1s3.73,.34,5.2,1.01c1.47,.67,2.61,1.62,3.42,2.83,.81,1.22,1.23,2.62,1.24,4.22h-5.95Z"/><path class="cls-2" d="M300.24,27.1c0,2.83-.54,5.23-1.63,7.2-1.09,1.97-2.56,3.46-4.41,4.48-1.86,1.02-3.93,1.53-6.24,1.53s-4.39-.51-6.24-1.54c-1.85-1.03-3.32-2.53-4.4-4.49-1.08-1.96-1.63-4.36-1.63-7.18s.54-5.23,1.63-7.2c1.08-1.97,2.55-3.46,4.4-4.48,1.85-1.02,3.93-1.53,6.24-1.53s4.38,.51,6.24,1.53c1.85,1.02,3.33,2.51,4.41,4.48,1.09,1.97,1.63,4.37,1.63,7.2Zm-6.36,0c0-1.67-.24-3.09-.71-4.24-.47-1.16-1.15-2.03-2.04-2.63-.88-.59-1.94-.89-3.18-.89s-2.29,.3-3.18,.89c-.89,.59-1.57,1.47-2.04,2.63-.47,1.15-.71,2.57-.71,4.24s.24,3.09,.71,4.25c.47,1.16,1.15,2.03,2.04,2.63,.89,.59,1.95,.89,3.18,.89s2.3-.3,3.18-.89c.88-.59,1.56-1.47,2.04-2.63,.47-1.16,.71-2.57,.71-4.25Z"/><path class="cls-2" d="M310.96,14.24v25.73h-6.22V14.24h6.22Z"/><path class="cls-2" d="M315.74,39.97V14.24h6.22v20.68h10.7v5.05h-16.92Z"/><path class="cls-2" d="M350.67,21.95c-.09-.92-.46-1.64-1.11-2.16-.66-.51-1.59-.77-2.81-.77-.8,0-1.47,.11-2.01,.31-.54,.21-.94,.5-1.21,.86-.27,.36-.41,.78-.41,1.25-.02,.38,.06,.72,.23,1.02,.17,.29,.42,.55,.76,.77,.33,.22,.73,.42,1.2,.58,.47,.17,.99,.31,1.58,.44l2.21,.5c1.27,.28,2.4,.64,3.37,1.11,.98,.46,1.8,1.01,2.46,1.64,.67,.64,1.17,1.37,1.52,2.2s.52,1.76,.53,2.79c0,1.62-.42,3.02-1.23,4.18-.81,1.17-1.98,2.06-3.5,2.68-1.52,.62-3.35,.93-5.49,.93s-4.03-.32-5.63-.97c-1.6-.64-2.84-1.63-3.73-2.94-.89-1.31-1.34-2.98-1.37-4.99h5.95c.05,.83,.27,1.52,.67,2.07,.39,.55,.94,.97,1.63,1.26,.69,.29,1.49,.43,2.4,.43,.84,0,1.55-.11,2.14-.34,.59-.23,1.05-.54,1.36-.94,.32-.4,.48-.86,.49-1.38,0-.49-.16-.9-.45-1.25-.29-.35-.74-.65-1.35-.91s-1.38-.49-2.32-.71l-2.69-.63c-2.23-.51-3.98-1.34-5.26-2.48-1.28-1.14-1.92-2.69-1.91-4.64,0-1.59,.42-2.98,1.28-4.18,.86-1.2,2.06-2.13,3.58-2.8,1.52-.67,3.26-1,5.21-1s3.73,.34,5.2,1.01c1.47,.67,2.61,1.62,3.42,2.83,.81,1.22,1.23,2.62,1.24,4.22h-5.95Z"/><path class="cls-2" d="M369.51,39.97V14.24h17.56v5.05h-11.34v5.27h10.22v5.06h-10.22v10.34h-6.22Z"/><path class="cls-2" d="M415.35,27.1c0,2.83-.54,5.23-1.63,7.2-1.09,1.97-2.56,3.46-4.42,4.48-1.86,1.02-3.93,1.53-6.24,1.53s-4.39-.51-6.24-1.54c-1.85-1.03-3.32-2.53-4.4-4.49-1.08-1.96-1.63-4.36-1.63-7.18s.54-5.23,1.63-7.2c1.08-1.97,2.55-3.46,4.4-4.48,1.85-1.02,3.93-1.53,6.24-1.53s4.38,.51,6.24,1.53c1.86,1.02,3.33,2.51,4.42,4.48,1.09,1.97,1.63,4.37,1.63,7.2Zm-6.36,0c0-1.67-.23-3.09-.71-4.24-.47-1.16-1.15-2.03-2.04-2.63-.88-.59-1.94-.89-3.18-.89s-2.29,.3-3.18,.89c-.89,.59-1.57,1.47-2.04,2.63-.47,1.15-.71,2.57-.71,4.24s.24,3.09,.71,4.25c.47,1.16,1.15,2.03,2.04,2.63,.89,.59,1.95,.89,3.18,.89s2.3-.3,3.18-.89c.88-.59,1.56-1.47,2.04-2.63,.47-1.16,.71-2.57,.71-4.25Z"/><path class="cls-2" d="M419.85,39.97V14.24h10.63c1.93,0,3.59,.35,4.99,1.04,1.4,.69,2.48,1.68,3.25,2.96,.76,1.29,1.14,2.81,1.14,4.57s-.39,3.3-1.17,4.54c-.78,1.24-1.88,2.19-3.32,2.84-1.43,.65-3.13,.97-5.08,.97h-6.72v-4.9h5.56c.94,0,1.72-.12,2.35-.37,.64-.25,1.11-.62,1.44-1.13,.32-.51,.49-1.16,.49-1.95s-.17-1.46-.49-1.98c-.33-.52-.81-.92-1.45-1.18-.64-.26-1.42-.4-2.35-.4h-3.07v20.71h-6.22Zm14.49-11.76l6.41,11.76h-6.78l-6.28-11.76h6.66Z"/><path class="cls-2" d="M452.65,39.97V14.24h17.94v5.05h-11.72v5.27h10.8v5.06h-10.8v5.29h11.72v5.05h-17.94Z"/><path class="cls-2" d="M490.92,14.24h6.2V30.83c0,1.92-.46,3.59-1.37,5.01-.91,1.42-2.18,2.52-3.82,3.29-1.64,.77-3.53,1.16-5.69,1.16s-4.1-.39-5.73-1.16c-1.64-.77-2.9-1.87-3.8-3.29-.91-1.42-1.36-3.09-1.36-5.01V14.24h6.22V30.3c0,.89,.19,1.68,.58,2.37,.39,.7,.93,1.24,1.64,1.63,.7,.39,1.52,.59,2.45,.59s1.74-.2,2.44-.59c.7-.39,1.24-.94,1.64-1.63,.39-.7,.59-1.49,.59-2.37V14.24Z"/><path class="cls-2" d="M501.9,39.97V14.24h10.63c1.93,0,3.59,.35,4.99,1.04,1.4,.69,2.48,1.68,3.25,2.96,.76,1.29,1.14,2.81,1.14,4.57s-.39,3.3-1.17,4.54c-.78,1.24-1.88,2.19-3.32,2.84-1.43,.65-3.13,.97-5.08,.97h-6.72v-4.9h5.56c.94,0,1.72-.12,2.35-.37,.64-.25,1.11-.62,1.44-1.13,.32-.51,.49-1.16,.49-1.95s-.17-1.46-.49-1.98c-.33-.52-.81-.92-1.45-1.18-.64-.26-1.42-.4-2.35-.4h-3.07v20.71h-6.22Zm14.49-11.76l6.41,11.76h-6.78l-6.28-11.76h6.66Z"/><path class="cls-2" d="M550.49,27.1c0,2.83-.54,5.23-1.63,7.2-1.09,1.97-2.56,3.46-4.42,4.48-1.86,1.02-3.93,1.53-6.24,1.53s-4.39-.51-6.24-1.54c-1.85-1.03-3.32-2.53-4.4-4.49-1.09-1.96-1.63-4.36-1.63-7.18s.54-5.23,1.63-7.2c1.08-1.97,2.55-3.46,4.4-4.48,1.85-1.02,3.93-1.53,6.24-1.53s4.38,.51,6.24,1.53c1.86,1.02,3.33,2.51,4.42,4.48,1.09,1.97,1.63,4.37,1.63,7.2Zm-6.36,0c0-1.67-.23-3.09-.71-4.24-.47-1.16-1.15-2.03-2.04-2.63-.88-.59-1.94-.89-3.18-.89s-2.29,.3-3.18,.89-1.57,1.47-2.04,2.63c-.47,1.15-.71,2.57-.71,4.24s.23,3.09,.71,4.25c.47,1.16,1.15,2.03,2.04,2.63,.89,.59,1.95,.89,3.18,.89s2.3-.3,3.18-.89c.88-.59,1.56-1.47,2.04-2.63,.47-1.16,.71-2.57,.71-4.25Z"/><path class="cls-2" d="M554.99,39.97V14.24h10.63c1.93,0,3.59,.38,4.99,1.12,1.4,.75,2.48,1.79,3.25,3.13,.76,1.34,1.14,2.89,1.14,4.65s-.39,3.33-1.16,4.65c-.77,1.33-1.88,2.36-3.31,3.08-1.43,.73-3.13,1.09-5.1,1.09h-6.56v-4.9h5.4c.94,0,1.72-.16,2.35-.49,.64-.33,1.11-.79,1.44-1.38,.32-.59,.49-1.28,.49-2.07s-.17-1.48-.49-2.07c-.33-.58-.81-1.03-1.45-1.35-.64-.32-1.42-.48-2.35-.48h-3.07v20.71h-6.22Z"/><path class="cls-2" d="M578.93,39.97V14.24h17.94v5.05h-11.72v5.27h10.81v5.06h-10.81v5.29h11.72v5.05h-17.94Z"/></g></svg>