<?xml version="1.0" encoding="utf-8"?>
<!-- Generator: Adobe Illustrator 28.0.0, SVG Export Plug-In . SVG Version: 6.00 Build 0)  -->
<svg version="1.1" id="Ebene_1" xmlns="http://www.w3.org/2000/svg" xmlns:xlink="http://www.w3.org/1999/xlink" x="0px" y="0px"
	 viewBox="0 0 598.1 209.8" style="enable-background:new 0 0 598.1 209.8;" xml:space="preserve">
<style type="text/css">
	.st0{fill:#571300;}
	.st1{fill:#7F787F;}
</style>
<g>
	<path class="st0" d="M30.3,90.5c-0.1-1.7-0.8-3-1.9-3.9c-1.1-0.9-2.8-1.4-5.1-1.4c-1.4,0-2.6,0.2-3.5,0.5s-1.6,0.8-2,1.4
		c-0.4,0.6-0.7,1.3-0.7,2c0,0.6,0.1,1.2,0.3,1.7s0.7,0.9,1.2,1.3s1.3,0.8,2.2,1.1c0.9,0.3,1.9,0.6,3.2,0.8l4.2,0.9
		c2.9,0.6,5.3,1.4,7.3,2.4c2,1,3.7,2.2,5,3.5s2.2,2.8,2.8,4.5c0.6,1.7,0.9,3.5,0.9,5.4c0,3.4-0.9,6.2-2.5,8.6
		c-1.7,2.3-4.1,4.1-7.2,5.3c-3.1,1.2-6.8,1.8-11.2,1.8s-8.4-0.7-11.7-2c-3.3-1.3-5.9-3.4-7.7-6.1c-1.8-2.8-2.8-6.3-2.8-10.6h13.3
		c0.1,1.6,0.5,2.9,1.2,4s1.7,1.9,3,2.4c1.3,0.6,2.8,0.8,4.6,0.8c1.5,0,2.7-0.2,3.7-0.6s1.8-0.9,2.3-1.5c0.5-0.7,0.8-1.4,0.8-2.2
		c0-0.8-0.3-1.5-0.8-2.1c-0.5-0.6-1.3-1.1-2.4-1.6c-1.1-0.5-2.6-0.9-4.6-1.3l-5.1-1.1c-4.6-1-8.1-2.6-10.8-5S2.5,94.1,2.5,90
		c0-3.3,0.9-6.1,2.6-8.6c1.8-2.4,4.2-4.4,7.4-5.7c3.1-1.4,6.8-2.1,10.8-2.1s7.7,0.7,10.8,2.1c3,1.4,5.4,3.3,7,5.9
		c1.7,2.5,2.5,5.5,2.5,8.8L30.3,90.5L30.3,90.5z"/>
	<path class="st0" d="M109.5,125.8V74.4h14v40.2h20.8v11.3L109.5,125.8L109.5,125.8z"/>
	<path class="st0" d="M76.6,73.6c-14.6,0-26.5,11.9-26.5,26.5s11.8,26.5,26.5,26.5s26.5-11.9,26.5-26.5S91.2,73.6,76.6,73.6z
		 M76.6,112.6c-6.9,0-12.5-5.6-12.5-12.5s5.6-12.5,12.5-12.5s12.5,5.6,12.5,12.5S83.5,112.6,76.6,112.6z"/>
	<path class="st0" d="M173.9,73.6c-14.6,0-26.5,11.9-26.5,26.5s11.8,26.5,26.5,26.5s26.5-11.9,26.5-26.5S188.6,73.6,173.9,73.6
		L173.9,73.6z M173.9,112.6c-6.9,0-12.5-5.6-12.5-12.5s5.6-12.5,12.5-12.5s12.5,5.6,12.5,12.5S180.9,112.6,173.9,112.6z"/>
</g>
<path class="st0" d="M100.8,53.4c-14.6,0-26.5-11.9-26.5-26.5S86.2,0.4,100.8,0.4s26.5,11.9,26.5,26.5S115.4,53.4,100.8,53.4z
	 M100.8,14.4c-6.9,0-12.5,5.6-12.5,12.5s5.6,12.5,12.5,12.5s12.5-5.6,12.5-12.5S107.7,14.4,100.8,14.4z"/>
<path class="st0" d="M27.7,160.7c-6.9,0-12.5,5.6-12.5,12.5s5.6,12.5,12.5,12.5s12.5-5.6,12.5-12.5S34.6,160.7,27.7,160.7z"/>
<g>
	<g>
		<path class="st1" d="M251.5,209.3v-53.1h7.3v6.2h0.6c0.4-0.8,1.1-1.7,1.9-2.8c0.8-1.1,2-2,3.4-2.8c1.5-0.8,3.4-1.2,5.8-1.2
			c3.1,0,5.9,0.8,8.3,2.4c2.4,1.6,4.4,3.8,5.8,6.8c1.4,3,2.1,6.5,2.1,10.7s-0.7,7.7-2.1,10.7c-1.4,3-3.3,5.3-5.7,6.9
			c-2.4,1.6-5.2,2.4-8.3,2.4c-2.4,0-4.3-0.4-5.7-1.2c-1.5-0.8-2.6-1.7-3.5-2.8c-0.8-1.1-1.5-2-1.9-2.8h-0.5v20.5L251.5,209.3
			L251.5,209.3z M258.9,175.6c0,2.7,0.4,5.1,1.2,7.1c0.8,2.1,1.9,3.6,3.4,4.8c1.5,1.1,3.3,1.7,5.5,1.7s4.1-0.6,5.6-1.8
			s2.6-2.8,3.4-4.9s1.2-4.4,1.2-7s-0.4-4.8-1.1-6.9s-1.9-3.6-3.4-4.8c-1.5-1.2-3.4-1.8-5.7-1.8s-4,0.6-5.5,1.7s-2.6,2.7-3.4,4.7
			S258.9,172.9,258.9,175.6L258.9,175.6z"/>
		<path class="st1" d="M294.9,194.9v-38.6h7.3v6.1h0.4c0.7-2.1,2-3.7,3.7-4.9s3.8-1.8,6.1-1.8c0.5,0,1,0,1.7,0.1
			c0.6,0,1.1,0.1,1.5,0.1v7.2c-0.3-0.1-0.8-0.2-1.6-0.3s-1.5-0.2-2.3-0.2c-1.8,0-3.4,0.4-4.7,1.1s-2.5,1.8-3.3,3.1s-1.2,2.8-1.2,4.5
			v23.6H294.9L294.9,194.9z"/>
		<path class="st1" d="M337.8,195.6c-3.8,0-7.1-0.8-9.8-2.4c-2.7-1.6-4.9-3.9-6.3-6.9c-1.5-3-2.2-6.5-2.2-10.5s0.7-7.4,2.2-10.4
			s3.6-5.4,6.2-7.1s5.8-2.5,9.4-2.5c2.2,0,4.3,0.4,6.3,1.1c2,0.7,3.9,1.9,5.5,3.4s2.9,3.5,3.8,6c0.9,2.4,1.4,5.4,1.4,8.9v2.7h-30.7
			v-5.6H347c0-2-0.4-3.7-1.2-5.3c-0.8-1.5-1.9-2.7-3.4-3.6s-3.1-1.3-5.1-1.3c-2.1,0-4,0.5-5.5,1.6c-1.6,1-2.8,2.4-3.6,4
			c-0.9,1.6-1.3,3.4-1.3,5.4v4.4c0,2.6,0.5,4.8,1.4,6.6s2.2,3.2,3.8,4.1c1.6,0.9,3.6,1.4,5.8,1.4c1.4,0,2.7-0.2,3.9-0.6s2.2-1,3-1.9
			s1.5-1.8,2-3l7.1,1.3c-0.6,2.1-1.6,3.9-3,5.5c-1.5,1.6-3.3,2.8-5.5,3.6S340.6,195.6,337.8,195.6L337.8,195.6z"/>
		<path class="st1" d="M393.7,156.3l-14,38.6h-8l-14-38.6h8.1l9.8,29.7h0.4l9.8-29.7H393.7L393.7,156.3z"/>
		<path class="st1" d="M415.1,195.6c-3.8,0-7.1-0.8-9.8-2.4c-2.7-1.6-4.9-3.9-6.3-6.9c-1.5-3-2.2-6.5-2.2-10.5s0.7-7.4,2.2-10.4
			s3.6-5.4,6.2-7.1s5.8-2.5,9.4-2.5c2.2,0,4.3,0.4,6.3,1.1s3.9,1.9,5.5,3.4s2.9,3.5,3.8,6c0.9,2.4,1.4,5.4,1.4,8.9v2.7H401v-5.6
			h23.3c0-2-0.4-3.7-1.2-5.3c-0.8-1.5-1.9-2.7-3.4-3.6s-3.1-1.3-5.1-1.3c-2.1,0-4,0.5-5.5,1.6c-1.6,1-2.8,2.4-3.6,4
			c-0.9,1.6-1.3,3.4-1.3,5.4v4.4c0,2.6,0.5,4.8,1.4,6.6c0.9,1.8,2.2,3.2,3.8,4.1c1.6,0.9,3.6,1.4,5.8,1.4c1.4,0,2.7-0.2,3.9-0.6
			c1.2-0.4,2.2-1,3-1.9c0.9-0.8,1.5-1.8,2-3l7.1,1.3c-0.6,2.1-1.6,3.9-3,5.5s-3.3,2.8-5.5,3.6C420.4,195.2,417.9,195.6,415.1,195.6
			L415.1,195.6z"/>
		<path class="st1" d="M497.7,156.3v6h-21.1v-6H497.7z M482.3,147h7.5v36.5c0,1.5,0.2,2.6,0.6,3.3c0.4,0.7,1,1.2,1.7,1.5
			c0.7,0.3,1.5,0.4,2.3,0.4c0.6,0,1.1,0,1.6-0.1c0.5-0.1,0.8-0.1,1-0.2l1.4,6.2c-0.4,0.2-1,0.3-1.9,0.5c-0.8,0.2-1.8,0.3-3,0.3
			c-2,0-3.8-0.3-5.5-1.1c-1.7-0.7-3.1-1.9-4.1-3.4c-1-1.5-1.6-3.5-1.6-5.8L482.3,147L482.3,147z"/>
		<path class="st1" d="M508.8,150.3c-1.3,0-2.4-0.4-3.4-1.3s-1.4-1.9-1.4-3.1s0.5-2.3,1.4-3.2c0.9-0.9,2-1.3,3.4-1.3
			s2.4,0.4,3.4,1.3c0.9,0.9,1.4,1.9,1.4,3.2s-0.5,2.3-1.4,3.1C511.2,149.9,510.1,150.3,508.8,150.3z M505,194.9v-38.6h7.5v38.6H505z
			"/>
		<path class="st1" d="M538.3,195.6c-3.6,0-6.8-0.8-9.5-2.5c-2.7-1.7-4.8-4-6.3-7c-1.5-3-2.2-6.5-2.2-10.4s0.8-7.5,2.2-10.5
			c1.5-3,3.6-5.3,6.3-7c2.7-1.7,5.9-2.5,9.5-2.5s6.8,0.8,9.5,2.5s4.8,4,6.3,7c1.5,3,2.2,6.5,2.2,10.5s-0.8,7.5-2.2,10.4
			s-3.6,5.3-6.3,7C545.1,194.8,541.9,195.6,538.3,195.6L538.3,195.6z M538.3,189.3c2.3,0,4.3-0.6,5.8-1.9c1.5-1.2,2.7-2.9,3.4-4.9
			s1.1-4.3,1.1-6.8s-0.4-4.7-1.1-6.8c-0.8-2.1-1.9-3.7-3.4-5c-1.5-1.3-3.5-1.9-5.8-1.9s-4.3,0.6-5.9,1.9c-1.5,1.3-2.7,2.9-3.4,5
			s-1.1,4.3-1.1,6.8s0.4,4.8,1.1,6.8s1.9,3.7,3.4,4.9S536,189.3,538.3,189.3z"/>
		<path class="st1" d="M571.8,171.9v22.9h-7.5v-38.6h7.2v6.3h0.5c0.9-2,2.3-3.7,4.2-4.9c1.9-1.2,4.3-1.9,7.2-1.9
			c2.6,0,4.9,0.6,6.9,1.6c2,1.1,3.5,2.7,4.6,4.9c1.1,2.2,1.6,4.8,1.6,8v24.5H589v-23.6c0-2.8-0.7-5-2.2-6.6s-3.5-2.4-6-2.4
			c-1.7,0-3.3,0.4-4.6,1.1c-1.3,0.8-2.4,1.9-3.2,3.3C572.2,168.1,571.8,169.9,571.8,171.9L571.8,171.9z"/>
		<path class="st1" d="M447.2,171.9v22.9h-7.5v-38.6h7.2v6.3h0.5c0.9-2,2.3-3.7,4.2-4.9c1.9-1.2,4.3-1.9,7.2-1.9
			c2.6,0,4.9,0.6,6.9,1.6c2,1.1,3.5,2.7,4.6,4.9c1.1,2.2,1.6,4.8,1.6,8v24.5h-7.5v-23.6c0-2.8-0.7-5-2.2-6.6s-3.5-2.4-6-2.4
			c-1.7,0-3.3,0.4-4.6,1.1c-1.3,0.8-2.4,1.9-3.2,3.3C447.6,168.1,447.2,169.9,447.2,171.9L447.2,171.9z"/>
	</g>
	<g>
		<path class="st1" d="M252.1,125.8V74.4h32.3V81h-24.5v15.7h22.8v6.7h-22.8v15.8h24.8v6.7L252.1,125.8L252.1,125.8z"/>
		<path class="st1" d="M293.2,125.8V87.2h7.3v6.1h0.4c0.7-2.1,2-3.7,3.7-4.9s3.8-1.8,6.1-1.8c0.5,0,1,0,1.7,0.1
			c0.6,0,1.1,0.1,1.5,0.1V94c-0.3-0.1-0.8-0.2-1.6-0.3s-1.5-0.2-2.3-0.2c-1.8,0-3.4,0.4-4.7,1.1s-2.5,1.8-3.3,3.1
			c-0.8,1.3-1.2,2.8-1.2,4.5v23.6L293.2,125.8L293.2,125.8z"/>
		<path class="st1" d="M335.8,126.6c-3.6,0-6.8-0.8-9.5-2.5c-2.7-1.7-4.8-4-6.3-7c-1.5-3-2.2-6.5-2.2-10.4s0.8-7.5,2.2-10.5
			s3.6-5.3,6.3-7s5.9-2.5,9.5-2.5s6.8,0.8,9.5,2.5c2.7,1.7,4.8,4,6.3,7c1.5,3,2.2,6.5,2.2,10.5s-0.8,7.5-2.2,10.4s-3.6,5.3-6.3,7
			C342.5,125.7,339.4,126.6,335.8,126.6z M335.8,120.3c2.3,0,4.3-0.6,5.8-1.9c1.5-1.2,2.7-2.9,3.4-4.9c0.7-2.1,1.1-4.3,1.1-6.8
			s-0.4-4.7-1.1-6.8s-1.9-3.7-3.4-5c-1.5-1.3-3.5-1.9-5.8-1.9s-4.3,0.6-5.9,1.9s-2.7,2.9-3.4,5c-0.8,2.1-1.1,4.3-1.1,6.8
			s0.4,4.8,1.1,6.8s1.9,3.7,3.4,4.9S333.4,120.3,335.8,120.3z"/>
		<path class="st1" d="M390,96.6l-6.8,1.2c-0.3-0.9-0.7-1.7-1.3-2.5s-1.4-1.4-2.5-1.9c-1-0.5-2.3-0.8-3.9-0.8
			c-2.1,0-3.9,0.5-5.3,1.4c-1.4,0.9-2.1,2.2-2.1,3.7c0,1.3,0.5,2.3,1.4,3.1c1,0.8,2.5,1.4,4.6,1.9l6.1,1.4c3.5,0.8,6.2,2.1,7.9,3.8
			c1.7,1.7,2.6,3.9,2.6,6.7c0,2.3-0.7,4.4-2,6.2c-1.3,1.8-3.2,3.2-5.5,4.2c-2.4,1-5.1,1.5-8.2,1.5c-4.3,0-7.9-0.9-10.6-2.8
			c-2.7-1.8-4.4-4.5-5-7.9l7.3-1.1c0.5,1.9,1.4,3.3,2.8,4.3c1.4,1,3.2,1.4,5.5,1.4c2.5,0,4.4-0.5,5.9-1.6c1.5-1,2.2-2.3,2.2-3.8
			c0-1.2-0.5-2.2-1.3-3c-0.9-0.8-2.3-1.4-4.1-1.9l-6.5-1.4c-3.6-0.8-6.3-2.1-8-3.9s-2.6-4.1-2.6-6.8c0-2.3,0.6-4.3,1.9-6
			c1.3-1.7,3-3,5.3-4c2.2-1,4.8-1.4,7.7-1.4c4.2,0,7.5,0.9,9.9,2.7C387.7,91.2,389.2,93.6,390,96.6L390,96.6z"/>
		<path class="st1" d="M402.3,81.2c-1.3,0-2.4-0.4-3.4-1.3c-0.9-0.9-1.4-1.9-1.4-3.2s0.5-2.3,1.4-3.2s2-1.3,3.4-1.3s2.4,0.4,3.4,1.3
			c0.9,0.9,1.4,1.9,1.4,3.2s-0.5,2.3-1.4,3.2C404.8,80.8,403.6,81.2,402.3,81.2z M398.5,125.8V87.2h7.5v38.6
			C406.1,125.8,398.5,125.8,398.5,125.8z"/>
		<path class="st1" d="M431.8,126.6c-3.6,0-6.8-0.8-9.5-2.5c-2.7-1.7-4.8-4-6.3-7c-1.5-3-2.2-6.5-2.2-10.4s0.8-7.5,2.2-10.5
			s3.6-5.3,6.3-7s5.9-2.5,9.5-2.5s6.8,0.8,9.5,2.5c2.7,1.7,4.8,4,6.3,7c1.5,3,2.2,6.5,2.2,10.5s-0.8,7.5-2.2,10.4
			c-1.5,3-3.6,5.3-6.3,7C438.6,125.7,435.4,126.6,431.8,126.6z M431.8,120.3c2.3,0,4.3-0.6,5.8-1.9c1.5-1.2,2.7-2.9,3.4-4.9
			s1.1-4.3,1.1-6.8s-0.4-4.7-1.1-6.8s-1.9-3.7-3.4-5c-1.5-1.3-3.5-1.9-5.8-1.9s-4.3,0.6-5.9,1.9c-1.5,1.3-2.7,2.9-3.5,5
			s-1.1,4.3-1.1,6.8s0.4,4.8,1.1,6.8c0.8,2.1,1.9,3.7,3.5,4.9C427.5,119.6,429.5,120.3,431.8,120.3z"/>
		<path class="st1" d="M465.3,102.9v22.9h-7.5V87.2h7.2v6.3h0.5c0.9-2.1,2.3-3.7,4.2-4.9c1.9-1.2,4.3-1.9,7.2-1.9
			c2.6,0,4.9,0.6,6.9,1.6c2,1.1,3.5,2.7,4.6,4.9c1.1,2.2,1.6,4.8,1.6,8v24.5h-7.5v-23.6c0-2.8-0.7-5-2.2-6.6s-3.5-2.4-6-2.4
			c-1.7,0-3.3,0.4-4.6,1.1c-1.3,0.8-2.4,1.9-3.2,3.3S465.3,100.8,465.3,102.9L465.3,102.9z"/>
	</g>
	<path class="st1" d="M173.9,199.7c-14.6,0-26.5-11.9-26.5-26.5s11.8-26.5,26.5-26.5s26.5,11.9,26.5,26.5S188.6,199.7,173.9,199.7
		L173.9,199.7z M173.9,160.7c-6.9,0-12.5,5.6-12.5,12.5s5.6,12.5,12.5,12.5s12.5-5.6,12.5-12.5S180.9,160.7,173.9,160.7z"/>
	<path class="st1" d="M173.9,39.4c-6.9,0-12.5-5.6-12.5-12.5s5.6-12.5,12.5-12.5s12.5,5.6,12.5,12.5S180.9,39.4,173.9,39.4z"/>
	<path class="st1" d="M100.8,199.7c-14.6,0-26.5-11.9-26.5-26.5s11.8-26.5,26.5-26.5s26.5,11.9,26.5,26.5S115.4,199.7,100.8,199.7z"
		/>
	<path class="st1" d="M27.7,0.4C13.1,0.4,1.2,12.3,1.2,26.9s11.8,26.5,26.5,26.5s26.5-11.9,26.5-26.5S42.3,0.4,27.7,0.4z"/>
</g>
<g>
	<path class="st0" d="M265.6,21.4c-0.1-0.9-0.5-1.6-1.1-2.2c-0.7-0.5-1.6-0.8-2.8-0.8c-0.8,0-1.5,0.1-2,0.3
		c-0.5,0.2-0.9,0.5-1.2,0.9s-0.4,0.8-0.4,1.2c0,0.4,0.1,0.7,0.2,1c0.2,0.3,0.4,0.5,0.8,0.8c0.3,0.2,0.7,0.4,1.2,0.6
		c0.5,0.2,1,0.3,1.6,0.4l2.2,0.5c1.3,0.3,2.4,0.6,3.4,1.1c1,0.5,1.8,1,2.5,1.6c0.7,0.6,1.2,1.4,1.5,2.2c0.3,0.8,0.5,1.8,0.5,2.8
		c0,1.6-0.4,3-1.2,4.2c-0.8,1.2-2,2.1-3.5,2.7s-3.4,0.9-5.5,0.9s-4-0.3-5.6-1c-1.6-0.6-2.8-1.6-3.7-2.9c-0.9-1.3-1.3-3-1.4-5h5.9
		c0,0.8,0.3,1.5,0.7,2.1c0.4,0.5,0.9,1,1.6,1.3c0.7,0.3,1.5,0.4,2.4,0.4c0.8,0,1.5-0.1,2.1-0.3c0.6-0.2,1-0.5,1.4-0.9
		c0.3-0.4,0.5-0.9,0.5-1.4c0-0.5-0.2-0.9-0.5-1.2s-0.7-0.6-1.4-0.9s-1.4-0.5-2.3-0.7l-2.7-0.6c-2.2-0.5-4-1.3-5.3-2.5
		s-1.9-2.7-1.9-4.6c0-1.6,0.4-3,1.3-4.2s2.1-2.1,3.6-2.8c1.5-0.7,3.3-1,5.2-1s3.7,0.3,5.2,1s2.6,1.6,3.4,2.8
		c0.8,1.2,1.2,2.6,1.2,4.2L265.6,21.4L265.6,21.4z"/>
	<path class="st0" d="M300.2,26.5c0,2.8-0.5,5.2-1.6,7.2s-2.6,3.5-4.4,4.5c-1.9,1-3.9,1.5-6.2,1.5s-4.4-0.5-6.2-1.5
		c-1.9-1-3.3-2.5-4.4-4.5s-1.6-4.4-1.6-7.2s0.5-5.2,1.6-7.2c1.1-2,2.5-3.5,4.4-4.5s3.9-1.5,6.2-1.5s4.4,0.5,6.2,1.5
		c1.9,1,3.3,2.5,4.4,4.5C299.7,21.3,300.2,23.7,300.2,26.5z M293.9,26.5c0-1.7-0.2-3.1-0.7-4.2c-0.5-1.2-1.1-2-2-2.6
		c-0.9-0.6-1.9-0.9-3.2-0.9s-2.3,0.3-3.2,0.9c-0.9,0.6-1.6,1.5-2,2.6c-0.5,1.1-0.7,2.6-0.7,4.2s0.2,3.1,0.7,4.2s1.1,2,2,2.6
		c0.9,0.6,2,0.9,3.2,0.9s2.3-0.3,3.2-0.9s1.6-1.5,2-2.6C293.6,29.6,293.9,28.2,293.9,26.5z"/>
	<path class="st0" d="M311,13.7v25.7h-6.2V13.7H311z"/>
	<path class="st0" d="M315.7,39.4V13.7h6.2v20.7h10.7v5C332.7,39.4,315.7,39.4,315.7,39.4z"/>
	<path class="st0" d="M350.7,21.4c-0.1-0.9-0.5-1.6-1.1-2.2c-0.7-0.5-1.6-0.8-2.8-0.8c-0.8,0-1.5,0.1-2,0.3
		c-0.5,0.2-0.9,0.5-1.2,0.9s-0.4,0.8-0.4,1.2c0,0.4,0.1,0.7,0.2,1c0.2,0.3,0.4,0.5,0.8,0.8c0.3,0.2,0.7,0.4,1.2,0.6
		c0.5,0.2,1,0.3,1.6,0.4l2.2,0.5c1.3,0.3,2.4,0.6,3.4,1.1c1,0.5,1.8,1,2.5,1.6c0.7,0.6,1.2,1.4,1.5,2.2c0.3,0.8,0.5,1.8,0.5,2.8
		c0,1.6-0.4,3-1.2,4.2c-0.8,1.2-2,2.1-3.5,2.7s-3.4,0.9-5.5,0.9s-4-0.3-5.6-1c-1.6-0.6-2.8-1.6-3.7-2.9c-0.9-1.3-1.3-3-1.4-5h6
		c0,0.8,0.3,1.5,0.7,2.1s0.9,1,1.6,1.3c0.7,0.3,1.5,0.4,2.4,0.4c0.8,0,1.5-0.1,2.1-0.3c0.6-0.2,1-0.5,1.4-0.9
		c0.3-0.4,0.5-0.9,0.5-1.4c0-0.5-0.2-0.9-0.5-1.2s-0.7-0.6-1.4-0.9c-0.6-0.3-1.4-0.5-2.3-0.7l-2.7-0.6c-2.2-0.5-4-1.3-5.3-2.5
		s-1.9-2.7-1.9-4.6c0-1.6,0.4-3,1.3-4.2s2.1-2.1,3.6-2.8s3.3-1,5.2-1s3.7,0.3,5.2,1s2.6,1.6,3.4,2.8c0.8,1.2,1.2,2.6,1.2,4.2
		L350.7,21.4L350.7,21.4z"/>
	<path class="st0" d="M369.5,39.4V13.7h17.6v5.1h-11.3V24H386v5.1h-10.2v10.3L369.5,39.4L369.5,39.4z"/>
	<path class="st0" d="M415.4,26.5c0,2.8-0.5,5.2-1.6,7.2s-2.6,3.5-4.4,4.5c-1.9,1-3.9,1.5-6.2,1.5s-4.4-0.5-6.2-1.5
		c-1.9-1-3.3-2.5-4.4-4.5s-1.6-4.4-1.6-7.2s0.5-5.2,1.6-7.2c1.1-2,2.5-3.5,4.4-4.5s3.9-1.5,6.2-1.5s4.4,0.5,6.2,1.5s3.3,2.5,4.4,4.5
		C414.8,21.3,415.4,23.7,415.4,26.5z M409,26.5c0-1.7-0.2-3.1-0.7-4.2c-0.5-1.2-1.1-2-2-2.6c-0.9-0.6-1.9-0.9-3.2-0.9
		s-2.3,0.3-3.2,0.9c-0.9,0.6-1.6,1.5-2,2.6c-0.5,1.1-0.7,2.6-0.7,4.2s0.2,3.1,0.7,4.2s1.1,2,2,2.6c0.9,0.6,2,0.9,3.2,0.9
		s2.3-0.3,3.2-0.9s1.6-1.5,2-2.6C408.8,29.6,409,28.2,409,26.5z"/>
	<path class="st0" d="M419.9,39.4V13.7h10.6c1.9,0,3.6,0.4,5,1s2.5,1.7,3.2,3c0.8,1.3,1.1,2.8,1.1,4.6s-0.4,3.3-1.2,4.5
		s-1.9,2.2-3.3,2.8c-1.4,0.6-3.1,1-5.1,1h-6.7v-4.9h5.6c0.9,0,1.7-0.1,2.4-0.4c0.6-0.2,1.1-0.6,1.4-1.1c0.3-0.5,0.5-1.2,0.5-2
		s-0.2-1.5-0.5-2c-0.3-0.5-0.8-0.9-1.5-1.2s-1.4-0.4-2.4-0.4H426v20.7L419.9,39.4L419.9,39.4z M434.3,27.6l6.4,11.8H434l-6.3-11.8
		H434.3L434.3,27.6z"/>
	<path class="st0" d="M452.6,39.4V13.7h17.9v5.1h-11.7V24h10.8v5.1h-10.8v5.3h11.7v5L452.6,39.4L452.6,39.4z"/>
	<path class="st0" d="M490.9,13.7h6.2v16.6c0,1.9-0.5,3.6-1.4,5c-0.9,1.4-2.2,2.5-3.8,3.3s-3.5,1.2-5.7,1.2s-4.1-0.4-5.7-1.2
		c-1.6-0.8-2.9-1.9-3.8-3.3c-0.9-1.4-1.4-3.1-1.4-5V13.7h6.2v16.1c0,0.9,0.2,1.7,0.6,2.4c0.4,0.7,0.9,1.2,1.6,1.6s1.5,0.6,2.5,0.6
		s1.7-0.2,2.4-0.6s1.2-0.9,1.6-1.6c0.4-0.7,0.6-1.5,0.6-2.4L490.9,13.7L490.9,13.7z"/>
	<path class="st0" d="M501.9,39.4V13.7h10.6c1.9,0,3.6,0.4,5,1c1.4,0.7,2.5,1.7,3.2,3c0.8,1.3,1.1,2.8,1.1,4.6s-0.4,3.3-1.2,4.5
		c-0.8,1.2-1.9,2.2-3.3,2.8c-1.4,0.6-3.1,1-5.1,1h-6.7v-4.9h5.6c0.9,0,1.7-0.1,2.4-0.4c0.6-0.2,1.1-0.6,1.4-1.1
		c0.3-0.5,0.5-1.2,0.5-2s-0.2-1.5-0.5-2c-0.3-0.5-0.8-0.9-1.5-1.2s-1.4-0.4-2.4-0.4h-3.1v20.7L501.9,39.4L501.9,39.4z M516.4,27.6
		l6.4,11.8H516l-6.3-11.8H516.4L516.4,27.6z"/>
	<path class="st0" d="M550.5,26.5c0,2.8-0.5,5.2-1.6,7.2s-2.6,3.5-4.4,4.5s-3.9,1.5-6.2,1.5s-4.4-0.5-6.2-1.5
		c-1.8-1-3.3-2.5-4.4-4.5c-1.1-2-1.6-4.4-1.6-7.2s0.5-5.2,1.6-7.2c1.1-2,2.5-3.5,4.4-4.5c1.8-1,3.9-1.5,6.2-1.5s4.4,0.5,6.2,1.5
		s3.3,2.5,4.4,4.5C550,21.3,550.5,23.7,550.5,26.5z M544.1,26.5c0-1.7-0.2-3.1-0.7-4.2c-0.5-1.2-1.2-2-2-2.6
		c-0.9-0.6-1.9-0.9-3.2-0.9s-2.3,0.3-3.2,0.9s-1.6,1.5-2,2.6c-0.5,1.1-0.7,2.6-0.7,4.2s0.2,3.1,0.7,4.2s1.2,2,2,2.6s2,0.9,3.2,0.9
		s2.3-0.3,3.2-0.9s1.6-1.5,2-2.6C543.9,29.6,544.1,28.2,544.1,26.5z"/>
	<path class="st0" d="M555,39.4V13.7h10.6c1.9,0,3.6,0.4,5,1.1c1.4,0.8,2.5,1.8,3.2,3.1c0.8,1.3,1.1,2.9,1.1,4.6s-0.4,3.3-1.2,4.6
		s-1.9,2.4-3.3,3.1c-1.4,0.7-3.1,1.1-5.1,1.1h-6.6v-4.9h5.4c0.9,0,1.7-0.2,2.3-0.5c0.6-0.3,1.1-0.8,1.4-1.4c0.3-0.6,0.5-1.3,0.5-2.1
		s-0.2-1.5-0.5-2.1c-0.3-0.6-0.8-1-1.5-1.4s-1.4-0.5-2.3-0.5h-3.1v20.7L555,39.4L555,39.4z"/>
	<path class="st0" d="M578.9,39.4V13.7h17.9v5.1h-11.7V24H596v5.1h-10.8v5.3h11.7v5L578.9,39.4L578.9,39.4z"/>
</g>
</svg>
