<?xml version="1.0" encoding="UTF-8"?><svg id="Ebene_1" xmlns="http://www.w3.org/2000/svg" viewBox="0 0 751.18 201.26"><defs><style>.cls-1{fill:#269da1;}.cls-2{fill:#571300;}</style></defs><g><path class="cls-2" d="M29.07,91.03c-.14-1.67-.76-2.98-1.87-3.92-1.11-.94-2.8-1.41-5.06-1.41-1.44,0-2.62,.17-3.53,.51s-1.59,.81-2.02,1.39-.66,1.26-.68,2.01c-.03,.62,.08,1.18,.34,1.67,.26,.49,.67,.94,1.24,1.33,.57,.39,1.3,.75,2.19,1.07,.89,.32,1.94,.6,3.16,.85l4.22,.9c2.85,.6,5.28,1.4,7.31,2.39,2.03,.99,3.68,2.15,4.97,3.48,1.29,1.33,2.24,2.83,2.85,4.48,.61,1.66,.92,3.47,.94,5.43-.02,3.38-.86,6.25-2.54,8.59-1.67,2.34-4.07,4.13-7.17,5.35-3.11,1.22-6.84,1.83-11.19,1.83s-8.37-.66-11.69-1.99-5.9-3.36-7.74-6.12C.97,116.15,.04,112.62,.02,108.32H13.29c.08,1.57,.48,2.9,1.18,3.97,.7,1.07,1.7,1.88,2.98,2.44,1.28,.55,2.81,.83,4.59,.83,1.49,0,2.74-.18,3.74-.55,1-.37,1.77-.88,2.28-1.53,.52-.65,.79-1.4,.8-2.24-.02-.79-.27-1.48-.76-2.07-.5-.59-1.3-1.13-2.42-1.61-1.12-.48-2.64-.92-4.55-1.34l-5.12-1.11c-4.56-.99-8.15-2.64-10.77-4.96-2.62-2.32-3.92-5.49-3.91-9.51-.02-3.27,.86-6.13,2.63-8.58,1.77-2.45,4.22-4.37,7.36-5.74,3.14-1.37,6.75-2.06,10.82-2.06s7.74,.7,10.78,2.09c3.03,1.39,5.37,3.35,7.02,5.87,1.65,2.52,2.48,5.46,2.5,8.83h-13.36Z"/><path class="cls-2" d="M108.26,126.41v-51.45h13.97v40.2h20.8v11.26h-34.77Z"/><path class="cls-2" d="M75.42,74.15c-14.64,0-26.48,11.86-26.48,26.48s11.84,26.48,26.48,26.48,26.46-11.86,26.46-26.48-11.84-26.48-26.46-26.48Zm0,39c-6.93,0-12.52-5.61-12.52-12.52s5.59-12.52,12.52-12.52,12.5,5.61,12.5,12.52-5.59,12.52-12.5,12.52Z"/><path class="cls-2" d="M172.74,74.16c-14.64,0-26.48,11.86-26.48,26.47s11.84,26.47,26.48,26.47,26.46-11.86,26.46-26.47-11.84-26.47-26.46-26.47Zm0,38.99c-6.93,0-12.52-5.61-12.52-12.52s5.59-12.52,12.52-12.52,12.5,5.61,12.5,12.52-5.59,12.52-12.5,12.52Z"/></g><path class="cls-2" d="M99.62,53.97c-14.64,0-26.48-11.86-26.48-26.48S84.98,1.01,99.62,1.01s26.46,11.86,26.46,26.48-11.84,26.48-26.46,26.48Zm0-39c-6.93,0-12.52,5.61-12.52,12.52s5.59,12.52,12.52,12.52,12.5-5.61,12.5-12.52-5.59-12.52-12.5-12.52Z"/><path class="cls-2" d="M26.51,161.25c-6.93,0-12.52,5.61-12.52,12.52s5.59,12.52,12.52,12.52,12.5-5.61,12.5-12.52-5.59-12.52-12.5-12.52Z"/><g><g><path class="cls-1" d="M261.55,196.28c-2.45,0-4.66-.46-6.63-1.37-1.98-.91-3.54-2.24-4.68-3.98-1.15-1.74-1.72-3.88-1.72-6.41,0-2.18,.42-3.97,1.26-5.38,.84-1.41,1.97-2.52,3.39-3.34,1.43-.82,3.02-1.44,4.77-1.86,1.76-.42,3.55-.74,5.38-.96,2.31-.27,4.19-.49,5.63-.67,1.44-.18,2.49-.46,3.14-.87,.65-.4,.98-1.05,.98-1.96v-.18c0-2.19-.61-3.89-1.84-5.1-1.23-1.2-3.06-1.81-5.49-1.81s-4.52,.56-5.97,1.67c-1.45,1.11-2.45,2.35-3,3.71l-7.06-1.61c.84-2.34,2.06-4.24,3.68-5.69,1.62-1.45,3.48-2.5,5.59-3.16,2.11-.66,4.33-.99,6.66-.99,1.54,0,3.18,.18,4.91,.54,1.73,.36,3.36,1.02,4.87,1.97,1.52,.95,2.76,2.31,3.73,4.08,.97,1.77,1.46,4.06,1.46,6.87v25.62h-7.33v-5.28h-.3c-.49,.97-1.22,1.93-2.19,2.86-.97,.94-2.22,1.72-3.74,2.34-1.52,.62-3.35,.93-5.48,.93Zm1.63-6.03c2.08,0,3.86-.41,5.34-1.23,1.48-.82,2.61-1.9,3.39-3.23,.78-1.33,1.17-2.76,1.17-4.28v-4.97c-.27,.27-.78,.51-1.55,.74-.76,.23-1.63,.42-2.6,.58-.97,.16-1.92,.3-2.84,.43-.92,.12-1.69,.23-2.31,.31-1.46,.18-2.78,.5-3.98,.93s-2.15,1.06-2.86,1.87c-.71,.81-1.07,1.89-1.07,3.23,0,1.86,.69,3.26,2.06,4.21,1.37,.95,3.12,1.42,5.25,1.42Z"/><path class="cls-1" d="M297.79,172.51v22.91h-7.51v-38.59h7.21v6.28h.48c.89-2.04,2.28-3.68,4.18-4.92,1.9-1.24,4.3-1.86,7.2-1.86,2.63,0,4.93,.55,6.91,1.64,1.98,1.1,3.51,2.73,4.6,4.89,1.09,2.16,1.63,4.83,1.63,8.01v24.54h-7.51v-23.64c0-2.8-.73-4.99-2.19-6.57-1.46-1.58-3.46-2.37-6-2.37-1.74,0-3.29,.38-4.64,1.13-1.35,.75-2.41,1.86-3.19,3.3-.78,1.45-1.17,3.19-1.17,5.24Z"/><path class="cls-1" d="M346.51,196.18c-3.11,0-5.89-.8-8.33-2.4-2.44-1.6-4.35-3.89-5.73-6.86-1.38-2.97-2.07-6.54-2.07-10.72s.7-7.74,2.1-10.7c1.4-2.97,3.32-5.23,5.76-6.81,2.45-1.57,5.22-2.36,8.32-2.36,2.4,0,4.32,.4,5.79,1.19,1.46,.79,2.6,1.72,3.42,2.78,.81,1.06,1.45,1.99,1.9,2.79h.45v-19.12h7.51v51.45h-7.33v-6h-.63c-.45,.82-1.1,1.76-1.95,2.81-.85,1.05-2.01,1.98-3.48,2.76-1.47,.79-3.38,1.18-5.73,1.18Zm1.66-6.41c2.16,0,3.99-.57,5.49-1.72,1.5-1.15,2.64-2.74,3.42-4.79,.78-2.04,1.17-4.42,1.17-7.13s-.38-5.02-1.16-7.03c-.77-2.01-1.9-3.58-3.39-4.7-1.49-1.12-3.33-1.68-5.53-1.68s-4.15,.58-5.65,1.76c-1.51,1.17-2.64,2.77-3.4,4.8-.76,2.03-1.14,4.31-1.14,6.86s.39,4.9,1.16,6.96c.77,2.06,1.91,3.69,3.43,4.89,1.52,1.2,3.39,1.8,5.61,1.8Z"/><path class="cls-1" d="M419.51,179.42v-22.58h7.54v38.59h-7.39v-6.68h-.4c-.89,2.06-2.31,3.77-4.26,5.14-1.95,1.37-4.38,2.05-7.27,2.05-2.48,0-4.67-.55-6.57-1.64-1.9-1.1-3.39-2.73-4.47-4.89-1.08-2.16-1.62-4.83-1.62-8.01v-24.54h7.51v23.64c0,2.63,.73,4.72,2.19,6.28,1.46,1.56,3.35,2.34,5.67,2.34,1.41,0,2.81-.35,4.21-1.05s2.56-1.77,3.49-3.19c.93-1.43,1.39-3.23,1.37-5.43Z"/><path class="cls-1" d="M436.82,195.42v-38.59h7.26v6.13h.41c.7-2.08,1.94-3.71,3.73-4.91,1.78-1.2,3.8-1.8,6.07-1.8,.47,0,1.03,.02,1.67,.05,.64,.03,1.15,.08,1.52,.12v7.19c-.3-.08-.84-.18-1.61-.29-.77-.11-1.54-.16-2.31-.16-1.78,0-3.35,.37-4.73,1.12-1.38,.75-2.48,1.78-3.28,3.09-.81,1.31-1.21,2.81-1.21,4.49v23.56h-7.51Z"/><path class="cls-1" d="M463.91,195.42v-51.45h7.51v19.12h.45c.44-.8,1.06-1.73,1.88-2.79,.82-1.05,1.96-1.98,3.42-2.78,1.46-.79,3.39-1.19,5.78-1.19,3.11,0,5.9,.79,8.34,2.36,2.45,1.58,4.37,3.84,5.77,6.81,1.4,2.96,2.1,6.53,2.1,10.7s-.7,7.74-2.09,10.72c-1.39,2.97-3.3,5.26-5.73,6.86-2.43,1.6-5.2,2.4-8.31,2.4-2.34,0-4.26-.39-5.74-1.18-1.48-.79-2.64-1.71-3.48-2.76-.84-1.05-1.48-1.99-1.93-2.81h-.63v6h-7.34Zm7.36-19.29c0,2.71,.4,5.09,1.18,7.13,.78,2.04,1.93,3.64,3.41,4.79,1.49,1.15,3.32,1.72,5.48,1.72s4.12-.6,5.63-1.8c1.51-1.2,2.65-2.83,3.43-4.89,.78-2.06,1.17-4.38,1.17-6.96s-.38-4.83-1.14-6.86c-.76-2.03-1.9-3.63-3.42-4.8-1.52-1.17-3.4-1.76-5.67-1.76s-4.01,.56-5.51,1.68c-1.5,1.12-2.63,2.69-3.4,4.7-.77,2.01-1.16,4.35-1.16,7.03Z"/><path class="cls-1" d="M518.13,196.28c-2.45,0-4.66-.46-6.63-1.37-1.98-.91-3.54-2.24-4.68-3.98-1.15-1.74-1.72-3.88-1.72-6.41,0-2.18,.42-3.97,1.26-5.38,.84-1.41,1.97-2.52,3.39-3.34,1.43-.82,3.02-1.44,4.78-1.86s3.55-.74,5.37-.96c2.31-.27,4.19-.49,5.63-.67,1.44-.18,2.49-.46,3.14-.87,.65-.4,.98-1.05,.98-1.96v-.18c0-2.19-.61-3.89-1.84-5.1-1.23-1.2-3.06-1.81-5.49-1.81s-4.52,.56-5.97,1.67c-1.45,1.11-2.45,2.35-3,3.71l-7.06-1.61c.84-2.34,2.06-4.24,3.68-5.69,1.62-1.45,3.48-2.5,5.59-3.16,2.11-.66,4.33-.99,6.66-.99,1.54,0,3.18,.18,4.91,.54,1.74,.36,3.36,1.02,4.87,1.97,1.52,.95,2.76,2.31,3.73,4.08,.97,1.77,1.46,4.06,1.46,6.87v25.62h-7.34v-5.28h-.3c-.49,.97-1.22,1.93-2.19,2.86s-2.22,1.72-3.74,2.34c-1.52,.62-3.35,.93-5.48,.93Zm1.64-6.03c2.08,0,3.86-.41,5.34-1.23,1.48-.82,2.61-1.9,3.39-3.23,.78-1.33,1.17-2.76,1.17-4.28v-4.97c-.27,.27-.78,.51-1.55,.74-.76,.23-1.63,.42-2.6,.58-.97,.16-1.92,.3-2.84,.43-.92,.12-1.69,.23-2.31,.31-1.46,.18-2.79,.5-3.98,.93-1.2,.44-2.15,1.06-2.86,1.87-.71,.81-1.06,1.89-1.06,3.23,0,1.86,.69,3.26,2.06,4.21,1.37,.95,3.12,1.42,5.25,1.42Z"/><path class="cls-1" d="M554.37,172.51v22.91h-7.51v-38.59h7.21v6.28h.48c.88-2.04,2.28-3.68,4.18-4.92s4.3-1.86,7.2-1.86c2.63,0,4.93,.55,6.91,1.64,1.98,1.1,3.51,2.73,4.6,4.89,1.09,2.16,1.63,4.83,1.63,8.01v24.54h-7.51v-23.64c0-2.8-.73-4.99-2.18-6.57s-3.46-2.37-6.01-2.37c-1.74,0-3.28,.38-4.63,1.13s-2.41,1.86-3.19,3.3-1.17,3.19-1.17,5.24Z"/><path class="cls-1" d="M636.77,166.26l-6.81,1.2c-.29-.87-.73-1.7-1.34-2.49-.61-.79-1.44-1.43-2.47-1.93-1.04-.5-2.34-.75-3.89-.75-2.13,0-3.91,.47-5.33,1.42-1.42,.94-2.13,2.16-2.13,3.65,0,1.29,.47,2.33,1.43,3.12,.96,.79,2.5,1.43,4.62,1.93l6.13,1.4c3.55,.82,6.19,2.09,7.94,3.8,1.74,1.71,2.61,3.93,2.61,6.66,0,2.31-.67,4.37-2,6.17s-3.18,3.21-5.55,4.23c-2.37,1.02-5.11,1.53-8.23,1.53-4.32,0-7.84-.92-10.57-2.78s-4.4-4.48-5.02-7.9l7.26-1.11c.45,1.89,1.38,3.32,2.79,4.28,1.4,.96,3.24,1.44,5.5,1.44,2.46,0,4.43-.51,5.9-1.55,1.47-1.03,2.21-2.29,2.21-3.78,0-1.21-.45-2.22-1.34-3.04-.9-.82-2.27-1.44-4.11-1.86l-6.53-1.43c-3.6-.82-6.26-2.13-7.98-3.92-1.72-1.79-2.57-4.06-2.57-6.81,0-2.28,.64-4.27,1.91-5.98,1.28-1.71,3.03-3.04,5.28-4.01,2.24-.96,4.81-1.44,7.71-1.44,4.17,0,7.45,.9,9.85,2.7,2.4,1.8,3.98,4.21,4.75,7.22Z"/><path class="cls-1" d="M661.34,196.2c-3.62,0-6.78-.83-9.47-2.49-2.7-1.66-4.79-3.98-6.28-6.96-1.49-2.98-2.23-6.47-2.23-10.45s.75-7.5,2.23-10.5c1.49-3,3.58-5.32,6.28-6.98,2.69-1.66,5.85-2.49,9.47-2.49s6.78,.83,9.47,2.49c2.69,1.66,4.79,3.99,6.28,6.98,1.49,3,2.24,6.5,2.24,10.5s-.75,7.47-2.24,10.45c-1.49,2.98-3.58,5.3-6.28,6.96-2.7,1.66-5.85,2.49-9.47,2.49Zm.03-6.31c2.34,0,4.29-.62,5.83-1.86,1.54-1.24,2.69-2.89,3.43-4.95,.74-2.06,1.11-4.33,1.11-6.81s-.37-4.73-1.11-6.8c-.75-2.07-1.89-3.73-3.43-4.99-1.54-1.26-3.48-1.88-5.83-1.88s-4.32,.63-5.87,1.88c-1.55,1.26-2.69,2.92-3.44,4.99-.75,2.07-1.12,4.33-1.12,6.8s.37,4.75,1.12,6.81c.75,2.06,1.89,3.71,3.44,4.95,1.55,1.24,3.51,1.86,5.87,1.86Z"/><path class="cls-1" d="M690.97,150.88c-1.3,0-2.42-.44-3.35-1.32s-1.4-1.93-1.4-3.15,.47-2.3,1.4-3.18c.93-.88,2.05-1.32,3.35-1.32s2.43,.44,3.35,1.32c.93,.88,1.4,1.94,1.4,3.18s-.47,2.27-1.4,3.15c-.93,.88-2.04,1.32-3.35,1.32Zm-3.79,44.54v-38.59h7.51v38.59h-7.51Z"/><path class="cls-1" d="M712.05,143.97v51.45h-7.51v-51.45h7.51Z"/><path class="cls-1" d="M750.41,166.26l-6.81,1.2c-.29-.87-.74-1.7-1.34-2.49-.61-.79-1.44-1.43-2.47-1.93-1.04-.5-2.34-.75-3.9-.75-2.13,0-3.9,.47-5.32,1.42-1.42,.94-2.14,2.16-2.14,3.65,0,1.29,.48,2.33,1.43,3.12,.95,.79,2.5,1.43,4.62,1.93l6.13,1.4c3.55,.82,6.19,2.09,7.94,3.8,1.74,1.71,2.61,3.93,2.61,6.66,0,2.31-.66,4.37-1.99,6.17s-3.18,3.21-5.55,4.23c-2.37,1.02-5.11,1.53-8.23,1.53-4.32,0-7.85-.92-10.57-2.78-2.73-1.85-4.41-4.48-5.02-7.9l7.26-1.11c.45,1.89,1.38,3.32,2.79,4.28,1.4,.96,3.24,1.44,5.5,1.44,2.46,0,4.43-.51,5.9-1.55,1.47-1.03,2.21-2.29,2.21-3.78,0-1.21-.45-2.22-1.34-3.04-.9-.82-2.27-1.44-4.11-1.86l-6.53-1.43c-3.6-.82-6.26-2.13-7.98-3.92-1.72-1.79-2.57-4.06-2.57-6.81,0-2.28,.64-4.27,1.91-5.98,1.27-1.71,3.03-3.04,5.27-4.01,2.24-.96,4.82-1.44,7.71-1.44,4.17,0,7.45,.9,9.85,2.7,2.4,1.8,3.97,4.21,4.75,7.22Z"/></g><g><path class="cls-1" d="M278.99,88.43c-.27-2.38-1.37-4.23-3.32-5.54-1.94-1.31-4.39-1.97-7.33-1.97-2.11,0-3.94,.33-5.48,.99-1.54,.66-2.73,1.57-3.58,2.71-.85,1.15-1.27,2.45-1.27,3.91,0,1.22,.29,2.28,.87,3.17,.58,.89,1.34,1.63,2.29,2.22s1.96,1.09,3.05,1.48c1.09,.39,2.14,.72,3.14,.97l5.02,1.31c1.64,.4,3.32,.95,5.05,1.63,1.72,.69,3.32,1.59,4.8,2.71,1.47,1.12,2.67,2.51,3.58,4.17,.91,1.66,1.37,3.64,1.37,5.96,0,2.91-.75,5.5-2.25,7.76-1.5,2.26-3.67,4.04-6.51,5.35-2.84,1.31-6.27,1.96-10.29,1.96s-7.19-.61-10-1.83c-2.81-1.22-5.02-2.96-6.61-5.21-1.59-2.25-2.47-4.93-2.64-8.03h7.79c.15,1.86,.76,3.4,1.82,4.63,1.06,1.23,2.43,2.14,4.09,2.74,1.67,.59,3.5,.89,5.49,.89,2.19,0,4.15-.35,5.87-1.04,1.72-.7,3.07-1.67,4.06-2.91,.99-1.25,1.48-2.71,1.48-4.38,0-1.52-.43-2.77-1.29-3.74-.86-.97-2.03-1.78-3.49-2.41-1.46-.64-3.12-1.2-4.96-1.68l-6.08-1.66c-4.12-1.12-7.38-2.77-9.79-4.95-2.4-2.18-3.6-5.06-3.6-8.64,0-2.97,.8-5.55,2.41-7.76,1.61-2.21,3.79-3.93,6.53-5.16,2.75-1.23,5.84-1.85,9.29-1.85s6.56,.61,9.23,1.83c2.67,1.22,4.78,2.9,6.32,5.04,1.54,2.13,2.34,4.59,2.41,7.35h-7.49Z"/><path class="cls-1" d="M311.78,127.14c-3.62,0-6.78-.83-9.47-2.49-2.7-1.66-4.79-3.98-6.28-6.96-1.49-2.98-2.24-6.47-2.24-10.45s.75-7.5,2.24-10.5c1.49-3,3.58-5.32,6.28-6.98,2.7-1.66,5.85-2.49,9.47-2.49s6.78,.83,9.47,2.49c2.69,1.66,4.79,3.99,6.28,6.98,1.49,3,2.24,6.5,2.24,10.5s-.75,7.47-2.24,10.45c-1.49,2.98-3.59,5.3-6.28,6.96-2.7,1.66-5.85,2.49-9.47,2.49Zm.03-6.31c2.34,0,4.29-.62,5.83-1.86,1.54-1.24,2.68-2.89,3.43-4.95,.74-2.06,1.12-4.33,1.12-6.81s-.37-4.73-1.12-6.8c-.75-2.07-1.89-3.73-3.43-4.99-1.54-1.26-3.48-1.88-5.83-1.88s-4.32,.63-5.87,1.88c-1.55,1.26-2.7,2.92-3.44,4.99-.75,2.07-1.12,4.33-1.12,6.8s.37,4.75,1.12,6.81c.75,2.06,1.89,3.71,3.44,4.95,1.55,1.24,3.5,1.86,5.87,1.86Z"/><path class="cls-1" d="M341.41,81.82c-1.31,0-2.42-.44-3.35-1.32-.93-.88-1.4-1.93-1.4-3.15s.47-2.3,1.4-3.18c.93-.88,2.05-1.32,3.35-1.32s2.42,.44,3.35,1.32c.93,.88,1.4,1.94,1.4,3.18s-.47,2.27-1.4,3.15c-.93,.88-2.05,1.32-3.35,1.32Zm-3.79,44.54v-38.59h7.51v38.59h-7.51Z"/><path class="cls-1" d="M362.49,74.91v51.45h-7.51v-51.45h7.51Z"/><path class="cls-1" d="M420.24,97.2l-6.81,1.2c-.29-.87-.73-1.7-1.34-2.49-.61-.79-1.44-1.43-2.47-1.93-1.04-.5-2.34-.75-3.89-.75-2.13,0-3.9,.47-5.33,1.42-1.42,.94-2.13,2.16-2.13,3.65,0,1.29,.48,2.33,1.43,3.12,.96,.79,2.5,1.43,4.62,1.93l6.13,1.4c3.55,.82,6.19,2.09,7.94,3.8,1.74,1.71,2.61,3.93,2.61,6.66,0,2.31-.67,4.37-2,6.17-1.33,1.8-3.18,3.21-5.55,4.23-2.37,1.02-5.11,1.53-8.23,1.53-4.32,0-7.84-.92-10.57-2.78-2.73-1.85-4.41-4.48-5.02-7.9l7.26-1.11c.45,1.89,1.38,3.32,2.79,4.28,1.4,.96,3.24,1.44,5.5,1.44,2.46,0,4.43-.51,5.9-1.55,1.47-1.03,2.21-2.29,2.21-3.78,0-1.21-.45-2.22-1.34-3.04-.9-.82-2.27-1.44-4.11-1.86l-6.53-1.43c-3.6-.82-6.26-2.13-7.98-3.92-1.72-1.79-2.57-4.06-2.57-6.81,0-2.28,.64-4.27,1.91-5.98,1.27-1.71,3.03-3.04,5.28-4.01,2.24-.96,4.82-1.44,7.71-1.44,4.17,0,7.45,.9,9.85,2.7,2.4,1.8,3.98,4.21,4.75,7.22Z"/><path class="cls-1" d="M445.23,127.14c-3.8,0-7.07-.82-9.81-2.45-2.74-1.63-4.85-3.94-6.33-6.91-1.48-2.97-2.22-6.46-2.22-10.46s.74-7.44,2.22-10.45,3.56-5.37,6.23-7.06c2.67-1.69,5.8-2.54,9.38-2.54,2.18,0,4.29,.36,6.33,1.08,2.04,.72,3.87,1.85,5.5,3.39,1.63,1.54,2.91,3.54,3.85,5.99,.93,2.45,1.4,5.43,1.4,8.93v2.66h-30.67v-5.63h23.31c0-1.98-.4-3.73-1.21-5.26-.8-1.53-1.93-2.74-3.38-3.63-1.45-.89-3.14-1.33-5.08-1.33-2.11,0-3.95,.52-5.51,1.55-1.57,1.03-2.77,2.37-3.62,4.02-.85,1.65-1.27,3.44-1.27,5.36v4.4c0,2.58,.46,4.77,1.37,6.58,.91,1.81,2.19,3.19,3.83,4.13,1.64,.94,3.56,1.42,5.75,1.42,1.42,0,2.72-.2,3.89-.61,1.17-.41,2.19-1.03,3.04-1.85,.86-.82,1.51-1.84,1.96-3.04l7.11,1.28c-.57,2.09-1.58,3.92-3.05,5.49-1.47,1.57-3.3,2.78-5.5,3.64-2.2,.86-4.71,1.29-7.52,1.29Z"/><path class="cls-1" d="M480.72,127.22c-2.45,0-4.66-.46-6.63-1.37-1.98-.91-3.54-2.24-4.68-3.98-1.15-1.74-1.72-3.88-1.72-6.41,0-2.18,.42-3.97,1.26-5.38,.83-1.41,1.97-2.52,3.39-3.34,1.42-.82,3.02-1.44,4.77-1.86,1.76-.42,3.55-.74,5.38-.96,2.31-.27,4.19-.49,5.62-.67,1.44-.18,2.49-.46,3.14-.87s.98-1.05,.98-1.96v-.18c0-2.19-.62-3.89-1.85-5.1-1.23-1.2-3.06-1.81-5.49-1.81s-4.52,.56-5.96,1.67c-1.45,1.11-2.45,2.35-3,3.71l-7.06-1.61c.84-2.34,2.06-4.24,3.68-5.69,1.62-1.45,3.48-2.5,5.59-3.16,2.11-.66,4.33-.99,6.66-.99,1.54,0,3.18,.18,4.91,.54,1.73,.36,3.36,1.02,4.87,1.97,1.52,.95,2.76,2.31,3.73,4.08,.97,1.77,1.46,4.06,1.46,6.87v25.62h-7.33v-5.28h-.3c-.48,.97-1.22,1.93-2.18,2.86-.97,.94-2.22,1.72-3.74,2.34-1.52,.62-3.35,.93-5.48,.93Zm1.63-6.03c2.08,0,3.86-.41,5.34-1.23,1.48-.82,2.62-1.9,3.39-3.23,.78-1.33,1.17-2.76,1.17-4.28v-4.97c-.27,.27-.78,.51-1.54,.74-.76,.23-1.63,.42-2.6,.58-.97,.16-1.92,.3-2.84,.43-.92,.12-1.69,.23-2.31,.31-1.46,.18-2.78,.5-3.98,.93-1.2,.44-2.16,1.06-2.86,1.87-.71,.81-1.07,1.89-1.07,3.23,0,1.86,.69,3.26,2.06,4.21,1.37,.95,3.12,1.42,5.25,1.42Z"/><path class="cls-1" d="M516.97,74.91v51.45h-7.51v-51.45h7.51Z"/><path class="cls-1" d="M530.57,81.82c-1.31,0-2.43-.44-3.35-1.32-.93-.88-1.4-1.93-1.4-3.15s.47-2.3,1.4-3.18c.93-.88,2.04-1.32,3.35-1.32s2.42,.44,3.35,1.32c.93,.88,1.4,1.94,1.4,3.18s-.47,2.27-1.4,3.15c-.93,.88-2.05,1.32-3.35,1.32Zm-3.8,44.54v-38.59h7.51v38.59h-7.51Z"/><path class="cls-1" d="M551.61,103.45v22.91h-7.51v-38.59h7.21v6.28h.48c.88-2.04,2.28-3.68,4.18-4.92,1.9-1.24,4.3-1.86,7.2-1.86,2.63,0,4.93,.55,6.91,1.64,1.98,1.1,3.51,2.73,4.6,4.89,1.09,2.16,1.63,4.83,1.63,8.01v24.54h-7.51v-23.64c0-2.8-.73-4.99-2.18-6.57-1.46-1.58-3.46-2.37-6.01-2.37-1.74,0-3.28,.38-4.63,1.13s-2.41,1.86-3.19,3.3-1.17,3.19-1.17,5.24Z"/><path class="cls-1" d="M601.93,141.64c-3.07,0-5.7-.4-7.9-1.21-2.2-.8-4-1.87-5.39-3.19-1.39-1.32-2.43-2.77-3.11-4.35l6.46-2.66c.45,.74,1.06,1.52,1.82,2.35,.76,.83,1.8,1.54,3.12,2.12,1.31,.59,3.01,.88,5.08,.88,2.85,0,5.2-.69,7.06-2.07,1.86-1.38,2.79-3.58,2.79-6.6v-7.59h-.47c-.45,.82-1.1,1.73-1.95,2.74-.85,1-2,1.87-3.48,2.61s-3.39,1.11-5.76,1.11c-3.04,0-5.79-.72-8.23-2.15-2.44-1.43-4.36-3.55-5.78-6.36-1.42-2.8-2.12-6.26-2.12-10.36s.7-7.62,2.1-10.55,3.32-5.18,5.77-6.75c2.45-1.57,5.22-2.35,8.31-2.35,2.4,0,4.33,.4,5.8,1.19,1.47,.79,2.63,1.72,3.45,2.78,.83,1.06,1.47,1.99,1.93,2.79h.55v-6.25h7.36v39.44c0,3.32-.77,6.04-2.31,8.17-1.54,2.13-3.62,3.7-6.24,4.72-2.63,1.02-5.57,1.53-8.86,1.53Zm-.08-22.08c2.16,0,3.99-.51,5.49-1.52,1.5-1.01,2.64-2.47,3.42-4.37,.78-1.9,1.17-4.18,1.17-6.85s-.39-4.88-1.16-6.86c-.77-1.98-1.9-3.52-3.39-4.64-1.49-1.11-3.33-1.67-5.53-1.67s-4.15,.58-5.65,1.75c-1.51,1.16-2.64,2.74-3.4,4.73-.76,1.99-1.14,4.22-1.14,6.68s.39,4.75,1.16,6.66c.77,1.91,1.91,3.4,3.43,4.47,1.52,1.07,3.39,1.61,5.61,1.61Z"/></g><path class="cls-1" d="M172.74,200.25c-14.64,0-26.48-11.86-26.48-26.48s11.84-26.48,26.48-26.48,26.46,11.86,26.46,26.48-11.84,26.48-26.46,26.48Zm0-39c-6.93,0-12.52,5.61-12.52,12.52s5.59,12.52,12.52,12.52,12.5-5.61,12.5-12.52-5.59-12.52-12.5-12.52Z"/><path class="cls-1" d="M172.74,40.01c-6.93,0-12.52-5.61-12.52-12.52s5.59-12.52,12.52-12.52,12.5,5.61,12.5,12.52-5.59,12.52-12.5,12.52Z"/><path class="cls-1" d="M99.62,200.25c-14.64,0-26.48-11.86-26.48-26.48s11.84-26.48,26.48-26.48,26.46,11.86,26.46,26.48-11.84,26.48-26.46,26.48Z"/><path class="cls-1" d="M26.51,1.01C11.86,1.01,.02,12.87,.02,27.49s11.84,26.48,26.48,26.48,26.46-11.86,26.46-26.48S41.13,1.01,26.51,1.01Z"/></g><g><path class="cls-2" d="M264.41,21.95c-.09-.92-.46-1.64-1.11-2.16-.66-.51-1.59-.77-2.81-.77-.8,0-1.47,.11-2.01,.31-.54,.21-.94,.5-1.21,.86-.27,.36-.41,.78-.41,1.25-.02,.38,.06,.72,.23,1.02,.17,.29,.42,.55,.76,.77,.33,.22,.73,.42,1.2,.58,.47,.17,.99,.31,1.58,.44l2.21,.5c1.27,.28,2.4,.64,3.37,1.11,.98,.46,1.8,1.01,2.46,1.64,.67,.64,1.17,1.37,1.52,2.2,.34,.83,.52,1.76,.53,2.79,0,1.62-.42,3.02-1.23,4.18-.81,1.17-1.98,2.06-3.5,2.68-1.52,.62-3.35,.93-5.49,.93s-4.03-.32-5.63-.97c-1.6-.64-2.84-1.63-3.73-2.94-.89-1.31-1.34-2.98-1.37-4.99h5.95c.05,.83,.27,1.52,.67,2.07s.94,.97,1.63,1.26c.69,.29,1.49,.43,2.4,.43,.84,0,1.55-.11,2.14-.34,.59-.23,1.05-.54,1.36-.94,.32-.4,.48-.86,.49-1.38,0-.49-.16-.9-.45-1.25-.29-.35-.74-.65-1.35-.91s-1.38-.49-2.32-.71l-2.69-.63c-2.23-.51-3.98-1.34-5.26-2.48-1.28-1.14-1.92-2.69-1.91-4.64,0-1.59,.42-2.98,1.28-4.18,.86-1.2,2.06-2.13,3.58-2.8,1.52-.67,3.26-1,5.21-1s3.73,.34,5.2,1.01c1.47,.67,2.61,1.62,3.42,2.83,.81,1.22,1.23,2.62,1.24,4.22h-5.95Z"/><path class="cls-2" d="M299.03,27.1c0,2.83-.54,5.23-1.63,7.2-1.09,1.97-2.56,3.46-4.41,4.48-1.86,1.02-3.93,1.53-6.24,1.53s-4.39-.51-6.24-1.54c-1.85-1.03-3.32-2.53-4.4-4.49-1.08-1.96-1.63-4.36-1.63-7.18s.54-5.23,1.63-7.2c1.08-1.97,2.55-3.46,4.4-4.48,1.85-1.02,3.93-1.53,6.24-1.53s4.38,.51,6.24,1.53c1.85,1.02,3.33,2.51,4.41,4.48,1.09,1.97,1.63,4.37,1.63,7.2Zm-6.36,0c0-1.67-.24-3.09-.71-4.24-.47-1.16-1.15-2.03-2.04-2.63-.88-.59-1.94-.89-3.18-.89s-2.29,.3-3.18,.89c-.89,.59-1.57,1.47-2.04,2.63-.47,1.15-.71,2.57-.71,4.24s.24,3.09,.71,4.25c.47,1.16,1.15,2.03,2.04,2.63,.89,.59,1.95,.89,3.18,.89s2.3-.3,3.18-.89c.88-.59,1.56-1.47,2.04-2.63,.47-1.16,.71-2.57,.71-4.25Z"/><path class="cls-2" d="M309.75,14.24v25.73h-6.22V14.24h6.22Z"/><path class="cls-2" d="M314.53,39.97V14.24h6.22v20.68h10.7v5.05h-16.92Z"/><path class="cls-2" d="M349.45,21.95c-.09-.92-.46-1.64-1.11-2.16-.66-.51-1.59-.77-2.81-.77-.8,0-1.47,.11-2.01,.31-.54,.21-.94,.5-1.21,.86-.27,.36-.41,.78-.41,1.25-.02,.38,.06,.72,.23,1.02,.17,.29,.42,.55,.76,.77,.33,.22,.73,.42,1.2,.58,.47,.17,.99,.31,1.58,.44l2.21,.5c1.27,.28,2.4,.64,3.37,1.11,.98,.46,1.8,1.01,2.46,1.64,.67,.64,1.17,1.37,1.52,2.2,.34,.83,.52,1.76,.53,2.79,0,1.62-.42,3.02-1.23,4.18-.81,1.17-1.98,2.06-3.5,2.68-1.52,.62-3.35,.93-5.49,.93s-4.03-.32-5.63-.97c-1.6-.64-2.84-1.63-3.73-2.94-.89-1.31-1.34-2.98-1.37-4.99h5.95c.05,.83,.27,1.52,.67,2.07s.94,.97,1.63,1.26c.69,.29,1.49,.43,2.4,.43,.84,0,1.55-.11,2.14-.34,.59-.23,1.05-.54,1.36-.94,.32-.4,.48-.86,.49-1.38,0-.49-.16-.9-.45-1.25-.29-.35-.74-.65-1.35-.91s-1.38-.49-2.32-.71l-2.69-.63c-2.23-.51-3.98-1.34-5.26-2.48-1.28-1.14-1.92-2.69-1.91-4.64,0-1.59,.42-2.98,1.28-4.18,.86-1.2,2.06-2.13,3.58-2.8,1.52-.67,3.26-1,5.21-1s3.73,.34,5.2,1.01c1.47,.67,2.61,1.62,3.42,2.83,.81,1.22,1.23,2.62,1.24,4.22h-5.95Z"/><path class="cls-2" d="M368.29,39.97V14.24h17.56v5.05h-11.34v5.27h10.22v5.06h-10.22v10.34h-6.22Z"/><path class="cls-2" d="M414.13,27.1c0,2.83-.54,5.23-1.63,7.2-1.09,1.97-2.56,3.46-4.42,4.48-1.86,1.02-3.93,1.53-6.24,1.53s-4.39-.51-6.24-1.54c-1.85-1.03-3.32-2.53-4.4-4.49-1.08-1.96-1.63-4.36-1.63-7.18s.54-5.23,1.63-7.2c1.08-1.97,2.55-3.46,4.4-4.48,1.85-1.02,3.93-1.53,6.24-1.53s4.38,.51,6.24,1.53c1.86,1.02,3.33,2.51,4.42,4.48,1.09,1.97,1.63,4.37,1.63,7.2Zm-6.36,0c0-1.67-.23-3.09-.71-4.24-.47-1.16-1.15-2.03-2.04-2.63-.88-.59-1.94-.89-3.18-.89s-2.29,.3-3.18,.89c-.89,.59-1.57,1.47-2.04,2.63-.47,1.15-.71,2.57-.71,4.24s.24,3.09,.71,4.25c.47,1.16,1.15,2.03,2.04,2.63,.89,.59,1.95,.89,3.18,.89s2.3-.3,3.18-.89c.88-.59,1.56-1.47,2.04-2.63s.71-2.57,.71-4.25Z"/><path class="cls-2" d="M418.63,39.97V14.24h10.63c1.93,0,3.59,.35,4.99,1.04,1.4,.69,2.48,1.68,3.25,2.96,.76,1.29,1.14,2.81,1.14,4.57s-.39,3.3-1.17,4.54c-.78,1.24-1.88,2.19-3.32,2.84-1.43,.65-3.13,.97-5.08,.97h-6.72v-4.9h5.56c.94,0,1.72-.12,2.35-.37,.64-.25,1.11-.62,1.44-1.13,.32-.51,.49-1.16,.49-1.95s-.17-1.46-.49-1.98c-.33-.52-.81-.92-1.45-1.18-.64-.26-1.42-.4-2.35-.4h-3.07v20.71h-6.22Zm14.49-11.76l6.41,11.76h-6.78l-6.28-11.76h6.66Z"/><path class="cls-2" d="M451.43,39.97V14.24h17.94v5.05h-11.72v5.27h10.8v5.06h-10.8v5.29h11.72v5.05h-17.94Z"/><path class="cls-2" d="M489.71,14.24h6.2V30.83c0,1.92-.46,3.59-1.37,5.01-.91,1.42-2.18,2.52-3.82,3.29-1.64,.77-3.53,1.16-5.69,1.16s-4.1-.39-5.73-1.16c-1.64-.77-2.9-1.87-3.8-3.29-.91-1.42-1.36-3.09-1.36-5.01V14.24h6.22V30.3c0,.89,.19,1.68,.58,2.37,.39,.7,.93,1.24,1.64,1.63,.7,.39,1.52,.59,2.45,.59s1.74-.2,2.44-.59,1.24-.94,1.64-1.63c.39-.7,.59-1.49,.59-2.37V14.24Z"/><path class="cls-2" d="M500.69,39.97V14.24h10.63c1.93,0,3.59,.35,4.99,1.04,1.4,.69,2.48,1.68,3.25,2.96,.76,1.29,1.14,2.81,1.14,4.57s-.39,3.3-1.17,4.54c-.78,1.24-1.88,2.19-3.32,2.84-1.43,.65-3.13,.97-5.08,.97h-6.72v-4.9h5.56c.94,0,1.72-.12,2.35-.37,.64-.25,1.11-.62,1.44-1.13,.32-.51,.49-1.16,.49-1.95s-.17-1.46-.49-1.98c-.33-.52-.81-.92-1.45-1.18-.64-.26-1.42-.4-2.35-.4h-3.07v20.71h-6.22Zm14.49-11.76l6.41,11.76h-6.78l-6.28-11.76h6.66Z"/><path class="cls-2" d="M549.27,27.1c0,2.83-.54,5.23-1.63,7.2-1.09,1.97-2.56,3.46-4.42,4.48-1.86,1.02-3.93,1.53-6.24,1.53s-4.39-.51-6.24-1.54c-1.85-1.03-3.32-2.53-4.4-4.49-1.09-1.96-1.63-4.36-1.63-7.18s.54-5.23,1.63-7.2c1.08-1.97,2.55-3.46,4.4-4.48,1.85-1.02,3.93-1.53,6.24-1.53s4.38,.51,6.24,1.53c1.86,1.02,3.33,2.51,4.42,4.48,1.09,1.97,1.63,4.37,1.63,7.2Zm-6.36,0c0-1.67-.23-3.09-.71-4.24-.47-1.16-1.15-2.03-2.04-2.63-.88-.59-1.94-.89-3.18-.89s-2.29,.3-3.18,.89-1.57,1.47-2.04,2.63c-.47,1.15-.71,2.57-.71,4.24s.23,3.09,.71,4.25c.47,1.16,1.15,2.03,2.04,2.63s1.95,.89,3.18,.89,2.3-.3,3.18-.89c.88-.59,1.56-1.47,2.04-2.63,.47-1.16,.71-2.57,.71-4.25Z"/><path class="cls-2" d="M553.77,39.97V14.24h10.63c1.93,0,3.59,.38,4.99,1.12,1.4,.75,2.48,1.79,3.25,3.13,.76,1.34,1.14,2.89,1.14,4.65s-.39,3.33-1.16,4.65c-.77,1.33-1.88,2.36-3.31,3.08-1.43,.73-3.13,1.09-5.1,1.09h-6.56v-4.9h5.4c.94,0,1.72-.16,2.35-.49,.64-.33,1.11-.79,1.44-1.38,.32-.59,.49-1.28,.49-2.07s-.17-1.48-.49-2.07c-.33-.58-.81-1.03-1.45-1.35-.64-.32-1.42-.48-2.35-.48h-3.07v20.71h-6.22Z"/><path class="cls-2" d="M577.72,39.97V14.24h17.94v5.05h-11.72v5.27h10.81v5.06h-10.81v5.29h11.72v5.05h-17.94Z"/></g></svg>