<?xml version="1.0" encoding="UTF-8" standalone="no"?>
<svg
   xmlns:dc="http://purl.org/dc/elements/1.1/"
   xmlns:cc="http://creativecommons.org/ns#"
   xmlns:rdf="http://www.w3.org/1999/02/22-rdf-syntax-ns#"
   xmlns:svg="http://www.w3.org/2000/svg"
   xmlns="http://www.w3.org/2000/svg"
   xmlns:sodipodi="http://sodipodi.sourceforge.net/DTD/sodipodi-0.dtd"
   xmlns:inkscape="http://www.inkscape.org/namespaces/inkscape"
   id="Ebene_1"
   viewBox="0 0 856.06 201.26"
   version="1.1"
   sodipodi:docname="SOLO-Pesticide-rgb_v2.svg"
   inkscape:version="1.0.2-2 (e86c870879, 2021-01-15)">
  <metadata
     id="metadata131">
    <rdf:RDF>
      <cc:Work
         rdf:about="">
        <dc:format>image/svg+xml</dc:format>
        <dc:type
           rdf:resource="http://purl.org/dc/dcmitype/StillImage" />
        <dc:title></dc:title>
      </cc:Work>
    </rdf:RDF>
  </metadata>
  <sodipodi:namedview
     pagecolor="#ffffff"
     bordercolor="#666666"
     borderopacity="1"
     objecttolerance="10"
     gridtolerance="10"
     guidetolerance="10"
     inkscape:pageopacity="0"
     inkscape:pageshadow="2"
     inkscape:window-width="1920"
     inkscape:window-height="1017"
     id="namedview129"
     showgrid="false"
     inkscape:zoom="1.1850254"
     inkscape:cx="428.03"
     inkscape:cy="100.63"
     inkscape:window-x="-8"
     inkscape:window-y="-8"
     inkscape:window-maximized="1"
     inkscape:current-layer="g86" />
  <defs
     id="defs4">
    <style
       id="style2">.cls-1{fill:#a1a100;}.cls-2{fill:#571300;}</style>
  </defs>
  <g
     id="g14"
     inkscape:export-xdpi="600"
     inkscape:export-ydpi="600">
    <path
       class="cls-2"
       d="M30.36,91.03c-.14-1.67-.76-2.98-1.87-3.92-1.11-.94-2.8-1.41-5.06-1.41-1.44,0-2.62,.17-3.53,.51-.91,.34-1.59,.81-2.02,1.39-.44,.59-.66,1.26-.68,2.01-.03,.62,.08,1.18,.34,1.67,.26,.49,.67,.94,1.24,1.33,.57,.39,1.3,.75,2.19,1.07,.89,.32,1.94,.6,3.16,.85l4.22,.9c2.85,.6,5.28,1.4,7.31,2.39,2.03,.99,3.68,2.15,4.97,3.48,1.29,1.33,2.24,2.83,2.85,4.48,.61,1.66,.92,3.47,.94,5.43-.02,3.38-.86,6.25-2.54,8.59-1.67,2.34-4.07,4.13-7.17,5.35-3.11,1.22-6.84,1.83-11.19,1.83s-8.37-.66-11.69-1.99c-3.33-1.32-5.9-3.36-7.74-6.12-1.83-2.75-2.76-6.28-2.78-10.59H14.58c.08,1.57,.48,2.9,1.18,3.97,.7,1.07,1.7,1.88,2.98,2.44,1.28,.55,2.81,.83,4.59,.83,1.49,0,2.74-.18,3.74-.55,1-.37,1.77-.88,2.28-1.53,.52-.65,.79-1.4,.8-2.24-.02-.79-.27-1.48-.76-2.07-.5-.59-1.3-1.13-2.42-1.61-1.12-.48-2.64-.92-4.55-1.34l-5.12-1.11c-4.56-.99-8.15-2.64-10.77-4.96-2.62-2.32-3.92-5.49-3.91-9.51-.02-3.27,.86-6.13,2.63-8.58,1.77-2.45,4.22-4.37,7.36-5.74,3.14-1.37,6.75-2.06,10.82-2.06s7.74,.7,10.78,2.09c3.03,1.39,5.37,3.35,7.02,5.87,1.65,2.52,2.48,5.46,2.5,8.83h-13.36Z"
       id="path6" />
    <path
       class="cls-2"
       d="M109.56,126.41v-51.45h13.97v40.2h20.8v11.26h-34.77Z"
       id="path8" />
    <path
       class="cls-2"
       d="M76.72,74.15c-14.64,0-26.48,11.86-26.48,26.48s11.84,26.48,26.48,26.48,26.46-11.86,26.46-26.48-11.84-26.48-26.46-26.48Zm0,39c-6.93,0-12.52-5.61-12.52-12.52s5.59-12.52,12.52-12.52,12.5,5.61,12.5,12.52-5.59,12.52-12.5,12.52Z"
       id="path10" />
    <path
       class="cls-2"
       d="M174.03,74.16c-14.64,0-26.48,11.86-26.48,26.47s11.84,26.47,26.48,26.47,26.46-11.86,26.46-26.47-11.84-26.47-26.46-26.47Zm0,38.99c-6.93,0-12.52-5.61-12.52-12.52s5.59-12.52,12.52-12.52,12.5,5.61,12.5,12.52-5.59,12.52-12.5,12.52Z"
       id="path12" />
  </g>
  <path
     class="cls-2"
     d="M100.92,53.97c-14.64,0-26.48-11.86-26.48-26.48S86.27,1.01,100.92,1.01s26.46,11.86,26.46,26.48-11.84,26.48-26.46,26.48Zm0-39c-6.93,0-12.52,5.61-12.52,12.52s5.59,12.52,12.52,12.52,12.5-5.61,12.5-12.52-5.59-12.52-12.5-12.52Z"
     id="path16"
     inkscape:export-xdpi="600"
     inkscape:export-ydpi="600" />
  <path
     class="cls-2"
     d="M27.8,161.25c-6.93,0-12.52,5.61-12.52,12.52s5.59,12.52,12.52,12.52,12.5-5.61,12.5-12.52-5.59-12.52-12.5-12.52Z"
     id="path18"
     inkscape:export-xdpi="600"
     inkscape:export-ydpi="600" />
  <g
     id="g96">
    <g
       id="g48"
       inkscape:export-xdpi="600"
       inkscape:export-ydpi="600">
      <path
         class="cls-1"
         d="M262.84,196.28c-2.45,0-4.66-.46-6.63-1.37-1.98-.91-3.54-2.24-4.68-3.98-1.15-1.74-1.72-3.88-1.72-6.41,0-2.18,.42-3.97,1.26-5.38,.84-1.41,1.97-2.52,3.39-3.34,1.43-.82,3.02-1.44,4.78-1.86,1.76-.42,3.55-.73,5.37-.95,2.31-.27,4.19-.49,5.63-.67s2.49-.46,3.14-.87c.65-.4,.98-1.05,.98-1.96v-.18c0-2.19-.61-3.9-1.84-5.1-1.23-1.2-3.06-1.81-5.49-1.81s-4.52,.56-5.97,1.67c-1.45,1.11-2.45,2.35-3,3.71l-7.06-1.61c.84-2.34,2.06-4.24,3.68-5.69,1.62-1.45,3.48-2.5,5.59-3.17,2.11-.66,4.33-.99,6.66-.99,1.54,0,3.18,.18,4.91,.54,1.74,.36,3.36,1.02,4.87,1.97,1.52,.96,2.76,2.32,3.73,4.08,.97,1.77,1.46,4.06,1.46,6.87v25.63h-7.34v-5.28h-.3c-.49,.97-1.22,1.93-2.19,2.86-.97,.94-2.22,1.72-3.74,2.34-1.52,.62-3.35,.93-5.48,.93Zm1.64-6.03c2.08,0,3.86-.41,5.34-1.23,1.48-.82,2.61-1.9,3.39-3.23,.78-1.33,1.17-2.76,1.17-4.28v-4.97c-.27,.27-.78,.52-1.55,.74-.76,.23-1.63,.42-2.6,.58s-1.92,.3-2.84,.43c-.92,.13-1.69,.23-2.31,.32-1.46,.18-2.79,.5-3.98,.93-1.2,.44-2.15,1.06-2.86,1.87-.71,.81-1.06,1.89-1.06,3.23,0,1.86,.69,3.26,2.06,4.21,1.37,.95,3.12,1.42,5.25,1.42Z"
         id="path20" />
      <path
         class="cls-1"
         d="M299.08,172.51v22.91h-7.51v-38.59h7.21v6.28h.48c.88-2.04,2.28-3.68,4.18-4.93,1.9-1.24,4.3-1.86,7.2-1.86,2.63,0,4.93,.55,6.91,1.64,1.98,1.1,3.51,2.73,4.6,4.89,1.09,2.16,1.63,4.83,1.63,8.01v24.54h-7.51v-23.64c0-2.8-.73-4.99-2.18-6.57-1.46-1.58-3.46-2.37-6.01-2.37-1.74,0-3.28,.38-4.63,1.13-1.35,.75-2.41,1.86-3.19,3.3-.78,1.45-1.17,3.2-1.17,5.24Z"
         id="path22" />
      <path
         class="cls-1"
         d="M347.8,196.18c-3.11,0-5.89-.8-8.33-2.4-2.44-1.6-4.35-3.89-5.73-6.86-1.38-2.98-2.07-6.54-2.07-10.72s.7-7.74,2.1-10.7c1.4-2.97,3.32-5.24,5.76-6.81,2.45-1.57,5.22-2.36,8.32-2.36,2.4,0,4.32,.4,5.79,1.19,1.46,.79,2.61,1.72,3.42,2.78,.81,1.06,1.45,1.99,1.9,2.79h.45v-19.12h7.51v51.45h-7.34v-6.01h-.63c-.45,.82-1.1,1.76-1.95,2.81-.85,1.05-2,1.98-3.48,2.76-1.47,.79-3.39,1.18-5.73,1.18Zm1.66-6.41c2.16,0,3.99-.58,5.49-1.72,1.5-1.15,2.64-2.74,3.42-4.79,.78-2.04,1.17-4.42,1.17-7.13s-.38-5.02-1.16-7.03c-.77-2.01-1.9-3.58-3.39-4.7-1.49-1.12-3.33-1.69-5.53-1.69s-4.15,.59-5.65,1.76c-1.51,1.17-2.64,2.77-3.4,4.8-.76,2.03-1.15,4.31-1.15,6.86s.39,4.9,1.16,6.96c.77,2.06,1.92,3.69,3.43,4.89,1.52,1.2,3.39,1.8,5.61,1.8Z"
         id="path24" />
      <path
         class="cls-1"
         d="M396.36,195.42v-38.59h7.26v6.13h.41c.7-2.08,1.94-3.71,3.73-4.91,1.78-1.2,3.8-1.8,6.07-1.8,.47,0,1.03,.02,1.67,.05,.64,.03,1.15,.08,1.52,.13v7.19c-.3-.08-.84-.18-1.61-.29-.77-.11-1.54-.17-2.31-.17-1.78,0-3.35,.37-4.73,1.12-1.38,.75-2.48,1.78-3.28,3.09-.81,1.31-1.21,2.81-1.21,4.49v23.56h-7.51Z"
         id="path26" />
      <path
         class="cls-1"
         d="M439.27,196.2c-3.8,0-7.07-.82-9.81-2.45-2.74-1.63-4.85-3.93-6.33-6.91-1.48-2.97-2.22-6.46-2.22-10.46s.74-7.44,2.22-10.45c1.48-3.01,3.56-5.37,6.23-7.06,2.67-1.69,5.8-2.54,9.38-2.54,2.18,0,4.29,.36,6.33,1.08,2.04,.72,3.88,1.85,5.5,3.39,1.62,1.54,2.9,3.54,3.84,5.99,.94,2.45,1.41,5.43,1.41,8.93v2.66h-30.67v-5.63h23.31c0-1.98-.4-3.73-1.2-5.26-.81-1.53-1.93-2.74-3.38-3.63-1.45-.89-3.15-1.33-5.09-1.33-2.11,0-3.95,.52-5.51,1.55-1.57,1.03-2.77,2.37-3.62,4.02-.85,1.65-1.27,3.44-1.27,5.37v4.39c0,2.58,.46,4.78,1.37,6.58,.92,1.81,2.19,3.19,3.83,4.14,1.64,.94,3.56,1.42,5.75,1.42,1.42,0,2.72-.21,3.9-.62,1.17-.41,2.18-1.02,3.04-1.85,.85-.82,1.51-1.83,1.96-3.04l7.11,1.28c-.57,2.09-1.59,3.92-3.05,5.49-1.46,1.57-3.3,2.78-5.5,3.64-2.21,.86-4.71,1.29-7.53,1.29Z"
         id="path28" />
      <path
         class="cls-1"
         d="M492.38,166.25l-6.81,1.21c-.29-.87-.74-1.7-1.34-2.49-.61-.79-1.44-1.43-2.47-1.93-1.04-.5-2.34-.75-3.9-.75-2.13,0-3.9,.47-5.32,1.42-1.42,.94-2.14,2.16-2.14,3.65,0,1.29,.48,2.33,1.43,3.12,.95,.79,2.5,1.43,4.62,1.93l6.13,1.4c3.55,.82,6.19,2.09,7.94,3.8,1.74,1.71,2.61,3.93,2.61,6.66,0,2.31-.66,4.37-1.99,6.17-1.33,1.8-3.18,3.21-5.55,4.23-2.37,1.02-5.11,1.53-8.23,1.53-4.32,0-7.85-.93-10.57-2.78-2.73-1.85-4.41-4.48-5.02-7.9l7.26-1.11c.45,1.89,1.38,3.32,2.79,4.28,1.4,.96,3.24,1.44,5.5,1.44,2.46,0,4.43-.51,5.9-1.55,1.47-1.03,2.21-2.29,2.21-3.78,0-1.21-.45-2.22-1.34-3.04-.9-.82-2.27-1.44-4.11-1.86l-6.53-1.43c-3.6-.82-6.26-2.13-7.98-3.92-1.72-1.79-2.57-4.06-2.57-6.81,0-2.28,.64-4.27,1.91-5.98,1.27-1.71,3.03-3.04,5.27-4.01,2.24-.96,4.82-1.44,7.71-1.44,4.17,0,7.45,.9,9.85,2.7,2.4,1.8,3.97,4.21,4.75,7.22Z"
         id="path30" />
      <path
         class="cls-1"
         d="M518.77,156.84v6.03h-21.08v-6.03h21.08Zm-15.42-9.25h7.51v36.5c0,1.46,.22,2.55,.65,3.28,.43,.73,1,1.22,1.69,1.48,.7,.26,1.45,.39,2.27,.39,.6,0,1.13-.04,1.58-.12s.81-.15,1.05-.2l1.36,6.21c-.44,.17-1.05,.34-1.86,.51-.8,.18-1.81,.27-3.01,.29-1.98,.03-3.82-.32-5.53-1.05-1.71-.74-3.09-1.87-4.15-3.42-1.06-1.54-1.58-3.47-1.58-5.8v-38.06Z"
         id="path32" />
      <path
         class="cls-1"
         d="M541.18,196.2c-3.62,0-6.78-.83-9.47-2.49-2.7-1.66-4.79-3.98-6.28-6.96-1.49-2.98-2.23-6.46-2.23-10.45s.75-7.5,2.23-10.5c1.49-3,3.58-5.32,6.28-6.98,2.69-1.66,5.85-2.49,9.47-2.49s6.78,.83,9.47,2.49c2.69,1.66,4.79,3.98,6.28,6.98,1.49,3,2.24,6.5,2.24,10.5s-.75,7.47-2.24,10.45c-1.49,2.98-3.58,5.3-6.28,6.96-2.7,1.66-5.85,2.49-9.47,2.49Zm.03-6.31c2.34,0,4.29-.62,5.83-1.86,1.54-1.24,2.69-2.89,3.43-4.95,.74-2.06,1.11-4.33,1.11-6.81s-.37-4.73-1.11-6.8c-.75-2.07-1.89-3.73-3.43-4.99-1.54-1.26-3.48-1.89-5.83-1.89s-4.32,.63-5.87,1.89c-1.55,1.26-2.69,2.92-3.44,4.99-.75,2.07-1.12,4.33-1.12,6.8s.37,4.75,1.12,6.81c.75,2.06,1.89,3.71,3.44,4.95,1.55,1.24,3.51,1.86,5.87,1.86Z"
         id="path34" />
      <path
         class="cls-1"
         d="M567.19,195.42v-38.59h7.26v6.13h.4c.7-2.08,1.95-3.71,3.73-4.91,1.79-1.2,3.81-1.8,6.07-1.8,.47,0,1.02,.02,1.67,.05,.64,.03,1.15,.08,1.52,.13v7.19c-.3-.08-.84-.18-1.61-.29-.77-.11-1.54-.17-2.31-.17-1.77,0-3.35,.37-4.73,1.12-1.38,.75-2.47,1.78-3.28,3.09-.8,1.31-1.2,2.81-1.2,4.49v23.56h-7.51Z"
         id="path36" />
      <path
         class="cls-1"
         d="M605.26,196.28c-2.45,0-4.66-.46-6.63-1.37s-3.54-2.24-4.68-3.98c-1.15-1.74-1.72-3.88-1.72-6.41,0-2.18,.42-3.97,1.26-5.38,.84-1.41,1.97-2.52,3.39-3.34,1.43-.82,3.02-1.44,4.78-1.86,1.76-.42,3.55-.73,5.37-.95,2.31-.27,4.19-.49,5.63-.67s2.49-.46,3.14-.87c.65-.4,.98-1.05,.98-1.96v-.18c0-2.19-.61-3.9-1.84-5.1-1.23-1.2-3.06-1.81-5.49-1.81s-4.52,.56-5.97,1.67c-1.45,1.11-2.45,2.35-3,3.71l-7.06-1.61c.84-2.34,2.06-4.24,3.68-5.69,1.62-1.45,3.48-2.5,5.59-3.17,2.11-.66,4.33-.99,6.66-.99,1.54,0,3.18,.18,4.91,.54,1.74,.36,3.36,1.02,4.87,1.97,1.52,.96,2.76,2.32,3.73,4.08,.97,1.77,1.46,4.06,1.46,6.87v25.63h-7.34v-5.28h-.3c-.49,.97-1.22,1.93-2.19,2.86-.97,.94-2.22,1.72-3.74,2.34-1.52,.62-3.35,.93-5.48,.93Zm1.64-6.03c2.08,0,3.86-.41,5.34-1.23,1.48-.82,2.61-1.9,3.39-3.23,.78-1.33,1.17-2.76,1.17-4.28v-4.97c-.27,.27-.78,.52-1.55,.74-.76,.23-1.63,.42-2.6,.58s-1.92,.3-2.84,.43c-.92,.13-1.69,.23-2.31,.32-1.46,.18-2.79,.5-3.98,.93-1.2,.44-2.15,1.06-2.86,1.87-.71,.81-1.06,1.89-1.06,3.23,0,1.86,.69,3.26,2.06,4.21,1.37,.95,3.12,1.42,5.25,1.42Z"
         id="path38" />
      <path
         class="cls-1"
         d="M651.12,156.84v6.03h-21.08v-6.03h21.08Zm-15.42-9.25h7.51v36.5c0,1.46,.22,2.55,.65,3.28,.43,.73,1,1.22,1.69,1.48,.7,.26,1.45,.39,2.27,.39,.6,0,1.13-.04,1.58-.12s.81-.15,1.05-.2l1.36,6.21c-.44,.17-1.05,.34-1.86,.51-.8,.18-1.81,.27-3.01,.29-1.98,.03-3.82-.32-5.53-1.05-1.71-.74-3.09-1.87-4.15-3.42-1.06-1.54-1.58-3.47-1.58-5.8v-38.06Z"
         id="path40" />
      <path
         class="cls-1"
         d="M662.25,150.88c-1.31,0-2.43-.44-3.35-1.32-.93-.88-1.4-1.93-1.4-3.15s.47-2.3,1.4-3.18c.93-.88,2.04-1.32,3.35-1.32s2.42,.44,3.35,1.32,1.4,1.94,1.4,3.18-.47,2.28-1.4,3.15c-.93,.88-2.05,1.32-3.35,1.32Zm-3.8,44.54v-38.59h7.51v38.59h-7.51Z"
         id="path42" />
      <path
         class="cls-1"
         d="M691.69,196.2c-3.62,0-6.78-.83-9.47-2.49-2.7-1.66-4.79-3.98-6.28-6.96-1.49-2.98-2.23-6.46-2.23-10.45s.75-7.5,2.23-10.5c1.49-3,3.58-5.32,6.28-6.98,2.69-1.66,5.85-2.49,9.47-2.49s6.78,.83,9.47,2.49c2.69,1.66,4.79,3.98,6.28,6.98,1.49,3,2.24,6.5,2.24,10.5s-.75,7.47-2.24,10.45c-1.49,2.98-3.58,5.3-6.28,6.96-2.7,1.66-5.85,2.49-9.47,2.49Zm.03-6.31c2.34,0,4.29-.62,5.83-1.86,1.54-1.24,2.69-2.89,3.43-4.95,.74-2.06,1.11-4.33,1.11-6.81s-.37-4.73-1.11-6.8c-.75-2.07-1.89-3.73-3.43-4.99-1.54-1.26-3.48-1.89-5.83-1.89s-4.32,.63-5.87,1.89c-1.55,1.26-2.69,2.92-3.44,4.99-.75,2.07-1.12,4.33-1.12,6.8s.37,4.75,1.12,6.81c.75,2.06,1.89,3.71,3.44,4.95,1.55,1.24,3.51,1.86,5.87,1.86Z"
         id="path44" />
      <path
         class="cls-1"
         d="M725.21,172.51v22.91h-7.51v-38.59h7.21v6.28h.48c.88-2.04,2.28-3.68,4.18-4.93,1.9-1.24,4.3-1.86,7.2-1.86,2.63,0,4.93,.55,6.91,1.64,1.98,1.1,3.51,2.73,4.6,4.89,1.09,2.16,1.63,4.83,1.63,8.01v24.54h-7.51v-23.64c0-2.8-.73-4.99-2.18-6.57-1.46-1.58-3.46-2.37-6.01-2.37-1.74,0-3.28,.38-4.63,1.13-1.35,.75-2.41,1.86-3.19,3.3-.78,1.45-1.17,3.2-1.17,5.24Z"
         id="path46" />
    </g>
    <g
       id="g86">
      <path
         class="cls-1"
         d="M252.22,126.36v-51.45h18.34c4,0,7.32,.73,9.95,2.19,2.63,1.46,4.6,3.45,5.9,5.96,1.3,2.52,1.96,5.36,1.96,8.5s-.66,6.01-1.97,8.53c-1.32,2.52-3.29,4.51-5.93,5.98-2.64,1.47-5.95,2.2-9.94,2.2h-12.61v-6.58h11.91c2.53,0,4.58-.44,6.15-1.32,1.58-.88,2.73-2.08,3.47-3.61,.74-1.52,1.11-3.26,1.11-5.2s-.37-3.67-1.11-5.17c-.74-1.51-1.9-2.69-3.48-3.54-1.58-.85-3.66-1.28-6.24-1.28h-9.75v44.79h-7.76Z"
         id="path50"
         inkscape:export-xdpi="600"
         inkscape:export-ydpi="600" />
      <path
         class="cls-1"
         d="m 310.09,127.14 c -3.62,0 -6.78,-0.83 -9.47,-2.49 -2.69,-1.66 -4.79,-3.98 -6.28,-6.96 -1.49,-2.98 -2.24,-6.47 -2.24,-10.45 0,-3.98 0.75,-7.5 2.24,-10.5 1.49,-3 3.58,-5.32 6.28,-6.98 2.7,-1.66 5.85,-2.49 9.47,-2.49 3.62,0 6.78,0.83 9.47,2.49 2.69,1.66 4.79,3.99 6.28,6.98 1.49,3 2.23,6.5 2.23,10.5 0,4 -0.75,7.47 -2.23,10.45 -1.49,2.98 -3.59,5.3 -6.28,6.96 -2.69,1.66 -5.85,2.49 -9.47,2.49 z m 0.02,-6.31 c 2.34,0 4.29,-0.62 5.83,-1.86 1.54,-1.24 2.68,-2.89 3.43,-4.95 0.75,-2.06 1.12,-4.33 1.12,-6.81 0,-2.48 -0.37,-4.73 -1.12,-6.8 -0.75,-2.07 -1.89,-3.73 -3.43,-4.99 -1.54,-1.26 -3.49,-1.88 -5.83,-1.88 -2.34,0 -4.32,0.63 -5.86,1.88 -1.55,1.26 -2.7,2.92 -3.45,4.99 -0.75,2.07 -1.11,4.33 -1.11,6.8 0,2.47 0.37,4.75 1.11,6.81 0.75,2.06 1.89,3.71 3.45,4.95 1.55,1.24 3.5,1.86 5.86,1.86 z"
         id="path70"
         inkscape:export-xdpi="600"
         inkscape:export-ydpi="600" />
      <path
         class="cls-1"
         d="m 343.57,74.91 v 51.45 h -7.51 V 74.91 Z"
         id="path72"
         inkscape:export-xdpi="600"
         inkscape:export-ydpi="600" />
      <path
         class="cls-1"
         d="m 360.84,74.91 v 51.45 h -7.51 V 74.91 Z"
         id="path74"
         inkscape:export-xdpi="600"
         inkscape:export-ydpi="600" />
      <path
         class="cls-1"
         d="M 395.01,110.36 V 87.78 h 7.54 v 38.59 h -7.38 v -6.68 h -0.41 c -0.88,2.06 -2.31,3.77 -4.26,5.14 -1.95,1.37 -4.38,2.05 -7.27,2.05 -2.48,0 -4.67,-0.55 -6.57,-1.64 -1.9,-1.1 -3.39,-2.73 -4.47,-4.89 -1.08,-2.16 -1.62,-4.83 -1.62,-8.01 V 87.8 h 7.51 v 23.64 c 0,2.63 0.73,4.72 2.18,6.28 1.46,1.56 3.35,2.34 5.68,2.34 1.4,0 2.81,-0.35 4.21,-1.05 1.4,-0.7 2.57,-1.77 3.5,-3.19 0.93,-1.43 1.38,-3.23 1.37,-5.43 z"
         id="path76"
         inkscape:export-xdpi="600"
         inkscape:export-ydpi="600" />
      <path
         class="cls-1"
         d="m 429.97,87.78 v 6.03 h -21.08 v -6.03 z m -15.43,-9.25 h 7.51 v 36.5 c 0,1.46 0.22,2.55 0.65,3.28 0.44,0.73 1,1.22 1.69,1.48 0.7,0.26 1.46,0.39 2.28,0.39 0.6,0 1.13,-0.04 1.58,-0.13 0.45,-0.08 0.8,-0.15 1.05,-0.2 l 1.35,6.2 c -0.43,0.17 -1.05,0.34 -1.86,0.52 -0.81,0.18 -1.81,0.27 -3.02,0.29 -1.98,0.03 -3.82,-0.32 -5.53,-1.05 -1.71,-0.74 -3.09,-1.87 -4.15,-3.42 -1.05,-1.54 -1.58,-3.48 -1.58,-5.8 V 78.53 Z"
         id="path78"
         inkscape:export-xdpi="600"
         inkscape:export-ydpi="600" />
      <path
         class="cls-1"
         d="m 441.09,81.82 c -1.3,0 -2.42,-0.44 -3.35,-1.32 -0.93,-0.88 -1.4,-1.93 -1.4,-3.15 0,-1.22 0.47,-2.3 1.4,-3.18 0.93,-0.88 2.05,-1.32 3.35,-1.32 1.3,0 2.43,0.44 3.35,1.32 0.93,0.88 1.4,1.94 1.4,3.18 0,1.24 -0.47,2.27 -1.4,3.15 -0.93,0.88 -2.04,1.32 -3.35,1.32 z m -3.79,44.54 V 87.77 h 7.51 v 38.59 z"
         id="path80"
         inkscape:export-xdpi="600"
         inkscape:export-ydpi="600" />
      <path
         class="cls-1"
         d="m 470.53,127.14 c -3.62,0 -6.78,-0.83 -9.47,-2.49 -2.69,-1.66 -4.79,-3.98 -6.28,-6.96 -1.49,-2.98 -2.24,-6.47 -2.24,-10.45 0,-3.98 0.75,-7.5 2.24,-10.5 1.49,-3 3.58,-5.32 6.28,-6.98 2.7,-1.66 5.85,-2.49 9.47,-2.49 3.62,0 6.78,0.83 9.47,2.49 2.69,1.66 4.79,3.99 6.28,6.98 1.49,3 2.23,6.5 2.23,10.5 0,4 -0.75,7.47 -2.23,10.45 -1.49,2.98 -3.59,5.3 -6.28,6.96 -2.69,1.66 -5.85,2.49 -9.47,2.49 z m 0.02,-6.31 c 2.34,0 4.29,-0.62 5.83,-1.86 1.54,-1.24 2.68,-2.89 3.43,-4.95 0.75,-2.06 1.12,-4.33 1.12,-6.81 0,-2.48 -0.37,-4.73 -1.12,-6.8 -0.75,-2.07 -1.89,-3.73 -3.43,-4.99 -1.54,-1.26 -3.49,-1.88 -5.83,-1.88 -2.34,0 -4.32,0.63 -5.86,1.88 -1.55,1.26 -2.7,2.92 -3.45,4.99 -0.75,2.07 -1.11,4.33 -1.11,6.8 0,2.47 0.37,4.75 1.11,6.81 0.75,2.06 1.89,3.71 3.45,4.95 1.55,1.24 3.5,1.86 5.86,1.86 z"
         id="path82"
         inkscape:export-xdpi="600"
         inkscape:export-ydpi="600" />
      <path
         class="cls-1"
         d="m 504.05,103.45 v 22.91 h -7.51 V 87.77 h 7.21 v 6.28 h 0.47 c 0.89,-2.04 2.28,-3.68 4.18,-4.92 1.9,-1.24 4.3,-1.86 7.2,-1.86 2.63,0 4.93,0.55 6.91,1.64 1.98,1.1 3.51,2.73 4.6,4.89 1.09,2.16 1.64,4.83 1.64,8.01 v 24.54 h -7.51 v -23.64 c 0,-2.8 -0.73,-4.99 -2.19,-6.57 -1.46,-1.58 -3.46,-2.37 -6,-2.37 -1.74,0 -3.29,0.38 -4.64,1.13 -1.34,0.75 -2.41,1.86 -3.19,3.3 -0.78,1.45 -1.17,3.19 -1.17,5.24 z"
         id="path84"
         inkscape:export-xdpi="600"
         inkscape:export-ydpi="600" />
    </g>
    <path
       class="cls-1"
       d="M174.03,200.25c-14.64,0-26.48-11.86-26.48-26.48s11.84-26.48,26.48-26.48,26.46,11.86,26.46,26.48-11.84,26.48-26.46,26.48Zm0-39c-6.93,0-12.52,5.61-12.52,12.52s5.59,12.52,12.52,12.52,12.5-5.61,12.5-12.52-5.59-12.52-12.5-12.52Z"
       id="path88"
       inkscape:export-xdpi="600"
       inkscape:export-ydpi="600" />
    <path
       class="cls-1"
       d="M174.03,40.01c-6.93,0-12.52-5.61-12.52-12.52s5.59-12.52,12.52-12.52,12.5,5.61,12.5,12.52-5.59,12.52-12.5,12.52Z"
       id="path90"
       inkscape:export-xdpi="600"
       inkscape:export-ydpi="600" />
    <path
       class="cls-1"
       d="M100.92,200.25c-14.64,0-26.48-11.86-26.48-26.48s11.84-26.48,26.48-26.48,26.46,11.86,26.46,26.48-11.84,26.48-26.46,26.48Z"
       id="path92"
       inkscape:export-xdpi="600"
       inkscape:export-ydpi="600" />
    <path
       class="cls-1"
       d="M27.8,1.01C13.15,1.01,1.32,12.87,1.32,27.49s11.84,26.48,26.48,26.48,26.46-11.86,26.46-26.48S42.42,1.01,27.8,1.01Z"
       id="path94"
       inkscape:export-xdpi="600"
       inkscape:export-ydpi="600" />
  </g>
  <g
     id="g126"
     inkscape:export-xdpi="600"
     inkscape:export-ydpi="600">
    <path
       class="cls-2"
       d="M265.7,21.95c-.09-.92-.46-1.64-1.11-2.16-.66-.51-1.59-.77-2.81-.77-.8,0-1.47,.11-2.01,.31-.54,.21-.94,.5-1.21,.86-.27,.36-.41,.78-.41,1.25-.02,.38,.06,.72,.23,1.02,.17,.29,.42,.55,.76,.77,.33,.22,.73,.42,1.2,.58,.47,.17,.99,.31,1.58,.44l2.21,.5c1.27,.28,2.4,.64,3.37,1.11,.98,.46,1.8,1.01,2.46,1.64,.67,.64,1.17,1.37,1.52,2.2,.34,.83,.52,1.76,.53,2.79,0,1.62-.42,3.02-1.23,4.18-.81,1.17-1.98,2.06-3.5,2.68-1.52,.62-3.35,.93-5.49,.93s-4.03-.32-5.63-.97c-1.6-.64-2.84-1.63-3.73-2.94-.89-1.31-1.34-2.98-1.37-4.99h5.95c.05,.83,.27,1.52,.67,2.07,.39,.55,.94,.97,1.63,1.26,.69,.29,1.49,.43,2.4,.43,.84,0,1.55-.11,2.14-.34,.59-.23,1.05-.54,1.36-.94,.32-.4,.48-.86,.49-1.38,0-.49-.16-.9-.45-1.25-.29-.35-.74-.65-1.35-.91-.61-.26-1.38-.49-2.32-.71l-2.69-.63c-2.23-.51-3.98-1.34-5.26-2.48-1.28-1.14-1.92-2.69-1.91-4.64,0-1.59,.42-2.98,1.28-4.18,.86-1.2,2.06-2.13,3.58-2.8,1.52-.67,3.26-1,5.21-1s3.73,.34,5.2,1.01c1.47,.67,2.61,1.62,3.42,2.83,.81,1.22,1.23,2.62,1.24,4.22h-5.95Z"
       id="path98" />
    <path
       class="cls-2"
       d="M300.32,27.1c0,2.83-.54,5.23-1.63,7.2-1.09,1.97-2.56,3.46-4.41,4.48-1.86,1.02-3.93,1.53-6.24,1.53s-4.39-.51-6.24-1.54c-1.85-1.03-3.32-2.53-4.4-4.49-1.08-1.96-1.63-4.36-1.63-7.18s.54-5.23,1.63-7.2c1.08-1.97,2.55-3.46,4.4-4.48,1.85-1.02,3.93-1.53,6.24-1.53s4.38,.51,6.24,1.53c1.85,1.02,3.33,2.51,4.41,4.48,1.09,1.97,1.63,4.37,1.63,7.2Zm-6.36,0c0-1.67-.24-3.09-.71-4.24-.47-1.16-1.15-2.03-2.04-2.63-.88-.59-1.94-.89-3.18-.89s-2.29,.3-3.18,.89c-.89,.59-1.57,1.47-2.04,2.63-.47,1.15-.71,2.57-.71,4.24s.24,3.09,.71,4.25c.47,1.16,1.15,2.03,2.04,2.63,.89,.59,1.95,.89,3.18,.89s2.3-.3,3.18-.89c.88-.59,1.56-1.47,2.04-2.63,.47-1.16,.71-2.57,.71-4.25Z"
       id="path100" />
    <path
       class="cls-2"
       d="M311.04,14.24v25.73h-6.22V14.24h6.22Z"
       id="path102" />
    <path
       class="cls-2"
       d="M315.82,39.97V14.24h6.22v20.68h10.7v5.05h-16.92Z"
       id="path104" />
    <path
       class="cls-2"
       d="M350.75,21.95c-.09-.92-.46-1.64-1.11-2.16-.66-.51-1.59-.77-2.81-.77-.8,0-1.47,.11-2.01,.31-.54,.21-.94,.5-1.21,.86-.27,.36-.41,.78-.41,1.25-.02,.38,.06,.72,.23,1.02,.17,.29,.42,.55,.76,.77,.33,.22,.73,.42,1.2,.58,.47,.17,.99,.31,1.58,.44l2.21,.5c1.27,.28,2.4,.64,3.37,1.11,.98,.46,1.8,1.01,2.46,1.64,.67,.64,1.17,1.37,1.52,2.2,.34,.83,.52,1.76,.53,2.79,0,1.62-.42,3.02-1.23,4.18-.81,1.17-1.98,2.06-3.5,2.68-1.52,.62-3.35,.93-5.49,.93s-4.03-.32-5.63-.97c-1.6-.64-2.84-1.63-3.73-2.94-.89-1.31-1.34-2.98-1.37-4.99h5.95c.05,.83,.27,1.52,.67,2.07,.39,.55,.94,.97,1.63,1.26,.69,.29,1.49,.43,2.4,.43,.84,0,1.55-.11,2.14-.34,.59-.23,1.05-.54,1.36-.94,.32-.4,.48-.86,.49-1.38,0-.49-.16-.9-.45-1.25-.29-.35-.74-.65-1.35-.91-.61-.26-1.38-.49-2.32-.71l-2.69-.63c-2.23-.51-3.98-1.34-5.26-2.48-1.28-1.14-1.92-2.69-1.91-4.64,0-1.59,.42-2.98,1.28-4.18,.86-1.2,2.06-2.13,3.58-2.8,1.52-.67,3.26-1,5.21-1s3.73,.34,5.2,1.01c1.47,.67,2.61,1.62,3.42,2.83,.81,1.22,1.23,2.62,1.24,4.22h-5.95Z"
       id="path106" />
    <path
       class="cls-2"
       d="M369.58,39.97V14.24h17.56v5.05h-11.34v5.27h10.22v5.06h-10.22v10.34h-6.22Z"
       id="path108" />
    <path
       class="cls-2"
       d="M415.43,27.1c0,2.83-.54,5.23-1.63,7.2-1.09,1.97-2.56,3.46-4.41,4.48-1.86,1.02-3.93,1.53-6.24,1.53s-4.39-.51-6.24-1.54c-1.85-1.03-3.32-2.53-4.4-4.49-1.08-1.96-1.63-4.36-1.63-7.18s.54-5.23,1.63-7.2c1.08-1.97,2.55-3.46,4.4-4.48,1.85-1.02,3.93-1.53,6.24-1.53s4.38,.51,6.24,1.53c1.85,1.02,3.33,2.51,4.41,4.48,1.09,1.97,1.63,4.37,1.63,7.2Zm-6.36,0c0-1.67-.24-3.09-.71-4.24-.47-1.16-1.15-2.03-2.04-2.63-.88-.59-1.94-.89-3.18-.89s-2.29,.3-3.18,.89c-.89,.59-1.57,1.47-2.04,2.63-.47,1.15-.71,2.57-.71,4.24s.24,3.09,.71,4.25c.47,1.16,1.15,2.03,2.04,2.63,.89,.59,1.95,.89,3.18,.89s2.3-.3,3.18-.89c.88-.59,1.56-1.47,2.04-2.63,.47-1.16,.71-2.57,.71-4.25Z"
       id="path110" />
    <path
       class="cls-2"
       d="M419.93,39.97V14.24h10.63c1.93,0,3.59,.35,4.99,1.04s2.48,1.68,3.25,2.96c.76,1.29,1.14,2.81,1.14,4.57s-.39,3.3-1.17,4.54c-.78,1.24-1.88,2.19-3.32,2.84-1.43,.65-3.13,.97-5.09,.97h-6.72v-4.9h5.56c.94,0,1.72-.12,2.36-.37s1.11-.62,1.44-1.13c.32-.51,.49-1.16,.49-1.95s-.16-1.46-.49-1.98c-.33-.52-.81-.92-1.45-1.18-.64-.26-1.42-.4-2.35-.4h-3.07v20.71h-6.22Zm14.49-11.76l6.4,11.76h-6.78l-6.28-11.76h6.66Z"
       id="path112" />
    <path
       class="cls-2"
       d="M452.72,39.97V14.24h17.94v5.05h-11.72v5.27h10.8v5.06h-10.8v5.29h11.72v5.05h-17.94Z"
       id="path114" />
    <path
       class="cls-2"
       d="M491,14.24h6.2V30.83c0,1.92-.46,3.59-1.37,5.01-.91,1.42-2.19,2.52-3.82,3.29-1.63,.77-3.53,1.16-5.69,1.16s-4.1-.39-5.73-1.16-2.9-1.87-3.8-3.29c-.91-1.42-1.36-3.09-1.36-5.01V14.24h6.22V30.3c0,.89,.2,1.68,.58,2.37,.39,.7,.93,1.24,1.64,1.63,.7,.39,1.52,.59,2.45,.59s1.74-.2,2.44-.59c.7-.39,1.25-.94,1.64-1.63,.39-.7,.59-1.49,.59-2.37V14.24Z"
       id="path116" />
    <path
       class="cls-2"
       d="M501.98,39.97V14.24h10.63c1.93,0,3.59,.35,4.99,1.04,1.4,.69,2.48,1.68,3.25,2.96,.76,1.29,1.14,2.81,1.14,4.57s-.39,3.3-1.17,4.54c-.78,1.24-1.88,2.19-3.32,2.84-1.43,.65-3.13,.97-5.09,.97h-6.72v-4.9h5.56c.94,0,1.72-.12,2.36-.37s1.11-.62,1.44-1.13c.32-.51,.49-1.16,.49-1.95s-.16-1.46-.49-1.98c-.33-.52-.81-.92-1.45-1.18-.64-.26-1.42-.4-2.35-.4h-3.07v20.71h-6.22Zm14.49-11.76l6.4,11.76h-6.78l-6.28-11.76h6.66Z"
       id="path118" />
    <path
       class="cls-2"
       d="M550.57,27.1c0,2.83-.54,5.23-1.63,7.2-1.09,1.97-2.56,3.46-4.41,4.48-1.86,1.02-3.93,1.53-6.24,1.53s-4.39-.51-6.24-1.54c-1.85-1.03-3.32-2.53-4.4-4.49-1.08-1.96-1.63-4.36-1.63-7.18s.54-5.23,1.63-7.2c1.08-1.97,2.55-3.46,4.4-4.48,1.85-1.02,3.93-1.53,6.24-1.53s4.38,.51,6.24,1.53c1.85,1.02,3.33,2.51,4.41,4.48,1.09,1.97,1.63,4.37,1.63,7.2Zm-6.36,0c0-1.67-.24-3.09-.71-4.24-.47-1.16-1.15-2.03-2.04-2.63-.88-.59-1.94-.89-3.18-.89s-2.29,.3-3.18,.89c-.89,.59-1.57,1.47-2.04,2.63-.47,1.15-.71,2.57-.71,4.24s.24,3.09,.71,4.25c.47,1.16,1.15,2.03,2.04,2.63,.89,.59,1.95,.89,3.18,.89s2.3-.3,3.18-.89c.88-.59,1.56-1.47,2.04-2.63,.47-1.16,.71-2.57,.71-4.25Z"
       id="path120" />
    <path
       class="cls-2"
       d="M555.07,39.97V14.24h10.63c1.93,0,3.59,.38,4.99,1.12,1.4,.75,2.48,1.79,3.25,3.13,.76,1.34,1.14,2.89,1.14,4.65s-.39,3.33-1.16,4.65c-.77,1.33-1.88,2.36-3.31,3.08-1.43,.73-3.13,1.09-5.1,1.09h-6.56v-4.9h5.4c.94,0,1.72-.16,2.36-.49,.63-.33,1.11-.79,1.44-1.38,.32-.59,.49-1.28,.49-2.07s-.16-1.48-.49-2.07c-.33-.58-.81-1.03-1.45-1.35-.64-.32-1.42-.48-2.35-.48h-3.07v20.71h-6.22Z"
       id="path122" />
    <path
       class="cls-2"
       d="M579.01,39.97V14.24h17.94v5.05h-11.72v5.27h10.8v5.06h-10.8v5.29h11.72v5.05h-17.94Z"
       id="path124" />
  </g>
</svg>
