<?xml version="1.0" encoding="UTF-8"?><svg id="Ebene_1" xmlns="http://www.w3.org/2000/svg" viewBox="0 0 598.11 201.26"><defs><style>.cls-1{fill:#8d5616;}.cls-2{fill:#571300;}</style></defs><g><path class="cls-2" d="M30.28,91.03c-.14-1.67-.76-2.98-1.87-3.92-1.11-.94-2.8-1.41-5.06-1.41-1.44,0-2.62,.17-3.53,.51s-1.59,.81-2.02,1.39c-.44,.59-.66,1.26-.68,2.01-.03,.62,.08,1.18,.34,1.67,.26,.49,.67,.94,1.24,1.33,.57,.39,1.3,.75,2.19,1.07,.89,.32,1.94,.6,3.16,.85l4.22,.9c2.85,.6,5.28,1.4,7.31,2.39,2.03,.99,3.68,2.15,4.97,3.48,1.29,1.33,2.24,2.83,2.85,4.48,.61,1.66,.92,3.47,.94,5.43-.02,3.38-.86,6.25-2.54,8.59-1.67,2.34-4.07,4.13-7.17,5.35-3.11,1.22-6.84,1.83-11.19,1.83s-8.37-.66-11.69-1.99c-3.33-1.32-5.9-3.36-7.74-6.12-1.83-2.75-2.76-6.28-2.78-10.59H14.5c.08,1.57,.48,2.9,1.18,3.97,.7,1.07,1.7,1.88,2.98,2.44,1.28,.55,2.81,.83,4.59,.83,1.49,0,2.74-.18,3.74-.55,1-.37,1.77-.88,2.28-1.53,.52-.65,.79-1.4,.8-2.24-.02-.79-.27-1.48-.76-2.07-.5-.59-1.3-1.13-2.42-1.61-1.12-.48-2.64-.92-4.55-1.34l-5.12-1.11c-4.56-.99-8.15-2.64-10.77-4.96-2.62-2.32-3.92-5.49-3.91-9.51-.02-3.27,.86-6.13,2.63-8.58,1.77-2.45,4.22-4.37,7.36-5.74,3.14-1.37,6.75-2.06,10.82-2.06s7.74,.7,10.78,2.09c3.03,1.39,5.37,3.35,7.02,5.87,1.65,2.52,2.48,5.46,2.5,8.83h-13.36Z"/><path class="cls-2" d="M109.48,126.41v-51.45h13.97v40.2h20.8v11.26h-34.77Z"/><path class="cls-2" d="M76.64,74.15c-14.64,0-26.48,11.86-26.48,26.48s11.84,26.48,26.48,26.48,26.46-11.86,26.46-26.48-11.84-26.48-26.46-26.48Zm0,39c-6.93,0-12.52-5.61-12.52-12.52s5.59-12.52,12.52-12.52,12.5,5.61,12.5,12.52-5.59,12.52-12.5,12.52Z"/><path class="cls-2" d="M173.96,74.16c-14.64,0-26.48,11.86-26.48,26.47s11.84,26.47,26.48,26.47,26.46-11.86,26.46-26.47-11.84-26.47-26.46-26.47Zm0,38.99c-6.93,0-12.52-5.61-12.52-12.52s5.59-12.52,12.52-12.52,12.5,5.61,12.5,12.52-5.59,12.52-12.5,12.52Z"/></g><path class="cls-2" d="M100.84,53.97c-14.64,0-26.48-11.86-26.48-26.48S86.19,1.01,100.84,1.01s26.46,11.86,26.46,26.48-11.84,26.48-26.46,26.48Zm0-39c-6.93,0-12.52,5.61-12.52,12.52s5.59,12.52,12.52,12.52,12.5-5.61,12.5-12.52-5.59-12.52-12.5-12.52Z"/><path class="cls-2" d="M27.72,161.25c-6.93,0-12.52,5.61-12.52,12.52s5.59,12.52,12.52,12.52,12.5-5.61,12.5-12.52-5.59-12.52-12.5-12.52Z"/><g><g><path class="cls-1" d="M280.45,166.26l-6.81,1.2c-.29-.87-.73-1.7-1.34-2.49-.61-.79-1.44-1.43-2.47-1.93-1.04-.5-2.34-.75-3.89-.75-2.13,0-3.91,.47-5.33,1.42-1.42,.94-2.13,2.16-2.13,3.65,0,1.29,.47,2.33,1.43,3.12,.96,.79,2.5,1.43,4.62,1.93l6.13,1.4c3.55,.82,6.19,2.09,7.94,3.8,1.74,1.71,2.61,3.93,2.61,6.66,0,2.31-.67,4.37-2,6.17-1.33,1.8-3.18,3.21-5.55,4.23-2.37,1.02-5.11,1.53-8.23,1.53-4.32,0-7.84-.92-10.57-2.78-2.73-1.85-4.4-4.48-5.02-7.9l7.26-1.11c.45,1.89,1.38,3.32,2.79,4.28s3.24,1.44,5.5,1.44c2.46,0,4.43-.51,5.9-1.55,1.47-1.03,2.21-2.29,2.21-3.78,0-1.21-.45-2.22-1.34-3.04-.9-.82-2.27-1.44-4.11-1.86l-6.53-1.43c-3.6-.82-6.26-2.13-7.98-3.92-1.72-1.79-2.57-4.06-2.57-6.81,0-2.28,.64-4.27,1.91-5.98,1.28-1.71,3.03-3.04,5.28-4.01,2.24-.96,4.81-1.44,7.71-1.44,4.17,0,7.45,.9,9.85,2.7,2.4,1.8,3.98,4.21,4.75,7.22Z"/><path class="cls-1" d="M306.85,156.84v6.03h-21.08v-6.03h21.08Zm-15.43-9.25h7.51v36.5c0,1.46,.22,2.55,.65,3.28,.44,.73,1,1.22,1.69,1.48,.7,.26,1.46,.39,2.28,.39,.6,0,1.13-.04,1.58-.13,.45-.08,.8-.15,1.05-.2l1.35,6.2c-.43,.17-1.05,.34-1.86,.52-.81,.18-1.81,.27-3.02,.29-1.98,.03-3.82-.32-5.53-1.05-1.71-.74-3.09-1.87-4.15-3.42-1.05-1.54-1.58-3.48-1.58-5.8v-38.06Z"/><path class="cls-1" d="M314.18,195.42v-38.59h7.26v6.13h.4c.7-2.08,1.95-3.71,3.73-4.91,1.79-1.2,3.81-1.8,6.07-1.8,.47,0,1.02,.02,1.67,.05,.64,.03,1.15,.08,1.52,.12v7.19c-.3-.08-.84-.18-1.61-.29s-1.54-.16-2.31-.16c-1.77,0-3.35,.37-4.73,1.12-1.38,.75-2.47,1.78-3.28,3.09-.8,1.31-1.2,2.81-1.2,4.49v23.56h-7.51Z"/><path class="cls-1" d="M365.4,179.42v-22.58h7.54v38.59h-7.39v-6.68h-.4c-.89,2.06-2.31,3.77-4.26,5.14-1.95,1.37-4.38,2.05-7.27,2.05-2.48,0-4.67-.55-6.57-1.64-1.9-1.1-3.39-2.73-4.47-4.89-1.08-2.16-1.62-4.83-1.62-8.01v-24.54h7.51v23.64c0,2.63,.73,4.72,2.19,6.28,1.46,1.56,3.35,2.34,5.67,2.34,1.41,0,2.81-.35,4.21-1.05,1.4-.7,2.56-1.77,3.49-3.19,.93-1.43,1.39-3.23,1.37-5.43Z"/><path class="cls-1" d="M398.83,196.2c-3.74,0-6.95-.85-9.64-2.55-2.69-1.7-4.75-4.05-6.19-7.05-1.44-3-2.16-6.43-2.16-10.3s.74-7.38,2.21-10.39c1.47-3.01,3.55-5.36,6.23-7.05,2.68-1.69,5.84-2.54,9.47-2.54,2.93,0,5.55,.54,7.84,1.62s4.15,2.59,5.56,4.53c1.42,1.94,2.26,4.21,2.53,6.81h-7.31c-.4-1.81-1.32-3.37-2.75-4.67-1.43-1.31-3.34-1.96-5.74-1.96-2.1,0-3.92,.55-5.49,1.64-1.57,1.1-2.79,2.66-3.66,4.67-.87,2.02-1.3,4.4-1.3,7.15s.42,5.24,1.28,7.29c.85,2.04,2.06,3.62,3.63,4.75,1.57,1.12,3.41,1.68,5.54,1.68,1.42,0,2.72-.26,3.88-.79,1.17-.53,2.15-1.29,2.94-2.27,.79-.99,1.35-2.18,1.67-3.57h7.31c-.27,2.5-1.08,4.72-2.44,6.68-1.35,1.96-3.17,3.5-5.43,4.62-2.27,1.12-4.93,1.68-7.98,1.68Z"/><path class="cls-1" d="M440.2,156.84v6.03h-21.08v-6.03h21.08Zm-15.43-9.25h7.51v36.5c0,1.46,.22,2.55,.65,3.28,.44,.73,1,1.22,1.69,1.48,.7,.26,1.46,.39,2.28,.39,.6,0,1.13-.04,1.58-.13,.45-.08,.8-.15,1.05-.2l1.35,6.2c-.43,.17-1.05,.34-1.86,.52-.81,.18-1.81,.27-3.02,.29-1.98,.03-3.82-.32-5.53-1.05s-3.09-1.87-4.15-3.42c-1.05-1.54-1.58-3.48-1.58-5.8v-38.06Z"/><path class="cls-1" d="M471.6,179.42v-22.58h7.54v38.59h-7.39v-6.68h-.4c-.89,2.06-2.31,3.77-4.26,5.14-1.95,1.37-4.38,2.05-7.27,2.05-2.48,0-4.67-.55-6.57-1.64s-3.39-2.73-4.47-4.89c-1.08-2.16-1.62-4.83-1.62-8.01v-24.54h7.51v23.64c0,2.63,.73,4.72,2.19,6.28,1.46,1.56,3.35,2.34,5.67,2.34,1.41,0,2.81-.35,4.21-1.05,1.4-.7,2.56-1.77,3.49-3.19,.93-1.43,1.39-3.23,1.37-5.43Z"/><path class="cls-1" d="M488.91,195.42v-38.59h7.26v6.13h.4c.7-2.08,1.95-3.71,3.73-4.91,1.79-1.2,3.81-1.8,6.07-1.8,.47,0,1.02,.02,1.67,.05,.64,.03,1.15,.08,1.52,.12v7.19c-.3-.08-.84-.18-1.61-.29s-1.54-.16-2.31-.16c-1.77,0-3.35,.37-4.73,1.12-1.38,.75-2.47,1.78-3.28,3.09-.8,1.31-1.2,2.81-1.2,4.49v23.56h-7.51Z"/><path class="cls-1" d="M531.81,196.2c-3.8,0-7.07-.82-9.81-2.45-2.74-1.63-4.85-3.94-6.33-6.91-1.48-2.97-2.22-6.46-2.22-10.46s.74-7.44,2.22-10.45c1.48-3.01,3.56-5.37,6.23-7.06,2.67-1.69,5.8-2.54,9.38-2.54,2.18,0,4.29,.36,6.33,1.08s3.88,1.85,5.5,3.39c1.62,1.54,2.9,3.54,3.84,5.99,.94,2.45,1.41,5.43,1.41,8.93v2.66h-30.67v-5.63h23.31c0-1.98-.4-3.73-1.2-5.26-.81-1.53-1.93-2.74-3.38-3.63-1.45-.89-3.15-1.33-5.09-1.33-2.11,0-3.95,.52-5.51,1.55-1.57,1.03-2.77,2.37-3.62,4.02-.85,1.65-1.27,3.44-1.27,5.36v4.4c0,2.58,.46,4.77,1.37,6.58,.92,1.81,2.19,3.19,3.83,4.13,1.64,.94,3.56,1.42,5.75,1.42,1.42,0,2.72-.2,3.9-.61,1.17-.41,2.18-1.03,3.04-1.85,.85-.82,1.51-1.84,1.96-3.04l7.11,1.28c-.57,2.09-1.59,3.92-3.05,5.49-1.46,1.57-3.3,2.78-5.5,3.64-2.21,.86-4.71,1.29-7.53,1.29Z"/></g><g><path class="cls-1" d="M280.2,88.43c-.27-2.38-1.37-4.22-3.32-5.54-1.94-1.31-4.39-1.97-7.34-1.97-2.11,0-3.94,.33-5.48,.99-1.54,.66-2.74,1.57-3.58,2.71-.85,1.15-1.27,2.45-1.27,3.91,0,1.22,.29,2.28,.87,3.16,.58,.89,1.34,1.63,2.29,2.22,.94,.59,1.96,1.09,3.05,1.48,1.09,.39,2.14,.72,3.14,.97l5.02,1.31c1.64,.4,3.33,.95,5.05,1.64,1.72,.69,3.32,1.59,4.79,2.71,1.47,1.12,2.67,2.51,3.58,4.17,.91,1.66,1.37,3.64,1.37,5.96,0,2.92-.75,5.5-2.25,7.76-1.5,2.26-3.67,4.04-6.51,5.35-2.84,1.31-6.27,1.96-10.29,1.96s-7.19-.61-10-1.84c-2.81-1.22-5.02-2.96-6.6-5.21-1.59-2.25-2.47-4.93-2.64-8.03h7.79c.15,1.86,.76,3.4,1.82,4.63,1.06,1.23,2.43,2.15,4.09,2.74,1.66,.59,3.5,.89,5.49,.89,2.2,0,4.15-.35,5.87-1.04,1.72-.7,3.07-1.67,4.06-2.91,.99-1.25,1.48-2.71,1.48-4.38,0-1.52-.43-2.77-1.29-3.74s-2.03-1.78-3.49-2.41c-1.46-.64-3.12-1.2-4.97-1.68l-6.08-1.66c-4.12-1.12-7.38-2.77-9.78-4.95-2.4-2.18-3.61-5.06-3.61-8.64,0-2.97,.81-5.55,2.41-7.76,1.61-2.21,3.79-3.93,6.53-5.16s5.84-1.85,9.29-1.85,6.56,.61,9.23,1.84c2.67,1.22,4.78,2.9,6.32,5.04,1.54,2.13,2.34,4.59,2.41,7.35h-7.48Z"/><path class="cls-1" d="M313,127.14c-3.62,0-6.78-.83-9.47-2.49-2.69-1.66-4.79-3.97-6.28-6.96-1.49-2.98-2.24-6.46-2.24-10.45s.75-7.5,2.24-10.5c1.49-3,3.58-5.32,6.28-6.98,2.7-1.66,5.85-2.49,9.47-2.49s6.78,.83,9.47,2.49c2.69,1.66,4.79,3.99,6.28,6.98,1.49,3,2.23,6.5,2.23,10.5s-.75,7.47-2.23,10.45c-1.49,2.98-3.59,5.3-6.28,6.96-2.69,1.66-5.85,2.49-9.47,2.49Zm.02-6.31c2.34,0,4.29-.62,5.83-1.86,1.54-1.24,2.68-2.89,3.43-4.95,.75-2.06,1.12-4.33,1.12-6.81s-.37-4.73-1.12-6.8c-.75-2.07-1.89-3.73-3.43-4.99-1.54-1.26-3.49-1.89-5.83-1.89s-4.32,.63-5.86,1.89c-1.55,1.26-2.7,2.92-3.45,4.99-.75,2.07-1.11,4.33-1.11,6.8s.37,4.75,1.11,6.81c.75,2.06,1.89,3.71,3.45,4.95,1.55,1.24,3.5,1.86,5.86,1.86Z"/><path class="cls-1" d="M342.63,81.82c-1.31,0-2.43-.44-3.35-1.32-.93-.88-1.4-1.93-1.4-3.15s.47-2.3,1.4-3.18c.93-.88,2.04-1.32,3.35-1.32s2.42,.44,3.35,1.32c.93,.88,1.4,1.94,1.4,3.18s-.47,2.27-1.4,3.15c-.93,.88-2.05,1.32-3.35,1.32Zm-3.8,44.54v-38.59h7.51v38.59h-7.51Z"/><path class="cls-1" d="M363.7,74.91v51.45h-7.51v-51.45h7.51Z"/></g><path class="cls-1" d="M173.96,200.25c-14.64,0-26.48-11.86-26.48-26.48s11.84-26.48,26.48-26.48,26.46,11.86,26.46,26.48-11.84,26.48-26.46,26.48Zm0-39c-6.93,0-12.52,5.61-12.52,12.52s5.59,12.52,12.52,12.52,12.5-5.61,12.5-12.52-5.59-12.52-12.5-12.52Z"/><path class="cls-1" d="M173.96,40.01c-6.93,0-12.52-5.61-12.52-12.52s5.59-12.52,12.52-12.52,12.5,5.61,12.5,12.52-5.59,12.52-12.5,12.52Z"/><path class="cls-1" d="M100.84,200.25c-14.64,0-26.48-11.86-26.48-26.48s11.84-26.48,26.48-26.48,26.46,11.86,26.46,26.48-11.84,26.48-26.46,26.48Z"/><path class="cls-1" d="M27.72,1.01C13.08,1.01,1.24,12.87,1.24,27.49s11.84,26.48,26.48,26.48,26.46-11.86,26.46-26.48S42.34,1.01,27.72,1.01Z"/></g><g><path class="cls-2" d="M265.62,21.95c-.09-.92-.46-1.64-1.11-2.16-.66-.51-1.59-.77-2.81-.77-.8,0-1.47,.11-2.01,.31-.54,.21-.94,.5-1.21,.86-.27,.36-.41,.78-.41,1.25-.02,.38,.06,.72,.23,1.02,.17,.29,.42,.55,.76,.77,.33,.22,.73,.42,1.2,.58,.47,.17,.99,.31,1.58,.44l2.21,.5c1.27,.28,2.4,.64,3.37,1.11,.98,.46,1.8,1.01,2.46,1.64,.67,.64,1.17,1.37,1.52,2.2,.34,.83,.52,1.76,.53,2.79,0,1.62-.42,3.02-1.23,4.18-.81,1.17-1.98,2.06-3.5,2.68s-3.35,.93-5.49,.93-4.03-.32-5.63-.97c-1.6-.64-2.84-1.63-3.73-2.94-.89-1.31-1.34-2.98-1.37-4.99h5.95c.05,.83,.27,1.52,.67,2.07,.39,.55,.94,.97,1.63,1.26,.69,.29,1.49,.43,2.4,.43,.84,0,1.55-.11,2.14-.34,.59-.23,1.05-.54,1.36-.94,.32-.4,.48-.86,.49-1.38,0-.49-.16-.9-.45-1.25-.29-.35-.74-.65-1.35-.91-.61-.26-1.38-.49-2.32-.71l-2.69-.63c-2.23-.51-3.98-1.34-5.26-2.48-1.28-1.14-1.92-2.69-1.91-4.64,0-1.59,.42-2.98,1.28-4.18,.86-1.2,2.06-2.13,3.58-2.8,1.52-.67,3.26-1,5.21-1s3.73,.34,5.2,1.01c1.47,.67,2.61,1.62,3.42,2.83,.81,1.22,1.23,2.62,1.24,4.22h-5.95Z"/><path class="cls-2" d="M300.24,27.1c0,2.83-.54,5.23-1.63,7.2-1.09,1.97-2.56,3.46-4.41,4.48-1.86,1.02-3.93,1.53-6.24,1.53s-4.39-.51-6.24-1.54c-1.85-1.03-3.32-2.53-4.4-4.49-1.08-1.96-1.63-4.36-1.63-7.18s.54-5.23,1.63-7.2c1.08-1.97,2.55-3.46,4.4-4.48,1.85-1.02,3.93-1.53,6.24-1.53s4.38,.51,6.24,1.53c1.85,1.02,3.33,2.51,4.41,4.48,1.09,1.97,1.63,4.37,1.63,7.2Zm-6.36,0c0-1.67-.24-3.09-.71-4.24-.47-1.16-1.15-2.03-2.04-2.63-.88-.59-1.94-.89-3.18-.89s-2.29,.3-3.18,.89c-.89,.59-1.57,1.47-2.04,2.63-.47,1.15-.71,2.57-.71,4.24s.24,3.09,.71,4.25c.47,1.16,1.15,2.03,2.04,2.63,.89,.59,1.95,.89,3.18,.89s2.3-.3,3.18-.89c.88-.59,1.56-1.47,2.04-2.63,.47-1.16,.71-2.57,.71-4.25Z"/><path class="cls-2" d="M310.96,14.24v25.73h-6.22V14.24h6.22Z"/><path class="cls-2" d="M315.74,39.97V14.24h6.22v20.68h10.7v5.05h-16.92Z"/><path class="cls-2" d="M350.67,21.95c-.09-.92-.46-1.64-1.11-2.16-.66-.51-1.59-.77-2.81-.77-.8,0-1.47,.11-2.01,.31-.54,.21-.94,.5-1.21,.86-.27,.36-.41,.78-.41,1.25-.02,.38,.06,.72,.23,1.02,.17,.29,.42,.55,.76,.77,.33,.22,.73,.42,1.2,.58,.47,.17,.99,.31,1.58,.44l2.21,.5c1.27,.28,2.4,.64,3.37,1.11,.98,.46,1.8,1.01,2.46,1.64,.67,.64,1.17,1.37,1.52,2.2,.34,.83,.52,1.76,.53,2.79,0,1.62-.42,3.02-1.23,4.18-.81,1.17-1.98,2.06-3.5,2.68-1.52,.62-3.35,.93-5.49,.93s-4.03-.32-5.63-.97c-1.6-.64-2.84-1.63-3.73-2.94-.89-1.31-1.34-2.98-1.37-4.99h5.95c.05,.83,.27,1.52,.67,2.07s.94,.97,1.63,1.26c.69,.29,1.49,.43,2.4,.43,.84,0,1.55-.11,2.14-.34,.59-.23,1.05-.54,1.36-.94,.32-.4,.48-.86,.49-1.38,0-.49-.16-.9-.45-1.25-.29-.35-.74-.65-1.35-.91-.61-.26-1.38-.49-2.32-.71l-2.69-.63c-2.23-.51-3.98-1.34-5.26-2.48-1.28-1.14-1.92-2.69-1.91-4.64,0-1.59,.42-2.98,1.28-4.18,.86-1.2,2.06-2.13,3.58-2.8,1.52-.67,3.26-1,5.21-1s3.73,.34,5.2,1.01c1.47,.67,2.61,1.62,3.42,2.83,.81,1.22,1.23,2.62,1.24,4.22h-5.95Z"/><path class="cls-2" d="M369.51,39.97V14.24h17.56v5.05h-11.34v5.27h10.22v5.06h-10.22v10.34h-6.22Z"/><path class="cls-2" d="M415.35,27.1c0,2.83-.54,5.23-1.63,7.2-1.09,1.97-2.56,3.46-4.41,4.48-1.86,1.02-3.93,1.53-6.24,1.53s-4.39-.51-6.24-1.54c-1.85-1.03-3.32-2.53-4.4-4.49-1.08-1.96-1.63-4.36-1.63-7.18s.54-5.23,1.63-7.2c1.08-1.97,2.55-3.46,4.4-4.48,1.85-1.02,3.93-1.53,6.24-1.53s4.38,.51,6.24,1.53c1.85,1.02,3.33,2.51,4.41,4.48,1.09,1.97,1.63,4.37,1.63,7.2Zm-6.36,0c0-1.67-.24-3.09-.71-4.24-.47-1.16-1.15-2.03-2.04-2.63-.88-.59-1.94-.89-3.18-.89s-2.29,.3-3.18,.89c-.89,.59-1.57,1.47-2.04,2.63-.47,1.15-.71,2.57-.71,4.24s.24,3.09,.71,4.25c.47,1.16,1.15,2.03,2.04,2.63,.89,.59,1.95,.89,3.18,.89s2.3-.3,3.18-.89c.88-.59,1.56-1.47,2.04-2.63,.47-1.16,.71-2.57,.71-4.25Z"/><path class="cls-2" d="M419.85,39.97V14.24h10.63c1.93,0,3.59,.35,4.99,1.04,1.4,.69,2.48,1.68,3.25,2.96,.76,1.29,1.14,2.81,1.14,4.57s-.39,3.3-1.17,4.54-1.88,2.19-3.32,2.84c-1.43,.65-3.13,.97-5.09,.97h-6.72v-4.9h5.56c.94,0,1.72-.12,2.36-.37,.63-.25,1.11-.62,1.44-1.13,.32-.51,.49-1.16,.49-1.95s-.16-1.46-.49-1.98c-.33-.52-.81-.92-1.45-1.18-.64-.26-1.42-.4-2.35-.4h-3.07v20.71h-6.22Zm14.49-11.76l6.4,11.76h-6.78l-6.28-11.76h6.66Z"/><path class="cls-2" d="M452.64,39.97V14.24h17.94v5.05h-11.72v5.27h10.8v5.06h-10.8v5.29h11.72v5.05h-17.94Z"/><path class="cls-2" d="M490.92,14.24h6.2V30.83c0,1.92-.46,3.59-1.37,5.01-.91,1.42-2.19,2.52-3.82,3.29-1.63,.77-3.53,1.16-5.69,1.16s-4.1-.39-5.73-1.16c-1.63-.77-2.9-1.87-3.8-3.29-.91-1.42-1.36-3.09-1.36-5.01V14.24h6.22V30.3c0,.89,.2,1.68,.58,2.37,.39,.7,.93,1.24,1.64,1.63,.7,.39,1.52,.59,2.45,.59s1.74-.2,2.44-.59c.7-.39,1.25-.94,1.64-1.63,.39-.7,.59-1.49,.59-2.37V14.24Z"/><path class="cls-2" d="M501.91,39.97V14.24h10.63c1.93,0,3.59,.35,4.99,1.04s2.48,1.68,3.25,2.96,1.14,2.81,1.14,4.57-.39,3.3-1.17,4.54-1.88,2.19-3.32,2.84c-1.43,.65-3.13,.97-5.09,.97h-6.72v-4.9h5.56c.94,0,1.72-.12,2.36-.37,.63-.25,1.11-.62,1.44-1.13,.32-.51,.49-1.16,.49-1.95s-.16-1.46-.49-1.98c-.33-.52-.81-.92-1.45-1.18-.64-.26-1.42-.4-2.35-.4h-3.07v20.71h-6.22Zm14.49-11.76l6.4,11.76h-6.78l-6.28-11.76h6.66Z"/><path class="cls-2" d="M550.49,27.1c0,2.83-.54,5.23-1.63,7.2-1.09,1.97-2.56,3.46-4.41,4.48-1.86,1.02-3.93,1.53-6.24,1.53s-4.39-.51-6.24-1.54c-1.85-1.03-3.32-2.53-4.4-4.49-1.08-1.96-1.63-4.36-1.63-7.18s.54-5.23,1.63-7.2c1.08-1.97,2.55-3.46,4.4-4.48,1.85-1.02,3.93-1.53,6.24-1.53s4.38,.51,6.24,1.53c1.85,1.02,3.33,2.51,4.41,4.48,1.09,1.97,1.63,4.37,1.63,7.2Zm-6.36,0c0-1.67-.24-3.09-.71-4.24-.47-1.16-1.15-2.03-2.04-2.63-.88-.59-1.94-.89-3.18-.89s-2.29,.3-3.18,.89c-.89,.59-1.57,1.47-2.04,2.63-.47,1.15-.71,2.57-.71,4.24s.24,3.09,.71,4.25c.47,1.16,1.15,2.03,2.04,2.63,.89,.59,1.95,.89,3.18,.89s2.3-.3,3.18-.89c.88-.59,1.56-1.47,2.04-2.63,.47-1.16,.71-2.57,.71-4.25Z"/><path class="cls-2" d="M554.99,39.97V14.24h10.63c1.93,0,3.59,.38,4.99,1.12,1.4,.75,2.48,1.79,3.25,3.13,.76,1.34,1.14,2.89,1.14,4.65s-.39,3.33-1.16,4.65c-.77,1.33-1.88,2.36-3.31,3.08-1.43,.73-3.13,1.09-5.1,1.09h-6.56v-4.9h5.4c.94,0,1.72-.16,2.36-.49,.63-.33,1.11-.79,1.44-1.38,.32-.59,.49-1.28,.49-2.07s-.16-1.48-.49-2.07c-.33-.58-.81-1.03-1.45-1.35-.64-.32-1.42-.48-2.35-.48h-3.07v20.71h-6.22Z"/><path class="cls-2" d="M578.93,39.97V14.24h17.94v5.05h-11.72v5.27h10.8v5.06h-10.8v5.29h11.72v5.05h-17.94Z"/></g></svg>