<?xml version="1.0" encoding="UTF-8"?><svg id="Ebene_1" xmlns="http://www.w3.org/2000/svg" viewBox="0 0 921.26 209.76"><defs><style>.cls-1{fill:#007d44;}.cls-2{fill:#571300;}</style></defs><g><path class="cls-2" d="M30.54,90.47c-.14-1.67-.76-2.98-1.87-3.92-1.11-.94-2.8-1.41-5.06-1.41-1.44,0-2.62,.17-3.53,.51-.91,.34-1.59,.81-2.02,1.39s-.66,1.26-.68,2.01c-.03,.62,.08,1.18,.34,1.67,.26,.49,.67,.94,1.24,1.33,.57,.39,1.3,.75,2.19,1.07,.89,.32,1.94,.6,3.16,.85l4.22,.9c2.85,.6,5.28,1.4,7.31,2.39s3.68,2.15,4.97,3.48c1.29,1.33,2.24,2.83,2.85,4.48,.61,1.66,.92,3.47,.94,5.43-.02,3.38-.86,6.25-2.54,8.59-1.67,2.34-4.07,4.13-7.17,5.35-3.11,1.22-6.84,1.83-11.19,1.83s-8.37-.66-11.69-1.99-5.9-3.36-7.74-6.12c-1.83-2.75-2.76-6.28-2.78-10.59H14.76c.08,1.57,.48,2.9,1.18,3.97,.7,1.07,1.7,1.88,2.98,2.44,1.28,.55,2.81,.83,4.59,.83,1.49,0,2.74-.18,3.74-.55,1-.37,1.77-.88,2.28-1.53,.52-.65,.79-1.4,.8-2.24-.02-.79-.27-1.48-.76-2.07-.5-.59-1.3-1.13-2.43-1.61-1.12-.48-2.64-.92-4.55-1.34l-5.12-1.11c-4.56-.99-8.15-2.64-10.77-4.96-2.62-2.32-3.92-5.49-3.91-9.51-.02-3.27,.86-6.13,2.63-8.58,1.77-2.45,4.22-4.37,7.36-5.74,3.14-1.37,6.75-2.06,10.82-2.06s7.74,.7,10.78,2.09c3.03,1.39,5.37,3.35,7.02,5.87,1.65,2.52,2.48,5.46,2.5,8.83h-13.36Z"/><path class="cls-2" d="M109.74,125.84v-51.45h13.97v40.2h20.8v11.26h-34.77Z"/><path class="cls-2" d="M76.9,73.58c-14.64,0-26.48,11.86-26.48,26.48s11.84,26.48,26.48,26.48,26.46-11.86,26.46-26.48-11.84-26.48-26.46-26.48Zm0,39.01c-6.93,0-12.52-5.61-12.52-12.52s5.59-12.52,12.52-12.52,12.5,5.61,12.5,12.52-5.59,12.52-12.5,12.52Z"/><path class="cls-2" d="M174.22,73.59c-14.64,0-26.48,11.86-26.48,26.47s11.84,26.47,26.48,26.47,26.46-11.86,26.46-26.47-11.84-26.47-26.46-26.47Zm0,38.99c-6.93,0-12.52-5.61-12.52-12.52s5.59-12.52,12.52-12.52,12.5,5.61,12.5,12.52-5.59,12.52-12.5,12.52Z"/></g><path class="cls-2" d="M101.1,53.4c-14.64,0-26.48-11.86-26.48-26.48S86.45,.44,101.1,.44s26.46,11.86,26.46,26.48-11.84,26.48-26.46,26.48Zm0-39.01c-6.93,0-12.52,5.61-12.52,12.52s5.59,12.52,12.52,12.52,12.5-5.61,12.5-12.52-5.59-12.52-12.5-12.52Z"/><path class="cls-2" d="M27.98,160.68c-6.93,0-12.52,5.61-12.52,12.52s5.59,12.52,12.52,12.52,12.5-5.61,12.5-12.52-5.59-12.52-12.5-12.52Z"/><g><g><path class="cls-1" d="M268.06,195.64c-3.62,0-6.78-.83-9.47-2.49-2.7-1.66-4.79-3.98-6.28-6.96-1.49-2.98-2.24-6.47-2.24-10.45s.75-7.5,2.24-10.5c1.49-3,3.58-5.32,6.28-6.98,2.7-1.66,5.85-2.49,9.47-2.49s6.78,.83,9.47,2.49c2.69,1.66,4.79,3.99,6.28,6.98,1.49,3,2.24,6.5,2.24,10.5s-.75,7.47-2.24,10.45c-1.49,2.98-3.59,5.3-6.28,6.96-2.7,1.66-5.85,2.49-9.47,2.49Zm.03-6.31c2.34,0,4.29-.62,5.83-1.86,1.54-1.24,2.68-2.89,3.43-4.95,.74-2.06,1.12-4.33,1.12-6.81s-.37-4.73-1.12-6.8c-.75-2.07-1.89-3.73-3.43-4.99-1.54-1.26-3.48-1.88-5.83-1.88s-4.32,.63-5.87,1.88c-1.55,1.26-2.7,2.92-3.44,4.99-.75,2.07-1.12,4.33-1.12,6.8s.37,4.75,1.12,6.81c.75,2.06,1.89,3.71,3.44,4.95,1.55,1.24,3.5,1.86,5.87,1.86Z"/><path class="cls-1" d="M311.4,156.27v6.03h-21.81v-6.03h21.81Zm-15.83,38.59v-43.06c0-2.41,.53-4.42,1.58-6.02,1.05-1.6,2.45-2.8,4.2-3.59,1.74-.79,3.63-1.19,5.68-1.19,1.51,0,2.8,.12,3.87,.36,1.07,.24,1.87,.47,2.39,.67l-1.76,6.08c-.35-.1-.8-.22-1.36-.36-.55-.14-1.22-.21-2.01-.21-1.83,0-3.13,.45-3.91,1.36-.78,.9-1.17,2.21-1.17,3.92v42.06h-7.51Z"/><path class="cls-1" d="M366.79,165.69l-6.81,1.2c-.29-.87-.73-1.7-1.34-2.49-.61-.79-1.44-1.43-2.47-1.93-1.04-.5-2.34-.75-3.89-.75-2.13,0-3.9,.47-5.33,1.42-1.42,.94-2.13,2.16-2.13,3.65,0,1.29,.48,2.33,1.43,3.12,.96,.79,2.5,1.43,4.62,1.93l6.13,1.4c3.55,.82,6.19,2.09,7.94,3.8,1.74,1.71,2.61,3.93,2.61,6.66,0,2.31-.67,4.37-2,6.17-1.33,1.8-3.18,3.21-5.55,4.23-2.37,1.02-5.11,1.53-8.23,1.53-4.32,0-7.85-.92-10.58-2.78-2.73-1.85-4.41-4.48-5.03-7.9l7.26-1.11c.45,1.89,1.38,3.32,2.79,4.28,1.4,.96,3.24,1.44,5.5,1.44,2.46,0,4.43-.51,5.9-1.55,1.47-1.03,2.21-2.29,2.21-3.78,0-1.21-.45-2.22-1.34-3.04-.9-.82-2.27-1.44-4.11-1.86l-6.53-1.43c-3.6-.82-6.26-2.13-7.98-3.92-1.72-1.79-2.57-4.06-2.57-6.81,0-2.28,.64-4.27,1.91-5.98,1.27-1.71,3.03-3.04,5.28-4.01,2.24-.96,4.82-1.44,7.71-1.44,4.17,0,7.45,.9,9.85,2.7,2.4,1.8,3.98,4.21,4.75,7.22Z"/><path class="cls-1" d="M391.37,195.64c-3.62,0-6.78-.83-9.47-2.49-2.7-1.66-4.79-3.98-6.28-6.96-1.49-2.98-2.24-6.47-2.24-10.45s.75-7.5,2.24-10.5c1.49-3,3.58-5.32,6.28-6.98,2.7-1.66,5.85-2.49,9.47-2.49s6.78,.83,9.47,2.49c2.69,1.66,4.79,3.99,6.28,6.98,1.49,3,2.23,6.5,2.23,10.5s-.75,7.47-2.23,10.45c-1.49,2.98-3.59,5.3-6.28,6.96-2.7,1.66-5.85,2.49-9.47,2.49Zm.03-6.31c2.34,0,4.29-.62,5.83-1.86,1.54-1.24,2.68-2.89,3.43-4.95,.74-2.06,1.12-4.33,1.12-6.81s-.37-4.73-1.12-6.8c-.75-2.07-1.89-3.73-3.43-4.99-1.54-1.26-3.48-1.88-5.83-1.88s-4.32,.63-5.87,1.88c-1.55,1.26-2.7,2.92-3.44,4.99-.75,2.07-1.12,4.33-1.12,6.8s.37,4.75,1.12,6.81c.75,2.06,1.89,3.71,3.44,4.95,1.55,1.24,3.5,1.86,5.87,1.86Z"/><path class="cls-1" d="M421,150.31c-1.31,0-2.43-.44-3.35-1.32-.93-.88-1.4-1.93-1.4-3.15s.47-2.3,1.4-3.18c.93-.88,2.05-1.32,3.35-1.32s2.42,.44,3.35,1.32c.93,.88,1.4,1.94,1.4,3.18s-.47,2.27-1.4,3.15c-.93,.88-2.05,1.32-3.35,1.32Zm-3.8,44.54v-38.59h7.51v38.59h-7.51Z"/><path class="cls-1" d="M442.07,143.4v51.45h-7.51v-51.45h7.51Z"/><path class="cls-1" d="M471.52,194.86v-51.45h7.51v19.12h.45c.44-.8,1.06-1.73,1.88-2.79,.82-1.05,1.96-1.98,3.42-2.78s3.39-1.19,5.78-1.19c3.11,0,5.9,.79,8.34,2.36,2.45,1.58,4.37,3.84,5.77,6.81,1.4,2.96,2.1,6.53,2.1,10.7s-.7,7.74-2.09,10.72-3.3,5.26-5.73,6.86c-2.43,1.6-5.2,2.4-8.31,2.4-2.34,0-4.26-.39-5.74-1.18-1.48-.79-2.64-1.71-3.48-2.76-.84-1.05-1.48-1.99-1.93-2.81h-.63v6h-7.34Zm7.36-19.29c0,2.71,.4,5.09,1.18,7.13,.78,2.05,1.93,3.64,3.41,4.79,1.49,1.15,3.32,1.72,5.48,1.72s4.12-.6,5.63-1.8c1.51-1.2,2.65-2.83,3.43-4.89,.78-2.06,1.17-4.38,1.17-6.96s-.38-4.83-1.14-6.86c-.76-2.03-1.9-3.63-3.42-4.8-1.52-1.17-3.4-1.76-5.67-1.76s-4.01,.56-5.51,1.68c-1.5,1.12-2.63,2.69-3.4,4.7-.77,2.01-1.16,4.35-1.16,7.03Z"/><path class="cls-1" d="M518.44,150.31c-1.31,0-2.43-.44-3.35-1.32-.93-.88-1.4-1.93-1.4-3.15s.47-2.3,1.4-3.18c.93-.88,2.05-1.32,3.35-1.32s2.42,.44,3.35,1.32c.93,.88,1.4,1.94,1.4,3.18s-.47,2.27-1.4,3.15c-.93,.88-2.05,1.32-3.35,1.32Zm-3.8,44.54v-38.59h7.51v38.59h-7.51Z"/><path class="cls-1" d="M547.88,195.64c-3.62,0-6.78-.83-9.47-2.49-2.7-1.66-4.79-3.98-6.28-6.96-1.49-2.98-2.23-6.47-2.23-10.45s.75-7.5,2.23-10.5c1.49-3,3.58-5.32,6.28-6.98,2.69-1.66,5.85-2.49,9.47-2.49s6.78,.83,9.47,2.49c2.69,1.66,4.79,3.99,6.28,6.98,1.49,3,2.24,6.5,2.24,10.5s-.75,7.47-2.24,10.45c-1.49,2.98-3.58,5.3-6.28,6.96-2.7,1.66-5.85,2.49-9.47,2.49Zm.03-6.31c2.34,0,4.29-.62,5.83-1.86,1.54-1.24,2.69-2.89,3.43-4.95,.74-2.06,1.11-4.33,1.11-6.81s-.37-4.73-1.11-6.8c-.75-2.07-1.89-3.73-3.43-4.99-1.54-1.26-3.48-1.88-5.83-1.88s-4.32,.63-5.87,1.88c-1.55,1.26-2.69,2.92-3.44,4.99-.75,2.07-1.12,4.33-1.12,6.8s.37,4.75,1.12,6.81c.75,2.06,1.89,3.71,3.44,4.95,1.55,1.24,3.51,1.86,5.87,1.86Z"/><path class="cls-1" d="M588.2,195.61c-3.11,0-5.89-.8-8.33-2.4-2.44-1.6-4.35-3.89-5.73-6.86-1.38-2.97-2.07-6.55-2.07-10.72s.7-7.74,2.1-10.7c1.4-2.97,3.32-5.23,5.76-6.81,2.45-1.57,5.22-2.36,8.32-2.36,2.4,0,4.32,.4,5.79,1.19,1.46,.79,2.61,1.72,3.42,2.78,.81,1.06,1.45,1.99,1.9,2.79h.45v-19.12h7.51v51.45h-7.34v-6h-.63c-.45,.82-1.1,1.76-1.95,2.81-.85,1.05-2,1.98-3.48,2.76-1.47,.79-3.39,1.18-5.73,1.18Zm1.66-6.41c2.16,0,3.99-.57,5.49-1.72,1.5-1.15,2.64-2.74,3.42-4.79,.78-2.04,1.17-4.42,1.17-7.13s-.38-5.03-1.16-7.03c-.77-2.01-1.9-3.58-3.39-4.7-1.49-1.12-3.33-1.68-5.53-1.68s-4.15,.58-5.65,1.76c-1.51,1.17-2.64,2.77-3.4,4.8-.76,2.03-1.15,4.31-1.15,6.86s.39,4.9,1.16,6.96c.77,2.06,1.92,3.69,3.43,4.89,1.52,1.2,3.39,1.8,5.61,1.8Z"/><path class="cls-1" d="M621.25,150.31c-1.31,0-2.43-.44-3.35-1.32-.93-.88-1.4-1.93-1.4-3.15s.47-2.3,1.4-3.18c.93-.88,2.05-1.32,3.35-1.32s2.42,.44,3.35,1.32c.93,.88,1.4,1.94,1.4,3.18s-.47,2.27-1.4,3.15c-.93,.88-2.05,1.32-3.35,1.32Zm-3.8,44.54v-38.59h7.51v38.59h-7.51Z"/><path class="cls-1" d="M667.39,156.27l-13.99,38.59h-8.04l-14.02-38.59h8.06l9.77,29.69h.4l9.75-29.69h8.06Z"/><path class="cls-1" d="M688.79,195.64c-3.8,0-7.07-.82-9.81-2.45-2.74-1.63-4.85-3.94-6.33-6.91-1.48-2.97-2.22-6.46-2.22-10.46s.74-7.44,2.22-10.45c1.48-3.01,3.56-5.37,6.23-7.06,2.67-1.69,5.8-2.54,9.38-2.54,2.18,0,4.29,.36,6.33,1.08,2.05,.72,3.88,1.85,5.5,3.39,1.62,1.54,2.9,3.54,3.84,5.99,.94,2.45,1.41,5.43,1.41,8.93v2.66h-30.68v-5.63h23.31c0-1.98-.4-3.73-1.2-5.26-.81-1.53-1.93-2.74-3.38-3.63-1.45-.89-3.15-1.33-5.09-1.33-2.11,0-3.95,.52-5.51,1.55-1.57,1.03-2.77,2.37-3.62,4.02-.85,1.65-1.27,3.44-1.27,5.36v4.4c0,2.58,.46,4.77,1.37,6.58,.92,1.81,2.19,3.19,3.83,4.13,1.64,.94,3.56,1.42,5.75,1.42,1.42,0,2.72-.2,3.9-.61,1.17-.41,2.18-1.03,3.04-1.85,.85-.82,1.51-1.84,1.96-3.04l7.11,1.28c-.57,2.09-1.59,3.92-3.05,5.49-1.46,1.57-3.3,2.78-5.5,3.64-2.21,.86-4.71,1.29-7.53,1.29Z"/><path class="cls-1" d="M713.36,194.86v-38.59h7.26v6.13h.41c.7-2.08,1.94-3.71,3.73-4.91,1.78-1.2,3.8-1.8,6.07-1.8,.47,0,1.03,.02,1.67,.05,.64,.03,1.15,.08,1.52,.12v7.19c-.3-.08-.84-.18-1.61-.29-.77-.11-1.54-.16-2.31-.16-1.78,0-3.35,.37-4.73,1.12-1.38,.75-2.48,1.78-3.28,3.09-.81,1.31-1.21,2.81-1.21,4.49v23.56h-7.51Z"/><path class="cls-1" d="M769.17,165.69l-6.81,1.2c-.29-.87-.74-1.7-1.34-2.49-.61-.79-1.44-1.43-2.47-1.93-1.04-.5-2.34-.75-3.9-.75-2.13,0-3.9,.47-5.32,1.42-1.42,.94-2.14,2.16-2.14,3.65,0,1.29,.48,2.33,1.43,3.12,.95,.79,2.5,1.43,4.62,1.93l6.13,1.4c3.55,.82,6.19,2.09,7.94,3.8,1.74,1.71,2.61,3.93,2.61,6.66,0,2.31-.66,4.37-1.99,6.17-1.33,1.8-3.18,3.21-5.55,4.23-2.37,1.02-5.11,1.53-8.23,1.53-4.32,0-7.85-.92-10.58-2.78-2.73-1.85-4.41-4.48-5.03-7.9l7.26-1.11c.45,1.89,1.38,3.32,2.79,4.28,1.4,.96,3.24,1.44,5.5,1.44,2.46,0,4.43-.51,5.9-1.55,1.47-1.03,2.21-2.29,2.21-3.78,0-1.21-.45-2.22-1.34-3.04-.9-.82-2.27-1.44-4.11-1.86l-6.53-1.43c-3.6-.82-6.26-2.13-7.98-3.92s-2.57-4.06-2.57-6.81c0-2.28,.64-4.27,1.91-5.98,1.27-1.71,3.03-3.04,5.27-4.01,2.24-.96,4.82-1.44,7.71-1.44,4.17,0,7.45,.9,9.85,2.7,2.4,1.8,3.97,4.21,4.75,7.22Z"/><path class="cls-1" d="M781.49,150.31c-1.31,0-2.43-.44-3.35-1.32-.93-.88-1.4-1.93-1.4-3.15s.47-2.3,1.4-3.18c.93-.88,2.05-1.32,3.35-1.32s2.42,.44,3.35,1.32c.93,.88,1.4,1.94,1.4,3.18s-.47,2.27-1.4,3.15-2.05,1.32-3.35,1.32Zm-3.8,44.54v-38.59h7.51v38.59h-7.51Z"/><path class="cls-1" d="M812.64,156.27v6.03h-21.08v-6.03h21.08Zm-15.43-9.25h7.51v36.5c0,1.46,.22,2.55,.65,3.28,.44,.73,1,1.22,1.69,1.48,.7,.26,1.46,.39,2.28,.39,.6,0,1.13-.04,1.58-.13,.45-.08,.8-.15,1.05-.2l1.35,6.2c-.43,.17-1.05,.34-1.86,.52-.81,.18-1.81,.27-3.02,.29-1.98,.03-3.82-.32-5.53-1.05s-3.09-1.87-4.15-3.42c-1.05-1.54-1.58-3.48-1.58-5.8v-38.06Z"/><path class="cls-1" d="M825.92,209.33c-1.12,0-2.15-.09-3.07-.26-.92-.18-1.61-.36-2.06-.56l1.81-6.16c1.37,.37,2.59,.53,3.67,.48,1.07-.05,2.02-.45,2.85-1.2s1.56-1.99,2.2-3.69l.93-2.56-14.12-39.09h8.04l9.77,29.95h.4l9.77-29.95h8.06l-15.9,43.74c-.74,2.01-1.68,3.71-2.81,5.11-1.14,1.4-2.5,2.45-4.07,3.15-1.58,.7-3.4,1.05-5.48,1.05Z"/></g><g><path class="cls-1" d="M293.93,74.34v51.45h-7.13l-26.15-37.74h-.48v37.74h-7.76v-51.45h7.19l26.18,37.78h.48v-37.78h7.69Z"/><path class="cls-1" d="M315.72,126.65c-2.45,0-4.66-.46-6.63-1.37s-3.54-2.24-4.68-3.98c-1.15-1.74-1.72-3.88-1.72-6.41,0-2.18,.42-3.97,1.26-5.38,.84-1.41,1.97-2.52,3.39-3.34,1.43-.82,3.02-1.44,4.77-1.86,1.76-.42,3.55-.73,5.38-.95,2.31-.27,4.19-.49,5.63-.67,1.44-.18,2.49-.47,3.14-.87,.65-.4,.98-1.05,.98-1.96v-.18c0-2.19-.61-3.89-1.84-5.1-1.23-1.21-3.06-1.81-5.49-1.81s-4.52,.56-5.97,1.67c-1.45,1.11-2.45,2.35-3,3.71l-7.06-1.61c.84-2.35,2.06-4.24,3.68-5.69,1.62-1.45,3.48-2.5,5.59-3.17,2.11-.66,4.33-.99,6.66-.99,1.54,0,3.18,.18,4.91,.54,1.73,.36,3.36,1.02,4.87,1.97,1.52,.96,2.76,2.32,3.73,4.08,.97,1.77,1.46,4.06,1.46,6.87v25.63h-7.33v-5.28h-.3c-.49,.97-1.22,1.93-2.19,2.86-.97,.94-2.22,1.72-3.74,2.34-1.52,.62-3.35,.93-5.48,.93Zm1.63-6.03c2.08,0,3.86-.41,5.34-1.23,1.48-.82,2.61-1.9,3.39-3.23,.78-1.33,1.17-2.76,1.17-4.28v-4.97c-.27,.27-.78,.52-1.55,.74-.76,.23-1.63,.42-2.6,.58s-1.92,.3-2.84,.43c-.92,.13-1.69,.23-2.31,.32-1.46,.18-2.78,.49-3.98,.93-1.2,.44-2.15,1.06-2.86,1.87-.71,.81-1.07,1.89-1.07,3.23,0,1.86,.69,3.26,2.06,4.21,1.37,.95,3.12,1.42,5.25,1.42Z"/><path class="cls-1" d="M361.58,87.21v6.03h-21.08v-6.03h21.08Zm-15.43-9.24h7.51v36.5c0,1.46,.22,2.55,.65,3.28,.44,.73,1,1.22,1.69,1.48,.7,.26,1.45,.39,2.27,.39,.6,0,1.13-.04,1.58-.12,.45-.09,.8-.15,1.05-.2l1.36,6.21c-.44,.17-1.05,.34-1.86,.51-.8,.18-1.81,.27-3.01,.29-1.98,.03-3.82-.32-5.53-1.05-1.71-.74-3.09-1.88-4.15-3.42-1.06-1.54-1.58-3.48-1.58-5.8v-38.06Z"/><path class="cls-1" d="M392.99,109.79v-22.59h7.54v38.59h-7.39v-6.68h-.4c-.89,2.06-2.31,3.77-4.26,5.14-1.95,1.37-4.38,2.05-7.27,2.05-2.48,0-4.67-.55-6.57-1.65-1.9-1.1-3.39-2.72-4.47-4.88-1.08-2.16-1.62-4.83-1.62-8.01v-24.55h7.51v23.64c0,2.63,.73,4.72,2.19,6.28,1.46,1.56,3.35,2.34,5.68,2.34,1.41,0,2.81-.35,4.21-1.06,1.4-.7,2.56-1.77,3.49-3.19,.93-1.42,1.38-3.23,1.37-5.43Z"/><path class="cls-1" d="M410.3,125.8v-38.59h7.26v6.13h.4c.7-2.07,1.95-3.71,3.73-4.91,1.79-1.2,3.81-1.8,6.07-1.8,.47,0,1.02,.02,1.67,.05,.64,.03,1.15,.08,1.52,.13v7.19c-.3-.08-.84-.18-1.61-.29-.77-.11-1.54-.16-2.31-.16-1.77,0-3.35,.37-4.73,1.12-1.38,.75-2.47,1.78-3.28,3.09-.8,1.31-1.2,2.81-1.2,4.48v23.57h-7.51Z"/><path class="cls-1" d="M511.84,126.58c-3.74,0-6.95-.85-9.64-2.55-2.69-1.7-4.75-4.05-6.19-7.05-1.44-3-2.16-6.43-2.16-10.3s.74-7.38,2.21-10.39c1.47-3.01,3.55-5.35,6.23-7.05,2.68-1.69,5.84-2.54,9.47-2.54,2.93,0,5.54,.54,7.84,1.62,2.29,1.08,4.15,2.59,5.56,4.53,1.41,1.94,2.26,4.21,2.52,6.81h-7.31c-.41-1.81-1.32-3.37-2.75-4.67-1.43-1.31-3.34-1.96-5.74-1.96-2.09,0-3.92,.55-5.49,1.65-1.57,1.1-2.78,2.66-3.65,4.67-.87,2.02-1.31,4.4-1.31,7.15s.43,5.24,1.28,7.28c.86,2.05,2.06,3.63,3.63,4.75s3.41,1.68,5.54,1.68c1.42,0,2.72-.26,3.88-.79,1.17-.53,2.14-1.29,2.94-2.27s1.35-2.18,1.67-3.57h7.31c-.27,2.5-1.08,4.72-2.44,6.68-1.36,1.96-3.17,3.5-5.44,4.62-2.27,1.12-4.93,1.68-7.98,1.68Z"/><path class="cls-1" d="M551.45,126.58c-3.62,0-6.78-.83-9.47-2.49-2.7-1.66-4.79-3.98-6.28-6.96-1.49-2.98-2.23-6.46-2.23-10.45s.75-7.5,2.23-10.5c1.49-3,3.58-5.33,6.28-6.98,2.69-1.66,5.85-2.49,9.47-2.49s6.78,.83,9.47,2.49c2.69,1.66,4.79,3.99,6.28,6.98,1.49,3,2.24,6.5,2.24,10.5s-.75,7.47-2.24,10.45c-1.49,2.98-3.58,5.3-6.28,6.96-2.7,1.66-5.85,2.49-9.47,2.49Zm.03-6.31c2.34,0,4.29-.62,5.83-1.86,1.54-1.24,2.69-2.89,3.43-4.95,.74-2.06,1.11-4.33,1.11-6.81s-.37-4.73-1.11-6.8c-.75-2.07-1.89-3.73-3.43-4.99-1.54-1.26-3.48-1.89-5.83-1.89s-4.32,.63-5.87,1.89c-1.55,1.26-2.69,2.92-3.44,4.99-.75,2.07-1.12,4.33-1.12,6.8s.37,4.75,1.12,6.81c.75,2.06,1.89,3.71,3.44,4.95,1.55,1.24,3.51,1.86,5.87,1.86Z"/><path class="cls-1" d="M584.97,102.89v22.91h-7.51v-38.59h7.21v6.28h.48c.88-2.05,2.28-3.68,4.18-4.93,1.9-1.24,4.3-1.86,7.2-1.86,2.63,0,4.93,.55,6.91,1.65,1.98,1.1,3.51,2.72,4.6,4.89,1.09,2.16,1.63,4.83,1.63,8.01v24.55h-7.51v-23.64c0-2.8-.73-4.99-2.18-6.57-1.46-1.58-3.46-2.37-6.01-2.37-1.74,0-3.28,.38-4.63,1.13-1.35,.75-2.41,1.85-3.19,3.3-.78,1.45-1.17,3.19-1.17,5.24Z"/><path class="cls-1" d="M647.75,96.63l-6.81,1.21c-.29-.87-.74-1.7-1.34-2.49-.61-.79-1.44-1.43-2.47-1.93-1.04-.5-2.34-.75-3.9-.75-2.13,0-3.9,.47-5.32,1.42-1.42,.95-2.14,2.16-2.14,3.65,0,1.29,.48,2.33,1.43,3.12,.95,.79,2.5,1.43,4.62,1.93l6.13,1.41c3.55,.82,6.19,2.08,7.94,3.79,1.74,1.71,2.61,3.93,2.61,6.66,0,2.31-.66,4.37-1.99,6.17-1.33,1.8-3.18,3.21-5.55,4.23-2.37,1.02-5.11,1.53-8.23,1.53-4.32,0-7.85-.93-10.58-2.78-2.73-1.85-4.41-4.48-5.03-7.9l7.26-1.11c.45,1.89,1.38,3.32,2.79,4.28,1.4,.96,3.24,1.44,5.5,1.44,2.46,0,4.43-.52,5.9-1.55,1.47-1.03,2.21-2.29,2.21-3.78,0-1.21-.45-2.22-1.34-3.04-.9-.82-2.27-1.44-4.11-1.86l-6.53-1.43c-3.6-.82-6.26-2.13-7.98-3.92-1.72-1.79-2.57-4.06-2.57-6.81,0-2.28,.64-4.27,1.91-5.98,1.27-1.71,3.03-3.04,5.27-4.01,2.24-.96,4.82-1.44,7.71-1.44,4.17,0,7.45,.9,9.85,2.7s3.97,4.21,4.75,7.22Z"/><path class="cls-1" d="M672.74,126.58c-3.8,0-7.07-.82-9.81-2.45-2.74-1.63-4.85-3.94-6.33-6.91-1.48-2.97-2.22-6.46-2.22-10.46s.74-7.44,2.22-10.45c1.48-3.01,3.56-5.37,6.23-7.06,2.67-1.69,5.8-2.54,9.38-2.54,2.18,0,4.29,.36,6.33,1.08,2.05,.72,3.88,1.85,5.5,3.39,1.62,1.54,2.9,3.54,3.84,5.99,.94,2.45,1.41,5.43,1.41,8.93v2.66h-30.68v-5.63h23.31c0-1.98-.4-3.73-1.2-5.26-.81-1.53-1.93-2.74-3.38-3.63-1.45-.89-3.15-1.33-5.09-1.33-2.11,0-3.95,.51-5.51,1.55-1.57,1.03-2.77,2.37-3.62,4.02-.85,1.65-1.27,3.44-1.27,5.36v4.4c0,2.58,.46,4.77,1.37,6.58,.92,1.81,2.19,3.19,3.83,4.13,1.64,.95,3.56,1.42,5.75,1.42,1.42,0,2.72-.2,3.9-.61,1.17-.41,2.18-1.02,3.04-1.85,.85-.82,1.51-1.83,1.96-3.04l7.11,1.28c-.57,2.09-1.59,3.92-3.05,5.49s-3.3,2.78-5.5,3.64c-2.21,.86-4.71,1.29-7.53,1.29Z"/><path class="cls-1" d="M452.92,126.58c-3.8,0-7.07-.82-9.81-2.45-2.74-1.63-4.85-3.94-6.33-6.91-1.48-2.97-2.22-6.46-2.22-10.46s.74-7.44,2.22-10.45c1.48-3.01,3.56-5.37,6.23-7.06,2.67-1.69,5.8-2.54,9.38-2.54,2.18,0,4.29,.36,6.33,1.08,2.05,.72,3.88,1.85,5.5,3.39,1.62,1.54,2.9,3.54,3.84,5.99,.94,2.45,1.41,5.43,1.41,8.93v2.66h-30.68v-5.63h23.31c0-1.98-.4-3.73-1.2-5.26-.81-1.53-1.93-2.74-3.38-3.63-1.45-.89-3.15-1.33-5.09-1.33-2.11,0-3.95,.51-5.51,1.55-1.57,1.03-2.77,2.37-3.62,4.02-.85,1.65-1.27,3.44-1.27,5.36v4.4c0,2.58,.46,4.77,1.37,6.58,.92,1.81,2.19,3.19,3.83,4.13,1.64,.95,3.56,1.42,5.75,1.42,1.42,0,2.72-.2,3.9-.61,1.17-.41,2.18-1.02,3.04-1.85,.85-.82,1.51-1.83,1.96-3.04l7.11,1.28c-.57,2.09-1.59,3.92-3.05,5.49s-3.3,2.78-5.5,3.64c-2.21,.86-4.71,1.29-7.53,1.29Z"/><path class="cls-1" d="M697.31,125.8v-38.59h7.26v6.13h.41c.7-2.07,1.94-3.71,3.73-4.91,1.78-1.2,3.8-1.8,6.07-1.8,.47,0,1.03,.02,1.67,.05,.64,.03,1.15,.08,1.52,.13v7.19c-.3-.08-.84-.18-1.61-.29-.77-.11-1.54-.16-2.31-.16-1.78,0-3.35,.37-4.73,1.12-1.38,.75-2.48,1.78-3.28,3.09-.81,1.31-1.21,2.81-1.21,4.48v23.57h-7.51Z"/><path class="cls-1" d="M758.67,87.21l-13.99,38.59h-8.04l-14.02-38.59h8.06l9.77,29.7h.41l9.75-29.7h8.06Z"/><path class="cls-1" d="M775.13,126.65c-2.45,0-4.66-.46-6.63-1.37-1.98-.91-3.54-2.24-4.68-3.98-1.15-1.74-1.72-3.88-1.72-6.41,0-2.18,.42-3.97,1.26-5.38,.83-1.41,1.97-2.52,3.39-3.34,1.42-.82,3.02-1.44,4.77-1.86,1.76-.42,3.55-.73,5.38-.95,2.31-.27,4.19-.49,5.62-.67,1.44-.18,2.49-.47,3.14-.87,.65-.4,.98-1.05,.98-1.96v-.18c0-2.19-.62-3.89-1.85-5.1-1.23-1.21-3.06-1.81-5.49-1.81s-4.52,.56-5.96,1.67c-1.45,1.11-2.45,2.35-3,3.71l-7.06-1.61c.84-2.35,2.06-4.24,3.68-5.69,1.62-1.45,3.48-2.5,5.59-3.17,2.11-.66,4.33-.99,6.66-.99,1.54,0,3.18,.18,4.91,.54,1.73,.36,3.36,1.02,4.87,1.97,1.52,.96,2.76,2.32,3.73,4.08,.97,1.77,1.46,4.06,1.46,6.87v25.63h-7.33v-5.28h-.3c-.48,.97-1.22,1.93-2.18,2.86-.97,.94-2.22,1.72-3.74,2.34-1.52,.62-3.35,.93-5.48,.93Zm1.63-6.03c2.08,0,3.86-.41,5.34-1.23,1.48-.82,2.62-1.9,3.39-3.23,.78-1.33,1.17-2.76,1.17-4.28v-4.97c-.27,.27-.78,.52-1.54,.74-.76,.23-1.63,.42-2.6,.58s-1.92,.3-2.84,.43c-.92,.13-1.69,.23-2.31,.32-1.46,.18-2.78,.49-3.98,.93-1.2,.44-2.16,1.06-2.86,1.87-.71,.81-1.07,1.89-1.07,3.23,0,1.86,.69,3.26,2.06,4.21,1.37,.95,3.12,1.42,5.25,1.42Z"/><path class="cls-1" d="M820.99,87.21v6.03h-21.08v-6.03h21.08Zm-15.43-9.24h7.51v36.5c0,1.46,.22,2.55,.65,3.28,.44,.73,1,1.22,1.69,1.48,.7,.26,1.46,.39,2.28,.39,.6,0,1.13-.04,1.58-.12,.45-.09,.8-.15,1.05-.2l1.35,6.21c-.43,.17-1.05,.34-1.86,.51-.81,.18-1.81,.27-3.02,.29-1.98,.03-3.82-.32-5.53-1.05-1.71-.74-3.09-1.88-4.15-3.42s-1.58-3.48-1.58-5.8v-38.06Z"/><path class="cls-1" d="M832.11,81.25c-1.3,0-2.42-.44-3.35-1.32-.93-.88-1.4-1.93-1.4-3.15s.47-2.3,1.4-3.18c.93-.88,2.05-1.32,3.35-1.32s2.43,.44,3.35,1.32c.93,.88,1.4,1.94,1.4,3.18s-.47,2.27-1.4,3.15c-.93,.88-2.05,1.32-3.35,1.32Zm-3.79,44.54v-38.59h7.51v38.59h-7.51Z"/><path class="cls-1" d="M861.55,126.58c-3.62,0-6.78-.83-9.47-2.49-2.7-1.66-4.79-3.98-6.28-6.96-1.49-2.98-2.23-6.46-2.23-10.45s.75-7.5,2.23-10.5c1.49-3,3.58-5.33,6.28-6.98,2.69-1.66,5.85-2.49,9.47-2.49s6.78,.83,9.47,2.49c2.69,1.66,4.79,3.99,6.28,6.98,1.49,3,2.24,6.5,2.24,10.5s-.75,7.47-2.24,10.45c-1.49,2.98-3.58,5.3-6.28,6.96-2.7,1.66-5.85,2.49-9.47,2.49Zm.03-6.31c2.34,0,4.29-.62,5.83-1.86,1.54-1.24,2.69-2.89,3.43-4.95,.74-2.06,1.11-4.33,1.11-6.81s-.37-4.73-1.11-6.8c-.75-2.07-1.89-3.73-3.43-4.99-1.54-1.26-3.48-1.89-5.83-1.89s-4.32,.63-5.87,1.89c-1.55,1.26-2.69,2.92-3.44,4.99-.75,2.07-1.12,4.33-1.12,6.8s.37,4.75,1.12,6.81c.75,2.06,1.89,3.71,3.44,4.95,1.55,1.24,3.51,1.86,5.87,1.86Z"/><path class="cls-1" d="M895.07,102.89v22.91h-7.51v-38.59h7.21v6.28h.48c.88-2.05,2.28-3.68,4.18-4.93,1.9-1.24,4.3-1.86,7.2-1.86,2.63,0,4.93,.55,6.91,1.65,1.98,1.1,3.51,2.72,4.6,4.89,1.09,2.16,1.63,4.83,1.63,8.01v24.55h-7.51v-23.64c0-2.8-.73-4.99-2.18-6.57-1.46-1.58-3.46-2.37-6.01-2.37-1.74,0-3.28,.38-4.63,1.13-1.35,.75-2.41,1.85-3.19,3.3s-1.17,3.19-1.17,5.24Z"/></g><path class="cls-1" d="M174.22,199.69c-14.64,0-26.48-11.86-26.48-26.48s11.84-26.48,26.48-26.48,26.46,11.86,26.46,26.48-11.84,26.48-26.46,26.48Zm0-39.01c-6.93,0-12.52,5.61-12.52,12.52s5.59,12.52,12.52,12.52,12.5-5.61,12.5-12.52-5.59-12.52-12.5-12.52Z"/><path class="cls-1" d="M174.22,39.44c-6.93,0-12.52-5.61-12.52-12.52s5.59-12.52,12.52-12.52,12.5,5.61,12.5,12.52-5.59,12.52-12.5,12.52Z"/><path class="cls-1" d="M101.1,199.69c-14.64,0-26.48-11.86-26.48-26.48s11.84-26.48,26.48-26.48,26.46,11.86,26.46,26.48-11.84,26.48-26.46,26.48Z"/><path class="cls-1" d="M27.98,.44C13.33,.44,1.5,12.3,1.5,26.92s11.84,26.48,26.48,26.48,26.46-11.86,26.46-26.48S42.6,.44,27.98,.44Z"/></g><g><path class="cls-2" d="M265.89,21.38c-.09-.92-.46-1.64-1.11-2.15-.66-.52-1.59-.77-2.81-.77-.8,0-1.47,.1-2.01,.31s-.94,.5-1.21,.86c-.27,.36-.41,.78-.41,1.25-.02,.39,.06,.73,.23,1.02,.17,.29,.42,.55,.76,.77,.33,.22,.73,.41,1.2,.58,.47,.17,.99,.32,1.58,.44l2.21,.5c1.27,.28,2.4,.64,3.37,1.11,.98,.46,1.8,1.01,2.46,1.65,.67,.64,1.17,1.37,1.52,2.2s.52,1.76,.53,2.79c0,1.63-.42,3.02-1.23,4.18-.81,1.16-1.98,2.05-3.5,2.67-1.52,.62-3.35,.93-5.49,.93s-4.03-.32-5.63-.97c-1.6-.64-2.84-1.62-3.73-2.94-.89-1.31-1.34-2.98-1.37-4.99h5.95c.05,.83,.27,1.52,.67,2.07s.94,.97,1.63,1.26c.69,.28,1.49,.43,2.4,.43,.84,0,1.55-.11,2.14-.34,.59-.23,1.05-.54,1.36-.94,.32-.4,.48-.86,.49-1.38,0-.49-.16-.9-.45-1.25-.29-.35-.74-.65-1.35-.91-.61-.26-1.38-.49-2.32-.71l-2.69-.63c-2.23-.51-3.98-1.34-5.26-2.48-1.28-1.14-1.92-2.69-1.91-4.64,0-1.59,.42-2.99,1.28-4.18,.86-1.2,2.06-2.13,3.58-2.8,1.52-.67,3.26-1,5.21-1s3.73,.34,5.2,1.01c1.47,.67,2.61,1.62,3.42,2.83,.81,1.21,1.23,2.62,1.24,4.22h-5.95Z"/><path class="cls-2" d="M300.51,26.54c0,2.83-.54,5.23-1.63,7.2-1.09,1.97-2.56,3.46-4.41,4.49-1.86,1.02-3.93,1.53-6.24,1.53s-4.39-.52-6.24-1.55c-1.85-1.03-3.32-2.53-4.4-4.49-1.08-1.96-1.63-4.36-1.63-7.18s.54-5.23,1.63-7.2c1.08-1.97,2.55-3.46,4.4-4.48,1.85-1.02,3.93-1.53,6.24-1.53s4.38,.51,6.24,1.53c1.85,1.02,3.33,2.52,4.41,4.48,1.09,1.97,1.63,4.37,1.63,7.2Zm-6.36,0c0-1.67-.24-3.09-.71-4.25-.47-1.16-1.15-2.03-2.04-2.63-.88-.59-1.94-.89-3.18-.89s-2.29,.3-3.18,.89c-.89,.59-1.57,1.47-2.04,2.63-.47,1.16-.71,2.57-.71,4.25s.24,3.09,.71,4.24c.47,1.16,1.15,2.03,2.04,2.63,.89,.6,1.95,.89,3.18,.89s2.3-.3,3.18-.89c.88-.59,1.56-1.47,2.04-2.63,.47-1.15,.71-2.57,.71-4.24Z"/><path class="cls-2" d="M311.23,13.67v25.73h-6.22V13.67h6.22Z"/><path class="cls-2" d="M316.01,39.4V13.67h6.22v20.68h10.7v5.05h-16.92Z"/><path class="cls-2" d="M350.94,21.38c-.09-.92-.46-1.64-1.11-2.15-.66-.52-1.59-.77-2.81-.77-.8,0-1.47,.1-2.01,.31s-.94,.5-1.21,.86c-.27,.36-.41,.78-.41,1.25-.02,.39,.06,.73,.23,1.02,.17,.29,.42,.55,.76,.77,.33,.22,.73,.41,1.2,.58,.47,.17,.99,.32,1.58,.44l2.21,.5c1.27,.28,2.4,.64,3.37,1.11,.98,.46,1.8,1.01,2.46,1.65,.67,.64,1.17,1.37,1.52,2.2s.52,1.76,.53,2.79c0,1.63-.42,3.02-1.23,4.18-.81,1.16-1.98,2.05-3.5,2.67-1.52,.62-3.35,.93-5.49,.93s-4.03-.32-5.63-.97c-1.6-.64-2.84-1.62-3.73-2.94-.89-1.31-1.34-2.98-1.37-4.99h5.95c.05,.83,.27,1.52,.67,2.07,.39,.55,.94,.97,1.63,1.26,.69,.28,1.49,.43,2.4,.43,.84,0,1.55-.11,2.14-.34,.59-.23,1.05-.54,1.36-.94,.32-.4,.48-.86,.49-1.38,0-.49-.16-.9-.45-1.25-.29-.35-.74-.65-1.35-.91s-1.38-.49-2.32-.71l-2.69-.63c-2.23-.51-3.98-1.34-5.26-2.48-1.28-1.14-1.92-2.69-1.91-4.64,0-1.59,.42-2.99,1.28-4.18,.86-1.2,2.06-2.13,3.58-2.8,1.52-.67,3.26-1,5.21-1s3.73,.34,5.2,1.01c1.47,.67,2.61,1.62,3.42,2.83,.81,1.21,1.23,2.62,1.24,4.22h-5.95Z"/><path class="cls-2" d="M369.77,39.4V13.67h17.56v5.05h-11.34v5.28h10.23v5.06h-10.23v10.34h-6.22Z"/><path class="cls-2" d="M415.62,26.54c0,2.83-.54,5.23-1.63,7.2-1.09,1.97-2.56,3.46-4.42,4.49-1.86,1.02-3.93,1.53-6.24,1.53s-4.39-.52-6.24-1.55c-1.85-1.03-3.32-2.53-4.4-4.49s-1.63-4.36-1.63-7.18,.54-5.23,1.63-7.2c1.08-1.97,2.55-3.46,4.4-4.48,1.85-1.02,3.93-1.53,6.24-1.53s4.38,.51,6.24,1.53c1.86,1.02,3.33,2.52,4.42,4.48,1.09,1.97,1.63,4.37,1.63,7.2Zm-6.36,0c0-1.67-.23-3.09-.71-4.25-.47-1.16-1.15-2.03-2.04-2.63-.88-.59-1.94-.89-3.18-.89s-2.29,.3-3.18,.89c-.89,.59-1.57,1.47-2.04,2.63-.47,1.16-.71,2.57-.71,4.25s.24,3.09,.71,4.24c.47,1.16,1.15,2.03,2.04,2.63,.89,.6,1.95,.89,3.18,.89s2.3-.3,3.18-.89c.88-.59,1.56-1.47,2.04-2.63,.47-1.15,.71-2.57,.71-4.24Z"/><path class="cls-2" d="M420.12,39.4V13.67h10.63c1.93,0,3.59,.35,4.99,1.04,1.4,.69,2.48,1.68,3.25,2.97,.76,1.29,1.14,2.81,1.14,4.56s-.39,3.3-1.17,4.54c-.78,1.24-1.88,2.19-3.32,2.84-1.43,.65-3.13,.97-5.08,.97h-6.72v-4.9h5.56c.94,0,1.72-.12,2.35-.37,.64-.25,1.11-.62,1.44-1.13,.32-.51,.49-1.16,.49-1.96s-.17-1.45-.49-1.98c-.33-.52-.81-.92-1.45-1.18-.64-.26-1.42-.4-2.35-.4h-3.07v20.71h-6.22Zm14.49-11.76l6.41,11.76h-6.78l-6.28-11.76h6.66Z"/><path class="cls-2" d="M452.91,39.4V13.67h17.94v5.05h-11.72v5.28h10.8v5.06h-10.8v5.29h11.72v5.05h-17.94Z"/><path class="cls-2" d="M491.19,13.67h6.2V30.27c0,1.92-.46,3.59-1.37,5-.91,1.42-2.18,2.52-3.82,3.29-1.64,.77-3.53,1.16-5.69,1.16s-4.1-.39-5.73-1.16c-1.64-.78-2.9-1.87-3.8-3.29-.91-1.42-1.36-3.09-1.36-5V13.67h6.22V29.73c0,.89,.19,1.68,.58,2.37,.39,.7,.94,1.24,1.64,1.63,.7,.39,1.52,.59,2.45,.59s1.74-.2,2.44-.59c.7-.39,1.24-.94,1.64-1.63,.39-.7,.59-1.49,.59-2.37V13.67Z"/><path class="cls-2" d="M502.17,39.4V13.67h10.63c1.93,0,3.59,.35,4.99,1.04,1.4,.69,2.48,1.68,3.25,2.97,.76,1.29,1.14,2.81,1.14,4.56s-.39,3.3-1.17,4.54c-.78,1.24-1.88,2.19-3.32,2.84-1.43,.65-3.13,.97-5.08,.97h-6.72v-4.9h5.56c.94,0,1.72-.12,2.35-.37,.64-.25,1.11-.62,1.44-1.13,.32-.51,.49-1.16,.49-1.96s-.17-1.45-.49-1.98c-.33-.52-.81-.92-1.45-1.18-.64-.26-1.42-.4-2.35-.4h-3.07v20.71h-6.22Zm14.49-11.76l6.41,11.76h-6.78l-6.28-11.76h6.66Z"/><path class="cls-2" d="M550.76,26.54c0,2.83-.54,5.23-1.63,7.2-1.09,1.97-2.56,3.46-4.42,4.49-1.86,1.02-3.93,1.53-6.24,1.53s-4.39-.52-6.24-1.55c-1.85-1.03-3.32-2.53-4.4-4.49-1.09-1.96-1.63-4.36-1.63-7.18s.54-5.23,1.63-7.2c1.08-1.97,2.55-3.46,4.4-4.48,1.85-1.02,3.93-1.53,6.24-1.53s4.38,.51,6.24,1.53c1.86,1.02,3.33,2.52,4.42,4.48,1.09,1.97,1.63,4.37,1.63,7.2Zm-6.36,0c0-1.67-.23-3.09-.71-4.25-.47-1.16-1.15-2.03-2.04-2.63-.88-.59-1.94-.89-3.18-.89s-2.29,.3-3.18,.89c-.89,.59-1.57,1.47-2.04,2.63-.47,1.16-.71,2.57-.71,4.25s.23,3.09,.71,4.24c.47,1.16,1.15,2.03,2.04,2.63,.89,.6,1.95,.89,3.18,.89s2.3-.3,3.18-.89c.88-.59,1.56-1.47,2.04-2.63,.47-1.15,.71-2.57,.71-4.24Z"/><path class="cls-2" d="M555.26,39.4V13.67h10.63c1.93,0,3.59,.38,4.99,1.13,1.4,.75,2.48,1.79,3.25,3.13,.76,1.34,1.14,2.89,1.14,4.65s-.39,3.33-1.16,4.65c-.77,1.33-1.88,2.35-3.31,3.08-1.43,.73-3.13,1.09-5.1,1.09h-6.56v-4.9h5.4c.94,0,1.72-.16,2.35-.49,.64-.33,1.11-.79,1.44-1.37,.32-.59,.49-1.28,.49-2.07s-.17-1.49-.49-2.07c-.33-.58-.81-1.03-1.45-1.35s-1.42-.48-2.35-.48h-3.07v20.71h-6.22Z"/><path class="cls-2" d="M579.2,39.4V13.67h17.94v5.05h-11.72v5.28h10.81v5.06h-10.81v5.29h11.72v5.05h-17.94Z"/></g></svg>