<svg xmlns="http://www.w3.org/2000/svg" width="54" height="69.191" viewBox="0 0 54 69.191">
  <g id="Group_14539" data-name="Group 14539" transform="translate(-8112.5 -949.228)">
    <path id="Subtraction_3" data-name="Subtraction 3" d="M4,0H47a4,4,0,0,1,4,4V43a4,4,0,0,1-4,4H4a4,4,0,0,1-4-4V4A4,4,0,0,1,4,0Z" transform="translate(8114 969.919)" fill="none" stroke="#571300" stroke-width="3"/>
    <line id="Line_88" data-name="Line 88" x2="50.624" transform="translate(8114.376 960.324)" fill="none" stroke="#571300" stroke-linecap="round" stroke-width="3"/>
    <line id="Line_89" data-name="Line 89" x2="50.624" transform="translate(8114.376 950.728)" fill="none" stroke="#571300" stroke-linecap="round" stroke-width="3"/>
    <path id="Icon_awesome-pen" data-name="Icon awesome-pen" d="M15.359,4.926l6.763,6.763L7.436,26.374l-6.03.666a1.268,1.268,0,0,1-1.4-1.4L.678,19.6,15.359,4.926ZM26.3,3.919,23.129.743a2.537,2.537,0,0,0-3.587,0L16.554,3.731l4.3,4.3,2.461,2.461L26.3,7.506a2.537,2.537,0,0,0,0-3.587Z" transform="translate(8126.022 978.937)" fill="#571300"/>
  </g>
</svg>
