<svg xmlns="http://www.w3.org/2000/svg" width="54.089" height="67.476" viewBox="0 0 54.089 67.476">
  <g id="Group_14540" data-name="Group 14540" transform="translate(-7329.411 -797.524)">
    <g id="Group_14540-2" data-name="Group 14540" transform="translate(-294.522 -163)">
      <g id="Rectangle_3358" data-name="Rectangle 3358" transform="translate(7625.522 981)" fill="none" stroke="#571300" stroke-width="3">
        <rect width="51" height="47" rx="4" stroke="none"/>
        <rect x="1.5" y="1.5" width="48" height="44" rx="2.5" fill="none"/>
      </g>
      <path id="Icon_ionic-ios-settings" data-name="Icon ionic-ios-settings" d="M29.271,18A3.474,3.474,0,0,1,31.5,14.756a13.766,13.766,0,0,0-1.666-4.014,3.522,3.522,0,0,1-1.413.3,3.466,3.466,0,0,1-3.171-4.878A13.732,13.732,0,0,0,21.241,4.5a3.472,3.472,0,0,1-6.483,0,13.774,13.774,0,0,0-4.015,1.666,3.466,3.466,0,0,1-3.171,4.878,3.407,3.407,0,0,1-1.413-.3A14.07,14.07,0,0,0,4.5,14.763a3.472,3.472,0,0,1,.007,6.481,13.766,13.766,0,0,0,1.666,4.014,3.468,3.468,0,0,1,4.577,4.576A13.854,13.854,0,0,0,14.766,31.5a3.465,3.465,0,0,1,6.469,0,13.774,13.774,0,0,0,4.015-1.666,3.471,3.471,0,0,1,4.577-4.576,13.846,13.846,0,0,0,1.666-4.014A3.49,3.49,0,0,1,29.271,18ZM18.063,23.613a5.624,5.624,0,1,1,5.625-5.624A5.623,5.623,0,0,1,18.063,23.613Z" transform="translate(7633.316 986.527)" fill="#571300"/>
    </g>
    <line id="Line_90" data-name="Line 90" x2="51.089" transform="translate(7330.911 808.619)" fill="none" stroke="#571300" stroke-linecap="round" stroke-width="3"/>
    <line id="Line_91" data-name="Line 91" x2="51.089" transform="translate(7330.911 799.024)" fill="none" stroke="#571300" stroke-linecap="round" stroke-width="3"/>
  </g>
</svg>
